{"glyphs":{"0":{"ha":886,"x_min":61,"x_max":825,"o":"m 443 -14 q 283 20 354 -14 q 163 119 213 54 q 88 276 114 183 q 61 486 61 369 q 90 700 61 607 q 169 856 118 793 q 291 953 221 919 q 443 986 361 986 q 595 953 525 986 q 716 856 665 919 q 796 700 767 793 q 825 486 825 607 q 799 276 825 369 q 723 119 772 183 q 603 20 674 54 q 443 -14 532 -14 m 443 86 q 548 110 500 86 q 630 184 596 135 q 683 308 664 233 q 703 486 703 383 q 683 660 703 585 q 629 785 664 735 q 547 860 594 835 q 443 886 499 886 q 339 860 386 886 q 257 785 292 835 q 203 660 222 735 q 183 486 183 585 q 203 308 183 383 q 256 184 222 233 q 338 110 290 135 q 443 86 386 86 z "},"1":{"ha":606,"x_min":53,"x_max":556,"o":"m 67 81 q 86 100 67 100 l 254 100 l 254 828 l 128 710 q 114 703 121 703 q 101 710 107 703 l 58 767 q 53 781 53 774 q 58 793 53 788 l 238 954 q 256 969 249 965 q 279 972 264 972 l 349 972 q 368 953 368 972 l 368 100 l 536 100 q 556 81 556 100 l 556 19 q 536 0 556 0 l 86 0 q 67 19 67 0 l 67 81 z "},"2":{"ha":763,"x_min":64,"x_max":693,"o":"m 83 76 q 87 98 83 90 q 100 117 90 106 l 406 425 q 475 501 446 467 q 523 569 504 536 q 550 638 542 603 q 558 713 558 672 q 506 840 558 793 q 371 886 454 886 q 246 840 296 886 q 168 724 196 794 q 151 711 163 711 q 140 714 146 711 l 75 743 q 66 749 68 746 q 64 757 64 753 q 67 768 64 760 q 107 849 81 810 q 172 918 133 888 q 260 967 210 949 q 371 986 310 986 q 493 967 438 986 q 589 913 549 947 q 652 830 629 878 q 675 724 675 782 q 662 619 675 667 q 624 530 649 572 q 563 446 599 488 q 482 358 528 404 l 228 100 l 674 100 q 693 81 693 100 l 693 19 q 674 0 693 0 l 103 0 q 83 19 83 0 l 83 76 z "},"3":{"ha":774,"x_min":56,"x_max":699,"o":"m 126 254 q 138 258 132 258 q 150 250 146 258 q 190 187 167 217 q 242 135 213 157 q 308 99 271 113 q 389 86 344 86 q 463 99 428 86 q 526 138 499 113 q 569 201 553 164 q 585 286 585 239 q 526 452 585 388 q 347 517 467 517 l 310 517 q 282 544 282 517 l 282 578 q 299 619 282 600 l 522 872 l 138 872 q 110 900 110 872 l 110 944 q 138 972 110 972 l 621 972 q 649 944 649 972 l 649 886 q 644 860 649 871 q 629 838 640 850 l 424 610 q 632 496 565 582 q 699 288 699 410 q 676 167 699 222 q 612 72 653 113 q 514 9 571 32 q 389 -14 457 -14 q 268 4 321 -14 q 174 51 215 22 q 105 117 133 81 q 58 192 76 154 q 56 203 56 199 q 65 218 56 213 l 126 254 z "},"4":{"ha":813,"x_min":56,"x_max":751,"o":"m 56 329 q 59 347 56 339 q 68 364 63 354 l 397 958 q 418 972 404 972 l 511 972 q 521 964 521 972 q 519 958 521 961 l 178 343 l 472 343 l 472 633 q 486 653 472 653 l 567 653 q 586 633 586 653 l 586 343 l 732 343 q 751 324 751 343 l 751 263 q 732 243 751 243 l 586 243 l 586 28 q 558 0 586 0 l 500 0 q 472 28 472 0 l 472 243 l 75 243 q 56 263 56 243 l 56 329 z "},"5":{"ha":776,"x_min":67,"x_max":717,"o":"m 139 261 q 150 265 144 265 q 163 256 158 265 q 197 196 176 226 q 245 141 217 165 q 310 101 274 117 q 392 86 346 86 q 544 144 485 86 q 603 308 603 203 q 585 408 603 365 q 540 477 568 450 q 474 517 511 504 q 397 531 438 531 q 276 501 326 531 q 196 438 226 472 q 179 428 188 428 q 169 429 175 428 l 101 444 q 93 454 93 446 l 93 460 l 164 946 q 192 972 168 972 l 629 972 q 649 953 649 972 l 649 892 q 629 872 649 872 l 258 872 l 213 575 q 296 615 249 599 q 399 631 343 631 q 520 613 463 631 q 622 555 578 594 q 691 454 665 515 q 717 308 717 393 q 692 176 717 236 q 624 74 668 117 q 522 9 581 32 q 392 -14 463 -14 q 276 6 328 -14 q 183 56 224 25 q 114 125 143 86 q 68 203 85 164 q 67 210 67 207 q 75 224 67 218 l 139 261 z "},"6":{"ha":785,"x_min":67,"x_max":728,"o":"m 640 815 q 621 803 629 803 q 607 808 613 803 q 522 869 561 853 q 433 886 482 886 q 340 858 383 886 q 266 783 297 829 q 215 675 235 736 q 193 550 196 614 q 233 589 208 571 q 288 622 257 607 q 352 644 318 636 q 422 653 386 653 q 542 629 486 653 q 639 562 597 606 q 704 457 681 518 q 728 319 728 396 q 703 189 728 250 q 634 83 678 128 q 531 12 590 38 q 401 -14 471 -14 q 271 13 332 -14 q 165 93 210 40 q 93 223 119 146 q 67 400 67 300 q 91 632 67 525 q 162 818 115 739 q 276 942 208 897 q 433 986 344 986 q 569 960 511 986 q 678 886 628 933 q 683 874 683 881 q 678 861 683 868 l 640 815 m 197 300 q 213 210 197 250 q 258 143 229 171 q 324 101 286 115 q 404 86 361 86 q 483 101 446 86 q 550 146 521 117 q 597 219 579 175 q 614 319 614 263 q 597 419 614 375 q 550 492 579 463 q 483 538 521 522 q 404 553 444 553 q 321 537 356 553 q 256 494 286 521 q 238 478 247 488 q 219 454 228 468 q 203 420 210 440 q 197 372 197 400 l 197 300 z "},"7":{"ha":721,"x_min":42,"x_max":675,"o":"m 556 872 l 61 872 q 42 892 42 872 l 42 953 q 61 972 42 972 l 656 972 q 675 953 675 972 l 675 896 q 672 872 675 881 q 663 851 668 863 l 307 18 q 294 3 301 7 q 271 0 286 0 l 207 0 q 189 15 189 0 q 192 26 189 18 l 556 872 z "},"8":{"ha":750,"x_min":64,"x_max":686,"o":"m 225 542 q 148 617 183 569 q 113 739 113 665 q 134 842 113 796 q 192 919 156 888 q 276 969 229 951 q 375 986 324 986 q 474 969 426 986 q 557 919 521 951 q 615 842 593 888 q 638 739 638 796 q 602 617 638 665 q 525 542 567 569 q 640 442 593 508 q 686 286 686 376 q 663 166 686 221 q 599 71 640 111 q 501 8 558 31 q 375 -14 444 -14 q 249 8 306 -14 q 151 71 192 31 q 87 166 110 111 q 64 286 64 221 q 110 442 64 376 q 225 542 157 508 m 375 86 q 449 99 414 86 q 512 138 485 113 q 556 201 539 164 q 572 286 572 238 q 556 372 572 335 q 511 433 539 408 q 448 472 483 458 q 375 485 413 485 q 302 472 338 485 q 239 433 267 458 q 194 372 211 408 q 178 286 178 335 q 194 200 178 238 q 238 138 211 163 q 301 99 265 113 q 375 86 336 86 m 221 736 q 234 672 221 700 q 269 625 247 644 q 319 595 292 606 q 375 585 347 585 q 431 595 403 585 q 480 625 458 606 q 515 672 501 644 q 529 736 529 700 q 483 847 529 808 q 375 886 438 886 q 267 847 313 886 q 221 736 221 808 z "},"9":{"ha":785,"x_min":57,"x_max":718,"o":"m 138 188 q 153 194 144 194 q 167 189 161 194 q 258 115 208 144 q 361 86 307 86 q 522 167 463 86 q 586 394 582 247 q 494 340 550 360 q 382 319 439 319 q 253 343 313 319 q 151 410 194 367 q 82 515 107 454 q 57 653 57 576 q 82 783 57 722 q 151 890 107 844 q 254 960 194 935 q 383 986 314 986 q 565 941 488 986 q 685 794 643 896 q 710 693 703 751 q 718 553 718 635 q 628 133 718 281 q 361 -14 539 -14 q 213 19 279 -14 q 93 108 146 53 q 86 124 86 115 q 93 140 86 133 l 138 188 m 588 688 q 578 760 588 732 q 554 810 569 789 q 482 866 526 846 q 381 886 438 886 q 301 871 339 886 q 235 826 264 856 q 188 753 206 797 q 171 653 171 710 q 188 553 171 596 q 235 480 206 510 q 302 435 264 450 q 381 419 340 419 q 465 430 429 419 q 529 464 500 440 q 567 507 546 476 q 588 586 588 538 l 588 688 z "},"\u0000":{"ha":0,"x_min":0,"x_max":0,"o":""},"\r":{"ha":0,"x_min":0,"x_max":0,"o":""}," ":{"ha":336,"x_min":0,"x_max":0,"o":""},"!":{"ha":358,"x_min":94,"x_max":264,"o":"m 94 69 q 119 131 94 106 q 178 156 143 156 q 239 131 214 156 q 264 69 264 106 q 239 10 264 35 q 178 -14 214 -14 q 119 10 143 -14 q 94 69 94 35 m 119 953 q 139 972 119 972 l 214 972 q 233 953 233 972 l 233 254 q 214 235 233 235 l 139 235 q 119 254 119 235 l 119 953 z "},"\"":{"ha":489,"x_min":94,"x_max":394,"o":"m 94 953 q 114 972 94 972 l 181 972 q 200 953 200 972 l 200 719 q 181 700 200 700 l 114 700 q 94 719 94 700 l 94 953 m 289 953 q 308 972 289 972 l 375 972 q 394 953 394 972 l 394 719 q 375 700 394 700 l 308 700 q 289 719 289 700 l 289 953 z "},"#":{"ha":844,"x_min":39,"x_max":806,"o":"m 185 275 l 58 275 q 39 294 39 275 l 39 356 q 58 375 39 375 l 206 375 l 249 597 l 114 597 q 94 617 94 597 l 94 678 q 114 697 94 697 l 268 697 l 318 950 q 327 968 321 964 q 344 972 333 972 l 414 972 q 428 960 428 972 q 426 950 428 957 l 376 697 l 551 697 l 601 950 q 610 968 604 964 q 628 972 617 972 l 697 972 q 711 960 711 972 q 710 950 711 957 l 660 697 l 786 697 q 806 678 806 697 l 806 617 q 786 597 806 597 l 639 597 l 596 375 l 731 375 q 750 356 750 375 l 750 294 q 731 275 750 275 l 576 275 l 526 22 q 517 4 524 8 q 500 0 511 0 l 431 0 q 417 13 417 0 q 418 22 417 15 l 468 275 l 293 275 l 243 22 q 234 4 240 8 q 217 0 228 0 l 147 0 q 133 13 133 0 q 135 22 133 15 l 185 275 m 488 375 l 531 597 l 357 597 l 314 375 l 488 375 z "},"$":{"ha":793,"x_min":54,"x_max":729,"o":"m 358 -10 q 174 62 251 4 q 60 201 97 119 q 54 218 54 213 q 63 229 54 225 l 132 265 q 144 269 140 269 q 157 260 151 269 q 240 149 193 192 q 358 92 288 106 l 358 464 q 264 501 310 478 q 183 558 218 525 q 125 635 147 592 q 103 732 103 678 q 122 830 103 786 q 174 907 140 874 q 255 960 208 940 q 358 986 301 981 l 358 1106 q 378 1125 358 1125 l 444 1125 q 464 1106 464 1125 l 464 982 q 539 960 506 975 q 600 926 572 946 q 650 885 628 907 q 689 840 672 863 q 694 828 694 833 q 686 814 694 821 l 633 771 q 619 764 624 764 q 606 772 613 764 q 539 840 574 813 q 464 878 504 867 l 464 546 q 563 507 515 529 q 648 453 611 485 q 707 378 685 421 q 729 276 729 335 q 710 169 729 218 q 656 82 690 119 q 572 20 621 44 q 464 -11 522 -4 l 464 -133 q 444 -153 464 -153 l 378 -153 q 358 -133 358 -153 l 358 -10 m 464 89 q 567 145 528 100 q 607 268 607 190 q 571 364 607 326 q 464 429 535 401 l 464 89 m 358 883 q 256 840 296 875 q 217 744 217 806 q 256 647 217 686 q 358 582 296 608 l 358 883 z "},"%":{"ha":1110,"x_min":44,"x_max":1065,"o":"m 842 -14 q 753 1 794 -14 q 683 46 713 17 q 635 118 653 75 q 618 218 618 161 q 679 388 618 325 q 842 450 740 450 q 1004 388 943 450 q 1065 218 1065 325 q 1048 118 1065 161 q 1001 46 1031 75 q 930 1 971 17 q 842 -14 889 -14 m 842 69 q 935 110 900 69 q 971 217 971 150 q 934 325 971 283 q 842 367 897 367 q 749 325 786 367 q 713 217 713 283 q 748 110 713 150 q 842 69 783 69 m 268 522 q 180 538 221 522 q 109 582 139 553 q 62 654 79 611 q 44 754 44 697 q 106 924 44 861 q 268 986 167 986 q 431 924 369 986 q 492 754 492 861 q 474 654 492 697 q 427 582 457 611 q 356 538 397 553 q 268 522 315 522 m 268 606 q 362 646 326 606 q 397 753 397 686 q 360 861 397 819 q 268 903 324 903 q 176 861 213 903 q 139 753 139 819 q 174 646 139 686 q 268 606 210 606 m 829 951 q 864 972 843 972 l 926 972 q 943 957 943 972 q 939 944 943 950 l 281 21 q 246 0 265 0 l 183 0 q 167 15 167 0 q 171 28 167 21 l 829 951 z "},"&":{"ha":881,"x_min":58,"x_max":813,"o":"m 615 81 q 499 10 563 33 q 351 -14 435 -14 q 232 6 286 -14 q 140 63 178 26 q 80 152 101 100 q 58 268 58 204 q 73 360 58 318 q 113 435 88 401 q 169 495 138 469 q 236 540 201 521 l 218 564 q 161 655 185 608 q 138 761 138 701 q 157 854 138 813 q 210 925 176 896 q 288 970 243 954 q 382 986 332 986 q 481 970 436 986 q 556 926 525 954 q 605 858 588 897 q 622 771 622 818 q 608 693 622 732 q 567 619 594 654 q 499 555 539 583 q 407 508 458 526 l 621 249 q 670 339 647 289 q 714 444 693 389 q 728 457 718 457 q 732 457 731 457 q 740 454 733 457 l 803 426 q 813 413 813 422 q 811 404 813 408 q 750 271 779 329 q 689 165 721 213 l 799 32 q 806 15 806 24 q 790 0 806 0 l 710 0 q 682 7 692 0 q 663 25 672 14 l 615 81 m 301 463 q 207 382 242 429 q 172 265 172 335 q 187 191 172 224 q 227 135 201 158 q 287 99 253 111 q 360 86 321 86 q 549 161 469 86 l 301 463 m 344 583 q 471 659 431 615 q 511 771 511 703 q 476 858 511 826 q 382 889 440 889 q 288 854 324 889 q 251 765 251 819 q 268 692 251 725 q 318 617 285 658 l 344 583 z "},"'":{"ha":294,"x_min":94,"x_max":200,"o":"m 94 953 q 114 972 94 972 l 181 972 q 200 953 200 972 l 200 719 q 181 700 200 700 l 114 700 q 94 719 94 700 l 94 953 z "},"(":{"ha":410,"x_min":58,"x_max":382,"o":"m 342 -140 q 319 -150 333 -150 q 303 -144 310 -150 q 122 101 185 -46 q 58 431 58 249 q 122 760 58 613 q 303 1006 185 907 q 319 1011 310 1011 q 342 1001 333 1011 l 374 963 q 382 944 382 951 q 369 924 382 933 q 227 718 282 844 q 172 431 172 592 q 227 143 172 269 q 369 -62 282 17 q 382 -83 382 -74 q 374 -101 382 -92 l 342 -140 z "},")":{"ha":410,"x_min":28,"x_max":351,"o":"m 36 -101 q 28 -83 28 -92 q 40 -62 28 -74 q 183 143 128 17 q 238 431 238 269 q 183 718 238 592 q 40 924 128 844 q 28 944 28 933 q 36 963 28 951 l 68 1001 q 90 1011 76 1011 q 107 1006 100 1011 q 288 760 225 907 q 351 431 351 613 q 288 101 351 249 q 107 -144 225 -46 q 90 -150 100 -150 q 68 -140 76 -150 l 36 -101 z "},"*":{"ha":556,"x_min":53,"x_max":503,"o":"m 57 625 q 53 638 53 633 q 64 653 53 646 l 197 729 l 64 806 q 53 821 53 813 q 57 833 53 825 l 78 868 q 92 881 83 881 q 104 876 96 881 l 238 799 l 238 953 q 257 972 238 972 l 299 972 q 318 953 318 972 l 318 799 l 451 876 q 464 881 460 881 q 478 868 471 881 l 499 833 q 503 821 503 825 q 492 806 503 813 l 358 729 l 492 653 q 503 638 503 646 q 499 625 503 633 l 478 590 q 464 578 471 578 q 451 582 460 578 l 318 660 l 318 506 q 299 486 318 486 l 257 486 q 238 506 238 486 l 238 660 l 104 582 q 92 578 96 578 q 78 590 83 578 l 57 625 z "},"+":{"ha":708,"x_min":53,"x_max":650,"o":"m 303 431 l 72 431 q 53 450 53 431 l 53 508 q 72 528 53 528 l 303 528 l 303 758 q 322 778 303 778 l 381 778 q 400 758 400 778 l 400 528 l 631 528 q 650 508 650 528 l 650 450 q 631 431 650 431 l 400 431 l 400 200 q 381 181 400 181 l 322 181 q 303 200 303 181 l 303 431 z "},",":{"ha":303,"x_min":53,"x_max":229,"o":"m 71 -111 q 53 -89 53 -100 q 57 -74 53 -81 q 108 26 97 -21 q 119 115 119 72 q 132 140 119 133 q 149 143 140 143 l 203 143 q 229 115 229 143 q 205 -15 229 40 q 140 -122 181 -69 q 129 -133 133 -129 q 118 -136 125 -136 q 103 -132 111 -136 l 71 -111 z "},"-":{"ha":597,"x_min":53,"x_max":539,"o":"m 53 508 q 72 528 53 528 l 519 528 q 539 508 539 528 l 539 450 q 519 431 539 431 l 72 431 q 53 450 53 431 l 53 508 z "},".":{"ha":303,"x_min":72,"x_max":231,"o":"m 72 69 q 95 126 72 103 q 150 150 118 150 q 207 126 183 150 q 231 69 231 103 q 207 15 231 38 q 150 -8 183 -8 q 95 15 118 -8 q 72 69 72 38 z "},"/":{"ha":647,"x_min":31,"x_max":617,"o":"m 497 953 q 507 966 500 960 q 526 972 514 972 l 600 972 q 617 958 617 972 q 613 944 617 953 l 150 19 q 140 6 147 13 q 121 0 133 0 l 47 0 q 31 14 31 0 q 35 28 31 19 l 497 953 z "},":":{"ha":303,"x_min":72,"x_max":231,"o":"m 72 69 q 95 126 72 103 q 150 150 118 150 q 207 126 183 150 q 231 69 231 103 q 207 15 231 38 q 150 -8 183 -8 q 95 15 118 -8 q 72 69 72 38 m 72 597 q 95 654 72 631 q 150 678 118 678 q 207 654 183 678 q 231 597 231 631 q 207 542 231 565 q 150 519 183 519 q 95 542 118 519 q 72 597 72 565 z "},";":{"ha":303,"x_min":44,"x_max":236,"o":"m 78 597 q 101 654 78 631 q 156 678 124 678 q 213 654 189 678 q 236 597 236 631 q 213 542 236 565 q 156 519 189 519 q 101 542 124 519 q 78 597 78 565 m 63 -111 q 44 -89 44 -100 q 49 -74 44 -81 q 100 26 89 -21 q 111 115 111 72 q 124 140 111 133 q 140 143 132 143 l 194 143 q 221 115 221 143 q 197 -15 221 40 q 132 -122 172 -69 q 121 -133 125 -129 q 110 -136 117 -136 q 94 -132 103 -136 l 63 -111 z "},"<":{"ha":636,"x_min":81,"x_max":567,"o":"m 81 497 q 86 517 81 511 q 100 528 92 522 l 540 806 q 553 810 546 810 q 567 794 567 810 l 567 713 q 547 682 567 694 l 186 458 l 547 235 q 567 204 567 222 l 567 122 q 553 107 567 107 q 540 111 546 107 l 100 389 q 86 400 92 394 q 81 419 81 406 l 81 497 z "},"=":{"ha":708,"x_min":53,"x_max":650,"o":"m 53 619 q 72 639 53 639 l 631 639 q 650 619 650 639 l 650 561 q 631 542 650 542 l 72 542 q 53 561 53 542 l 53 619 m 53 328 q 72 347 53 347 l 631 347 q 650 328 650 347 l 650 269 q 631 250 650 250 l 72 250 q 53 269 53 250 l 53 328 z "},">":{"ha":636,"x_min":69,"x_max":556,"o":"m 69 204 q 89 235 69 222 l 450 458 l 89 682 q 69 713 69 694 l 69 794 q 83 810 69 810 q 96 806 89 810 l 536 528 q 550 517 544 522 q 556 497 556 511 l 556 419 q 550 400 556 406 q 536 389 544 394 l 96 111 q 83 107 89 107 q 69 122 69 107 l 69 204 z "},"?":{"ha":731,"x_min":58,"x_max":668,"o":"m 310 318 q 324 399 310 364 q 361 464 339 435 q 410 516 383 493 q 463 560 438 539 q 554 735 554 633 q 540 798 554 769 q 501 846 526 826 q 443 876 476 865 q 371 886 410 886 q 299 872 331 886 q 242 835 268 858 q 197 779 217 811 q 160 711 176 747 q 146 703 156 703 q 132 706 139 703 l 68 739 q 58 753 58 744 q 61 764 58 758 q 108 845 79 806 q 174 916 136 885 q 261 967 213 947 q 371 986 310 986 q 589 919 510 986 q 668 739 668 853 q 658 661 668 696 q 631 599 647 626 q 592 547 614 571 q 546 504 569 524 q 501 465 522 485 q 462 424 479 446 q 434 374 444 401 q 424 313 424 347 l 424 254 q 404 235 424 235 l 329 235 q 310 254 310 235 l 310 318 m 285 69 q 309 131 285 106 q 368 156 333 156 q 429 131 404 156 q 454 69 454 106 q 429 10 454 35 q 368 -14 404 -14 q 309 10 333 -14 q 285 69 285 35 z "},"@":{"ha":1103,"x_min":61,"x_max":1044,"o":"m 896 96 q 899 86 899 90 q 890 74 899 79 q 806 31 846 47 q 727 4 767 14 q 645 -10 688 -6 q 554 -14 603 -14 q 376 18 464 -14 q 217 113 288 50 q 104 269 147 175 q 61 486 61 363 q 101 695 61 603 q 210 852 142 788 q 367 951 278 917 q 554 986 456 986 q 742 953 653 986 q 898 859 831 921 q 1005 708 965 797 q 1044 504 1044 618 q 992 293 1044 364 q 853 222 940 222 q 767 245 803 222 q 710 303 731 268 q 637 244 678 265 q 538 222 596 222 q 446 241 490 222 q 367 294 401 260 q 313 378 333 328 q 293 490 293 428 q 315 599 293 550 q 372 682 336 647 q 456 735 408 717 q 557 754 504 754 q 624 747 594 754 q 677 730 654 740 q 715 708 700 719 q 740 686 731 696 q 780 636 768 658 q 792 578 792 614 l 792 446 q 806 353 792 388 q 861 319 821 319 q 916 360 899 319 q 933 500 933 401 q 903 670 933 597 q 822 791 874 743 q 701 863 771 839 q 554 886 632 886 q 415 863 483 886 q 293 790 347 839 q 206 665 239 740 q 172 486 172 589 q 206 308 172 383 q 293 184 239 233 q 415 110 347 135 q 554 86 483 86 q 642 91 604 86 q 711 106 679 96 q 773 130 743 115 q 838 164 803 144 q 850 168 843 168 q 864 157 858 168 l 896 96 m 686 535 q 680 582 686 565 q 658 615 674 599 q 617 646 642 635 q 560 657 592 657 q 447 613 489 657 q 404 488 404 569 q 447 365 404 410 q 558 319 489 319 q 618 332 594 319 q 657 361 642 344 q 680 403 674 379 q 686 456 686 428 l 686 535 z "},"A":{"ha":831,"x_min":11,"x_max":819,"o":"m 360 950 q 369 966 363 960 q 392 972 376 972 l 439 972 q 461 966 454 972 q 471 950 468 960 l 819 19 q 800 0 819 0 l 728 0 q 703 19 710 0 l 604 288 l 226 288 l 128 19 q 103 0 121 0 l 31 0 q 11 19 11 0 l 360 950 m 567 388 l 415 803 l 264 388 l 567 388 z "},"B":{"ha":883,"x_min":119,"x_max":822,"o":"m 119 953 q 139 972 119 972 l 440 972 q 560 952 508 972 q 648 898 613 932 q 701 819 683 864 q 719 724 719 774 q 693 619 719 669 q 618 536 667 568 q 775 438 728 504 q 822 281 822 372 q 803 171 822 222 q 747 82 785 119 q 652 22 710 44 q 515 0 594 0 l 139 0 q 119 19 119 0 l 119 953 m 500 100 q 654 149 600 100 q 708 281 708 197 q 656 412 708 363 q 500 461 604 461 l 233 461 l 233 100 l 500 100 m 440 561 q 504 572 474 561 q 557 601 535 582 q 592 650 579 621 q 606 717 606 679 q 592 788 606 758 q 557 835 579 817 q 504 863 535 854 q 440 872 474 872 l 233 872 l 233 561 l 440 561 z "},"C":{"ha":913,"x_min":67,"x_max":851,"o":"m 846 143 q 851 129 851 136 q 844 115 851 122 q 765 51 804 76 q 686 12 726 26 q 604 -8 646 -3 q 517 -14 563 -14 q 348 17 429 -14 q 204 111 267 49 q 104 267 142 174 q 67 486 67 361 q 105 700 67 607 q 206 856 143 793 q 353 953 269 919 q 528 986 436 986 q 697 956 619 986 q 838 868 775 926 q 844 856 844 861 q 839 842 844 849 l 806 799 q 785 785 796 785 q 767 793 776 785 q 705 838 733 819 q 647 867 676 856 q 588 882 618 878 q 521 886 557 886 q 396 863 456 886 q 290 790 336 839 q 217 665 244 740 q 189 486 189 589 q 217 310 189 385 q 292 185 246 235 q 399 110 339 135 q 521 86 458 86 q 650 111 593 86 q 772 193 707 136 q 790 201 782 201 q 810 188 799 201 l 846 143 z "},"D":{"ha":922,"x_min":119,"x_max":856,"o":"m 119 953 q 139 972 119 972 l 375 972 q 559 942 472 972 q 712 850 646 911 q 817 698 778 789 q 856 486 856 607 q 817 270 856 361 q 713 119 778 179 q 560 29 647 58 q 375 0 472 0 l 139 0 q 119 19 119 0 l 119 953 m 375 100 q 511 122 446 100 q 626 191 576 144 q 704 310 675 238 q 733 486 733 383 q 704 663 733 589 q 626 783 675 736 q 512 851 576 829 q 375 872 447 872 l 233 872 l 233 100 l 375 100 z "},"E":{"ha":825,"x_min":119,"x_max":756,"o":"m 119 953 q 139 972 119 972 l 717 972 q 736 953 736 972 l 736 892 q 717 872 736 872 l 233 872 l 233 561 l 625 561 q 644 542 644 561 l 644 481 q 625 461 644 461 l 233 461 l 233 100 l 736 100 q 756 81 756 100 l 756 19 q 736 0 756 0 l 139 0 q 119 19 119 0 l 119 953 z "},"F":{"ha":817,"x_min":119,"x_max":753,"o":"m 119 953 q 139 972 119 972 l 733 972 q 753 953 753 972 l 753 892 q 733 872 753 872 l 233 872 l 233 544 l 642 544 q 661 525 661 544 l 661 464 q 642 444 661 444 l 233 444 l 233 19 q 214 0 233 0 l 139 0 q 119 19 119 0 l 119 953 z "},"G":{"ha":1019,"x_min":67,"x_max":958,"o":"m 418 486 q 438 506 418 506 l 939 506 q 958 486 958 506 l 958 457 q 931 272 958 358 q 849 122 903 186 q 716 22 794 58 q 536 -14 638 -14 q 358 17 443 -14 q 208 111 272 49 q 105 267 143 174 q 67 486 67 361 q 106 700 67 607 q 210 856 144 793 q 360 953 275 919 q 540 986 446 986 q 655 973 599 986 q 760 935 711 960 q 849 875 808 910 q 918 797 890 840 q 926 775 926 785 q 918 758 926 765 l 871 719 q 856 713 861 713 q 836 725 844 713 q 695 850 774 814 q 533 886 617 886 q 406 863 468 886 q 297 790 344 839 q 219 665 249 740 q 189 486 189 589 q 217 311 189 386 q 294 186 246 236 q 403 111 342 136 q 533 86 465 86 q 754 171 675 86 q 840 406 833 256 l 438 406 q 418 425 418 406 l 418 486 z "},"H":{"ha":932,"x_min":119,"x_max":813,"o":"m 119 953 q 139 972 119 972 l 214 972 q 233 953 233 972 l 233 561 l 699 561 l 699 953 q 718 972 699 972 l 793 972 q 813 953 813 972 l 813 19 q 793 0 813 0 l 718 0 q 699 19 699 0 l 699 461 l 233 461 l 233 19 q 214 0 233 0 l 139 0 q 119 19 119 0 l 119 953 z "},"I":{"ha":572,"x_min":42,"x_max":531,"o":"m 42 81 q 61 100 42 100 l 229 100 l 229 872 l 75 872 q 56 892 56 872 l 56 953 q 75 972 56 972 l 497 972 q 517 953 517 972 l 517 892 q 497 872 517 872 l 343 872 l 343 100 l 511 100 q 531 81 531 100 l 531 19 q 511 0 531 0 l 61 0 q 42 19 42 0 l 42 81 z "},"J":{"ha":788,"x_min":33,"x_max":751,"o":"m 114 260 q 125 263 122 263 q 139 251 135 263 q 215 128 164 171 q 344 86 265 86 q 481 140 431 86 q 531 310 531 194 l 531 872 l 228 872 q 208 892 208 872 l 208 953 q 228 972 208 972 l 732 972 q 751 953 751 972 l 751 922 q 732 897 751 904 l 644 872 l 644 314 q 622 172 644 233 q 558 69 599 111 q 462 7 517 28 q 344 -14 407 -14 q 228 5 279 -14 q 140 55 178 24 q 77 126 103 86 q 36 206 51 165 q 33 214 33 213 q 33 218 33 215 q 44 232 33 226 l 114 260 z "},"K":{"ha":813,"x_min":119,"x_max":778,"o":"m 119 953 q 139 972 119 972 l 214 972 q 233 953 233 972 l 233 576 l 596 957 q 629 972 608 972 l 724 972 q 739 960 739 972 q 733 947 739 953 l 393 589 l 772 32 q 778 17 778 25 q 761 0 778 0 l 679 0 q 660 4 668 0 q 642 22 651 8 l 313 504 l 233 421 l 233 19 q 214 0 233 0 l 139 0 q 119 19 119 0 l 119 953 z "},"L":{"ha":772,"x_min":119,"x_max":729,"o":"m 119 953 q 139 972 119 972 l 214 972 q 233 953 233 972 l 233 100 l 710 100 q 729 81 729 100 l 729 19 q 710 0 729 0 l 139 0 q 119 19 119 0 l 119 953 z "},"M":{"ha":1156,"x_min":71,"x_max":1085,"o":"m 169 953 q 190 972 172 972 l 258 972 q 285 953 276 972 l 578 175 l 871 953 q 897 972 879 972 l 965 972 q 986 953 983 972 l 1085 19 q 1064 0 1085 0 l 992 0 q 971 19 972 0 l 901 751 l 633 19 q 608 0 626 0 l 547 0 q 522 19 529 0 l 254 751 l 185 19 q 164 0 183 0 l 92 0 q 71 19 71 0 l 169 953 z "},"N":{"ha":953,"x_min":119,"x_max":833,"o":"m 119 953 q 139 972 119 972 l 196 972 q 215 967 208 972 q 228 953 221 963 l 719 215 l 719 953 q 739 972 719 972 l 814 972 q 833 953 833 972 l 833 19 q 814 0 833 0 l 757 0 q 738 5 744 0 q 725 19 732 10 l 233 757 l 233 19 q 214 0 233 0 l 139 0 q 119 19 119 0 l 119 953 z "},"O":{"ha":1064,"x_min":67,"x_max":997,"o":"m 532 -14 q 358 18 442 -14 q 209 113 274 50 q 106 269 144 175 q 67 486 67 363 q 106 700 67 607 q 211 856 146 793 q 360 953 276 919 q 532 986 443 986 q 704 953 621 986 q 853 856 788 919 q 958 700 918 793 q 997 486 997 607 q 958 269 997 363 q 855 113 919 175 q 706 18 790 50 q 532 -14 622 -14 m 532 86 q 660 110 599 86 q 770 184 722 135 q 847 308 818 233 q 875 486 875 383 q 846 665 875 589 q 769 790 817 740 q 659 863 721 839 q 532 886 597 886 q 405 863 467 886 q 295 790 343 839 q 218 665 247 740 q 189 486 189 589 q 217 308 189 383 q 294 184 246 233 q 403 110 342 135 q 532 86 465 86 z "},"P":{"ha":885,"x_min":119,"x_max":817,"o":"m 119 953 q 139 972 119 972 l 501 972 q 630 952 572 972 q 729 894 688 932 q 794 804 771 857 q 817 688 817 751 q 796 575 817 626 q 736 486 775 524 q 644 428 697 449 q 525 407 590 407 l 233 407 l 233 19 q 214 0 233 0 l 139 0 q 119 19 119 0 l 119 953 m 517 507 q 599 522 564 507 q 658 560 635 536 q 692 617 681 585 q 703 688 703 650 q 691 758 703 725 q 656 817 679 792 q 599 857 633 842 q 517 872 564 872 l 233 872 l 233 507 l 517 507 z "},"Q":{"ha":1064,"x_min":67,"x_max":997,"o":"m 731 28 q 532 -14 639 -14 q 358 18 442 -14 q 209 113 274 50 q 106 269 144 175 q 67 486 67 363 q 106 700 67 607 q 211 856 146 793 q 360 953 276 919 q 532 986 443 986 q 704 953 621 986 q 853 856 788 919 q 958 700 918 793 q 997 486 997 607 q 949 247 997 347 q 822 85 901 147 l 871 -4 q 874 -15 874 -10 q 867 -26 874 -22 l 810 -58 q 793 -64 800 -64 q 776 -53 783 -64 l 731 28 m 579 313 q 576 322 576 318 q 588 338 576 331 l 649 371 q 660 374 654 374 q 674 364 668 374 l 769 185 q 846 308 817 233 q 875 486 875 383 q 846 665 875 589 q 769 790 817 740 q 659 863 721 839 q 532 886 597 886 q 405 863 467 886 q 295 790 343 839 q 218 665 247 740 q 189 486 189 589 q 217 308 189 383 q 294 184 246 233 q 403 110 342 135 q 532 86 465 86 q 682 119 613 86 l 579 313 z "},"R":{"ha":854,"x_min":119,"x_max":800,"o":"m 119 953 q 139 972 119 972 l 479 972 q 608 953 551 972 q 703 899 664 933 q 762 819 742 865 q 782 719 782 774 q 762 619 782 665 q 706 540 742 574 q 617 486 669 506 q 503 467 565 467 l 486 467 l 796 28 q 800 15 800 21 q 782 0 800 0 l 700 0 q 678 5 685 0 q 663 21 671 10 l 350 467 l 233 467 l 233 19 q 214 0 233 0 l 139 0 q 119 19 119 0 l 119 953 m 481 567 q 622 606 576 567 q 668 719 668 644 q 622 833 668 794 q 481 872 576 872 l 233 872 l 233 567 l 481 567 z "},"S":{"ha":793,"x_min":54,"x_max":729,"o":"m 132 265 q 144 269 140 269 q 157 260 151 269 q 205 187 179 219 q 263 132 231 154 q 334 98 294 110 q 422 86 374 86 q 556 133 504 86 q 607 268 607 179 q 547 385 607 342 q 372 460 486 428 q 274 497 322 474 q 188 554 226 521 q 126 632 150 588 q 103 732 103 676 q 125 838 103 790 q 187 917 147 885 q 281 968 226 950 q 399 986 335 986 q 499 974 454 986 q 578 940 543 961 q 641 893 614 919 q 689 840 668 867 q 694 828 694 833 q 686 814 694 821 l 633 771 q 619 764 624 764 q 606 772 613 764 q 513 856 563 826 q 399 886 463 886 q 328 877 361 886 q 270 851 294 868 q 231 806 246 833 q 217 744 217 779 q 234 678 217 707 q 281 626 251 649 q 349 586 310 603 q 435 556 389 569 q 543 517 490 539 q 638 462 596 494 q 704 384 679 429 q 729 276 729 339 q 706 159 729 213 q 642 67 683 106 q 542 8 600 29 q 417 -14 485 -14 q 297 3 353 -14 q 196 48 242 19 q 115 116 150 76 q 60 201 81 156 q 54 218 54 213 q 63 229 54 225 l 132 265 z "},"T":{"ha":822,"x_min":44,"x_max":778,"o":"m 354 872 l 64 872 q 44 892 44 872 l 44 953 q 64 972 44 972 l 758 972 q 778 953 778 972 l 778 892 q 758 872 778 872 l 468 872 l 468 19 q 449 0 468 0 l 374 0 q 354 19 354 0 l 354 872 z "},"U":{"ha":964,"x_min":114,"x_max":850,"o":"m 114 953 q 133 972 114 972 l 208 972 q 228 953 228 972 l 228 431 q 288 176 228 267 q 482 86 347 86 q 676 176 617 86 q 736 431 736 267 l 736 953 q 756 972 736 972 l 831 972 q 850 953 850 972 l 850 415 q 759 97 850 207 q 482 -14 668 -14 q 205 97 296 -14 q 114 415 114 207 l 114 953 z "},"V":{"ha":797,"x_min":11,"x_max":786,"o":"m 11 950 q 31 972 11 972 l 107 972 q 125 967 119 972 q 135 950 131 961 l 399 153 l 663 950 q 672 967 667 961 q 690 972 678 972 l 767 972 q 786 950 786 972 l 468 28 q 457 7 464 14 q 435 0 450 0 l 363 0 q 340 7 347 0 q 329 28 333 14 l 11 950 z "},"W":{"ha":1208,"x_min":14,"x_max":1194,"o":"m 14 944 q 42 972 14 972 l 100 972 q 119 966 114 972 q 128 944 124 960 l 329 186 l 546 944 q 558 965 550 958 q 581 972 565 972 l 628 972 q 651 965 643 972 q 663 944 658 958 l 879 186 l 1081 944 q 1090 966 1085 960 q 1108 972 1094 972 l 1167 972 q 1194 944 1194 972 l 944 28 q 908 0 936 0 l 857 0 q 822 28 831 0 l 604 783 l 386 28 q 351 0 378 0 l 300 0 q 264 28 272 0 l 14 944 z "},"X":{"ha":768,"x_min":18,"x_max":749,"o":"m 321 515 l 61 939 q 56 954 56 949 q 75 972 56 972 l 144 972 q 175 956 164 972 l 383 617 l 592 956 q 622 972 603 972 l 692 972 q 711 954 711 972 q 706 939 711 949 l 446 515 l 743 31 q 749 15 749 21 q 733 0 749 0 l 664 0 q 641 6 649 0 q 628 21 633 13 l 383 415 l 139 21 q 126 6 133 13 q 103 0 118 0 l 33 0 q 18 15 18 0 q 24 31 18 21 l 321 515 z "},"Y":{"ha":721,"x_min":6,"x_max":708,"o":"m 317 354 l 10 939 q 6 954 6 947 q 25 972 6 972 l 101 972 q 122 969 114 972 q 136 951 129 965 l 374 482 l 586 951 q 597 967 590 963 q 618 972 603 972 l 694 972 q 708 961 708 972 q 706 951 708 957 l 289 19 q 279 6 286 13 q 261 0 272 0 l 179 0 q 165 11 165 0 q 168 21 165 15 l 317 354 z "},"Z":{"ha":772,"x_min":43,"x_max":719,"o":"m 43 72 q 58 114 43 90 l 557 872 l 88 872 q 68 892 68 872 l 68 953 q 88 972 68 972 l 672 972 q 692 953 692 972 l 692 917 q 689 892 692 903 q 672 861 686 882 l 179 100 l 700 100 q 719 81 719 100 l 719 19 q 700 0 719 0 l 71 0 q 43 28 43 0 l 43 72 z "},"[":{"ha":496,"x_min":119,"x_max":424,"o":"m 119 953 q 139 972 119 972 l 404 972 q 424 953 424 972 l 424 892 q 404 872 424 872 l 233 872 l 233 -94 l 404 -94 q 424 -114 424 -94 l 424 -175 q 404 -194 424 -194 l 139 -194 q 119 -175 119 -194 l 119 953 z "},"\\":{"ha":647,"x_min":31,"x_max":617,"o":"m 35 944 q 31 958 31 953 q 47 972 31 972 l 121 972 q 140 966 133 972 q 150 953 147 960 l 613 28 q 617 14 617 19 q 600 0 617 0 l 526 0 q 507 6 514 0 q 497 19 500 13 l 35 944 z "},"]":{"ha":496,"x_min":72,"x_max":376,"o":"m 72 -114 q 92 -94 72 -94 l 263 -94 l 263 872 l 92 872 q 72 892 72 872 l 72 953 q 92 972 72 972 l 357 972 q 376 953 376 972 l 376 -175 q 357 -194 376 -194 l 92 -194 q 72 -175 72 -194 l 72 -114 z "},"^":{"ha":758,"x_min":39,"x_max":719,"o":"m 310 953 q 323 967 317 963 q 340 972 329 972 l 418 972 q 435 967 429 972 q 449 953 442 963 l 715 560 q 719 547 719 553 q 704 533 719 533 l 617 533 q 600 538 606 533 q 589 549 594 542 l 379 864 l 169 549 q 158 538 164 542 q 142 533 153 533 l 54 533 q 39 547 39 533 q 43 560 39 553 l 310 953 z "},"_":{"ha":614,"x_min":8,"x_max":606,"o":"m 8 -33 q 28 -14 8 -14 l 586 -14 q 606 -33 606 -14 l 606 -92 q 586 -111 606 -111 l 28 -111 q 8 -92 8 -111 l 8 -33 z "},"`":{"ha":440,"x_min":69,"x_max":371,"o":"m 110 963 q 125 972 115 972 q 138 967 131 972 l 361 807 q 371 793 371 800 q 367 781 371 786 l 331 731 q 315 721 325 721 q 303 726 310 721 l 79 886 q 69 900 69 893 q 74 913 69 906 l 110 963 z "},"a":{"ha":804,"x_min":58,"x_max":704,"o":"m 593 72 q 502 8 553 31 q 378 -14 451 -14 q 253 8 311 -14 q 151 73 194 31 q 83 179 108 115 q 58 326 58 243 q 83 468 58 406 q 152 575 108 531 q 257 643 196 619 q 392 667 318 667 q 517 641 463 667 q 599 583 572 615 l 599 633 q 618 653 599 653 l 685 653 q 704 633 704 653 l 704 19 q 685 0 704 0 l 640 0 q 613 19 619 0 l 593 72 m 599 394 q 589 456 599 431 q 557 504 579 481 q 489 556 528 536 q 397 575 450 575 q 306 558 347 575 q 234 508 264 540 q 187 430 204 476 q 169 325 169 383 q 186 222 169 268 q 232 144 203 176 q 303 95 261 113 q 394 78 344 78 q 497 102 457 78 q 565 163 538 126 q 592 212 585 186 q 599 278 599 238 l 599 394 z "},"b":{"ha":789,"x_min":100,"x_max":731,"o":"m 100 981 q 119 1000 100 1000 l 186 1000 q 206 981 206 1000 l 206 543 q 248 589 224 567 q 303 628 272 611 q 372 656 335 646 q 450 667 408 667 q 656 578 582 667 q 731 329 731 489 q 708 197 731 260 q 644 88 686 135 q 541 14 603 42 q 400 -14 479 -14 q 294 2 342 -14 q 206 44 246 18 l 206 19 q 186 0 206 0 l 119 0 q 100 19 100 0 l 100 981 m 206 204 q 217 160 206 176 q 246 131 229 143 q 401 78 315 78 q 495 96 454 78 q 564 147 536 114 q 606 226 592 181 q 619 328 619 272 q 572 515 619 456 q 438 575 525 575 q 308 533 361 575 q 226 435 254 490 q 212 399 218 419 q 206 336 206 378 l 206 204 z "},"c":{"ha":711,"x_min":58,"x_max":656,"o":"m 649 122 q 656 107 656 115 q 647 90 656 99 q 584 38 615 58 q 522 6 553 17 q 461 -10 492 -6 q 397 -14 431 -14 q 266 8 328 -14 q 158 74 204 31 q 85 181 113 117 q 58 326 58 244 q 85 467 58 404 q 157 574 111 529 q 266 642 203 618 q 404 667 329 667 q 535 641 471 667 q 636 574 599 615 q 643 560 643 565 q 638 546 643 553 l 604 500 q 589 493 599 493 q 572 501 581 493 q 499 553 544 531 q 397 575 453 575 q 306 558 347 575 q 233 508 264 540 q 186 430 203 476 q 169 325 169 383 q 187 227 169 272 q 234 149 204 182 q 306 97 264 115 q 397 78 347 78 q 500 99 461 78 q 578 161 539 121 q 592 168 585 168 q 604 164 600 168 l 649 122 z "},"d":{"ha":781,"x_min":58,"x_max":681,"o":"m 575 64 q 487 9 539 32 q 361 -14 435 -14 q 238 8 294 -14 q 142 73 182 31 q 81 179 103 115 q 58 326 58 243 q 82 468 58 406 q 149 575 106 531 q 251 643 192 619 q 383 667 311 667 q 495 644 442 667 q 575 589 549 621 l 575 981 q 594 1000 575 1000 l 661 1000 q 681 981 681 1000 l 681 19 q 661 0 681 0 l 617 0 q 589 19 596 0 l 575 64 m 575 394 q 565 456 575 431 q 533 504 556 481 q 469 556 504 536 q 381 575 433 575 q 297 558 336 575 q 230 508 258 540 q 185 430 201 476 q 169 325 169 383 q 183 226 169 271 q 224 148 197 181 q 289 97 250 115 q 378 78 328 78 q 473 100 432 78 q 544 163 514 122 q 567 207 560 182 q 575 272 575 232 l 575 394 z "},"e":{"ha":767,"x_min":58,"x_max":706,"o":"m 672 132 q 679 117 679 125 q 671 100 679 108 q 399 -14 557 -14 q 270 8 332 -14 q 162 74 208 31 q 87 181 115 117 q 58 326 58 244 q 84 467 58 404 q 154 574 110 529 q 258 642 199 618 q 386 667 318 667 q 517 640 458 667 q 615 569 575 614 q 678 468 656 525 q 706 350 701 411 l 706 314 q 686 294 706 294 l 169 294 q 240 135 176 192 q 399 78 304 78 q 518 103 469 78 q 603 168 567 128 q 619 176 611 176 q 636 168 628 176 l 672 132 m 594 381 q 576 454 592 419 q 534 516 561 489 q 470 559 507 543 q 389 575 433 575 q 239 522 296 575 q 169 381 182 468 l 594 381 z "},"f":{"ha":476,"x_min":26,"x_max":456,"o":"m 153 561 l 46 561 q 26 581 26 561 l 26 633 q 46 653 26 653 l 153 653 l 153 804 q 169 890 153 851 q 213 956 185 929 q 280 999 242 983 q 364 1014 318 1014 q 403 1011 383 1014 q 442 1001 424 1008 q 456 981 456 997 l 456 928 q 442 910 456 910 q 415 916 431 910 q 364 922 400 922 q 286 885 314 922 q 258 783 258 849 l 258 653 l 422 653 q 442 633 442 653 l 442 581 q 422 561 442 561 l 258 561 l 258 19 q 239 0 258 0 l 172 0 q 153 19 153 0 l 153 561 z "},"g":{"ha":783,"x_min":58,"x_max":690,"o":"m 136 -131 q 149 -124 143 -124 q 160 -128 154 -124 q 269 -211 213 -181 q 399 -242 326 -242 q 536 -184 488 -242 q 585 -22 585 -126 l 585 56 q 496 3 547 21 q 386 -14 444 -14 q 253 10 314 -14 q 150 78 193 33 q 83 185 107 122 q 58 326 58 247 q 83 474 58 410 q 149 580 107 538 q 250 644 192 622 q 378 667 308 667 q 497 646 440 667 q 585 589 553 625 l 585 633 q 604 653 585 653 l 671 653 q 690 633 690 653 l 690 -26 q 668 -153 690 -96 q 607 -250 646 -210 q 515 -312 568 -290 q 399 -333 461 -333 q 297 -322 342 -333 q 214 -294 251 -311 q 146 -253 176 -276 q 90 -207 115 -231 q 85 -196 85 -201 q 92 -182 85 -189 l 136 -131 m 585 381 q 577 446 585 421 q 554 490 569 471 q 479 553 524 531 q 381 575 435 575 q 291 556 331 575 q 224 505 251 538 q 183 427 197 472 q 169 328 169 382 q 186 223 169 269 q 232 144 203 176 q 300 95 261 113 q 383 78 339 78 q 546 139 489 78 q 576 189 568 163 q 585 251 585 215 l 585 381 z "},"h":{"ha":769,"x_min":100,"x_max":661,"o":"m 100 981 q 119 1000 100 1000 l 186 1000 q 206 981 206 1000 l 206 547 q 250 592 224 571 q 309 631 276 614 q 380 657 342 647 q 460 667 418 667 q 609 616 557 667 q 661 463 661 565 l 661 19 q 642 0 661 0 l 575 0 q 556 19 556 0 l 556 461 q 526 547 556 519 q 443 575 496 575 q 379 565 410 575 q 322 538 349 554 q 274 499 294 521 q 239 456 253 478 q 215 395 224 432 q 206 285 206 358 l 206 19 q 186 0 206 0 l 119 0 q 100 19 100 0 l 100 981 z "},"i":{"ha":306,"x_min":75,"x_max":231,"o":"m 100 633 q 119 653 100 653 l 186 653 q 206 633 206 653 l 206 19 q 186 0 206 0 l 119 0 q 100 19 100 0 l 100 633 m 75 853 q 98 908 75 885 q 153 931 121 931 q 208 908 185 931 q 231 853 231 885 q 208 798 231 821 q 153 775 185 775 q 98 798 121 775 q 75 853 75 821 z "},"j":{"ha":306,"x_min":-53,"x_max":231,"o":"m 75 853 q 98 908 75 885 q 153 931 121 931 q 208 908 185 931 q 231 853 231 885 q 208 798 231 821 q 153 775 185 775 q 98 798 121 775 q 75 853 75 821 m -53 -257 q -33 -236 -53 -236 q -16 -239 -26 -236 q 6 -242 -6 -242 q 78 -215 57 -242 q 100 -124 100 -187 l 100 633 q 119 653 100 653 l 186 653 q 206 633 206 653 l 206 -96 q 160 -271 206 -208 q 6 -333 114 -333 q -16 -332 -3 -333 q -35 -329 -29 -331 q -53 -310 -53 -325 l -53 -257 z "},"k":{"ha":650,"x_min":100,"x_max":615,"o":"m 100 981 q 119 1000 100 1000 l 186 1000 q 206 981 206 1000 l 206 399 l 435 633 q 472 653 451 653 l 556 653 q 572 639 572 653 q 567 626 572 632 l 342 399 l 611 26 q 615 14 615 19 q 599 0 615 0 l 521 0 q 488 19 500 0 l 268 324 l 206 260 l 206 19 q 186 0 206 0 l 119 0 q 100 19 100 0 l 100 981 z "},"l":{"ha":365,"x_min":100,"x_max":318,"o":"m 100 981 q 119 1000 100 1000 l 186 1000 q 206 981 206 1000 l 206 147 q 220 97 206 115 q 256 78 235 78 q 286 85 279 78 q 304 92 293 92 q 318 74 318 92 l 318 21 q 304 0 318 6 q 274 -10 288 -7 q 240 -14 260 -14 q 138 20 176 -14 q 100 126 100 54 l 100 981 z "},"m":{"ha":1083,"x_min":100,"x_max":975,"o":"m 100 633 q 119 653 100 653 l 186 653 q 206 633 206 653 l 206 547 q 286 630 233 593 q 415 667 339 667 q 524 636 481 667 q 583 543 568 606 q 672 633 619 599 q 789 667 724 667 q 926 623 876 667 q 975 486 975 579 l 975 19 q 956 0 975 0 l 889 0 q 869 19 869 0 l 869 472 q 847 547 869 518 q 775 575 824 575 q 689 548 722 575 q 624 478 656 521 q 597 428 604 451 q 590 364 590 406 l 590 19 q 571 0 590 0 l 504 0 q 485 19 485 0 l 485 472 q 460 548 485 521 q 390 575 436 575 q 305 548 342 575 q 243 485 268 521 q 215 434 225 458 q 206 381 206 410 l 206 19 q 186 0 206 0 l 119 0 q 100 19 100 0 l 100 633 z "},"n":{"ha":769,"x_min":100,"x_max":661,"o":"m 100 633 q 119 653 100 653 l 186 653 q 206 633 206 653 l 206 547 q 245 591 219 569 q 303 629 271 613 q 374 656 336 646 q 451 667 413 667 q 606 616 551 667 q 661 463 661 565 l 661 19 q 642 0 661 0 l 575 0 q 556 19 556 0 l 556 457 q 524 547 556 518 q 435 575 492 575 q 374 565 403 575 q 319 538 344 554 q 273 499 293 521 q 239 456 253 478 q 215 395 224 432 q 206 285 206 358 l 206 19 q 186 0 206 0 l 119 0 q 100 19 100 0 l 100 633 z "},"o":{"ha":772,"x_min":58,"x_max":714,"o":"m 386 -14 q 260 8 319 -14 q 155 74 200 31 q 84 181 110 117 q 58 326 58 244 q 83 467 58 404 q 151 574 107 529 q 254 642 194 618 q 386 667 314 667 q 518 642 458 667 q 622 574 578 618 q 690 467 665 529 q 714 326 714 404 q 688 181 714 244 q 617 74 663 117 q 513 8 572 31 q 386 -14 453 -14 m 386 78 q 475 97 435 78 q 544 149 515 115 q 588 227 572 182 q 603 325 603 272 q 585 430 603 383 q 539 508 568 476 q 470 558 510 540 q 386 575 431 575 q 302 558 342 575 q 233 508 263 540 q 187 430 204 476 q 169 325 169 383 q 185 227 169 272 q 228 149 200 182 q 297 97 257 115 q 386 78 338 78 z "},"p":{"ha":778,"x_min":100,"x_max":719,"o":"m 100 633 q 119 653 100 653 l 164 653 q 192 633 188 653 l 206 572 q 295 636 236 606 q 426 667 354 667 q 544 645 490 667 q 638 581 599 624 q 698 475 676 539 q 719 326 719 411 q 697 181 719 244 q 631 74 674 117 q 530 8 589 31 q 400 -14 471 -14 q 286 6 339 -14 q 206 49 233 25 l 206 -300 q 186 -319 206 -319 l 119 -319 q 100 -300 100 -319 l 100 633 m 206 235 q 214 176 206 199 q 247 133 222 154 q 315 93 276 108 q 399 78 353 78 q 483 95 444 78 q 549 144 521 113 q 592 223 576 176 q 608 328 608 269 q 595 427 608 382 q 557 505 582 472 q 495 556 532 538 q 411 575 458 575 q 313 550 354 575 q 239 483 271 525 q 206 364 206 442 l 206 235 z "},"q":{"ha":783,"x_min":58,"x_max":796,"o":"m 578 58 q 483 1 533 17 q 375 -14 432 -14 q 249 8 307 -14 q 149 74 192 31 q 83 180 107 117 q 58 324 58 243 q 80 456 58 393 q 143 565 101 518 q 247 639 185 611 q 390 667 308 667 q 490 651 443 667 q 578 608 538 635 l 578 633 q 597 653 578 653 l 664 653 q 683 633 683 653 l 683 -178 q 724 -149 699 -161 q 768 -136 749 -136 q 796 -165 796 -136 l 796 -203 q 767 -231 796 -229 q 706 -253 731 -233 q 665 -303 681 -272 q 651 -316 661 -312 q 628 -319 640 -319 l 606 -319 q 578 -292 578 -319 l 578 58 m 578 449 q 566 493 578 476 q 538 522 554 510 q 390 575 468 575 q 292 557 333 575 q 224 506 251 539 q 183 426 196 472 q 169 325 169 381 q 188 215 169 261 q 235 138 206 168 q 305 92 265 107 q 388 78 344 78 q 544 142 483 78 q 578 231 578 176 l 578 449 z "},"r":{"ha":668,"x_min":100,"x_max":635,"o":"m 100 633 q 119 653 100 653 l 186 653 q 206 633 206 653 l 206 547 q 246 591 222 569 q 299 629 269 613 q 363 656 328 646 q 439 667 397 667 q 583 617 531 667 q 635 471 635 567 q 615 457 635 457 l 549 457 q 529 471 532 457 q 495 551 521 526 q 417 575 469 575 q 356 565 383 575 q 308 537 329 554 q 270 499 286 519 q 242 457 254 478 q 217 390 228 433 q 206 285 206 347 l 206 19 q 186 0 206 0 l 119 0 q 100 19 100 0 l 100 633 z "},"s":{"ha":629,"x_min":50,"x_max":567,"o":"m 113 197 q 125 201 118 201 q 143 192 136 201 q 232 102 186 126 q 343 78 278 78 q 432 105 406 78 q 458 171 458 132 q 414 251 458 225 q 283 299 369 276 q 210 323 246 308 q 147 360 175 338 q 102 413 119 382 q 85 488 85 444 q 103 567 85 533 q 153 622 122 600 q 224 656 185 644 q 307 667 264 667 q 426 645 374 667 q 532 571 479 624 q 538 557 538 565 q 531 542 538 549 l 501 508 q 483 499 492 499 q 463 507 472 499 q 385 559 422 543 q 303 575 349 575 q 222 553 254 575 q 190 492 190 532 q 204 449 190 467 q 240 419 218 432 q 291 397 263 407 q 350 379 319 388 q 433 351 393 367 q 502 312 472 335 q 549 257 532 289 q 567 182 567 225 q 552 109 567 144 q 509 47 538 74 q 438 3 481 19 q 339 -14 396 -14 q 180 20 253 -14 q 54 135 107 54 q 50 150 50 140 q 63 169 50 163 l 113 197 z "},"t":{"ha":497,"x_min":28,"x_max":458,"o":"m 168 561 l 47 561 q 28 581 28 561 l 28 633 q 47 653 28 653 l 168 653 l 168 858 q 188 878 168 878 l 254 878 q 274 858 274 878 l 274 653 l 439 653 q 458 633 458 653 l 458 581 q 439 561 458 561 l 274 561 l 274 183 q 294 104 274 131 q 358 78 314 78 q 389 81 376 78 q 408 85 401 85 q 422 67 422 85 l 422 7 q 408 -7 422 -6 q 387 -10 396 -10 q 368 -12 378 -11 q 347 -14 358 -14 q 317 -14 335 -14 q 262 -3 289 -14 q 214 28 235 7 q 181 80 193 49 q 168 153 168 111 l 168 561 z "},"u":{"ha":771,"x_min":108,"x_max":671,"o":"m 108 633 q 128 653 108 653 l 194 653 q 214 633 214 653 l 214 235 q 226 160 214 190 q 257 111 238 129 q 303 85 276 93 q 358 78 329 78 q 405 83 381 78 q 453 97 429 88 q 497 119 476 107 q 533 147 518 132 q 559 183 553 167 q 565 222 565 199 l 565 633 q 585 653 565 653 l 651 653 q 671 633 671 653 l 671 19 q 651 0 671 0 l 585 0 q 565 19 565 0 l 565 64 q 469 9 525 32 q 339 -14 413 -14 q 166 46 224 -14 q 108 218 108 106 l 108 633 z "},"v":{"ha":658,"x_min":25,"x_max":633,"o":"m 25 633 q 44 653 25 653 l 114 653 q 139 633 132 653 l 329 142 l 519 633 q 544 653 526 653 l 614 653 q 633 633 633 653 l 388 19 q 361 0 381 0 l 297 0 q 271 19 278 0 l 25 633 z "},"w":{"ha":964,"x_min":26,"x_max":938,"o":"m 26 633 q 46 653 26 653 l 114 653 q 129 648 125 653 q 136 633 133 643 l 285 196 l 435 633 q 457 653 442 653 l 507 653 q 529 633 522 653 l 679 196 l 828 633 q 835 648 831 643 q 850 653 839 653 l 918 653 q 938 633 938 653 l 722 17 q 703 0 715 0 l 663 0 q 640 17 647 0 l 482 485 l 324 17 q 301 0 317 0 l 261 0 q 242 17 247 0 l 26 633 z "},"x":{"ha":621,"x_min":32,"x_max":589,"o":"m 249 335 l 50 628 q 46 640 46 633 q 60 653 46 653 l 140 653 q 153 649 149 653 q 161 642 158 646 l 310 424 l 458 642 q 466 649 461 646 q 479 653 471 653 l 560 653 q 574 640 574 653 q 569 628 574 633 l 371 335 l 585 25 q 589 13 589 18 q 575 0 589 0 l 496 0 q 478 4 485 0 q 465 19 472 8 l 310 246 l 156 19 q 142 4 149 8 q 125 0 136 0 l 46 0 q 32 13 32 0 q 36 25 32 18 l 249 335 z "},"y":{"ha":679,"x_min":28,"x_max":649,"o":"m 288 15 q 286 19 286 17 l 28 633 q 47 653 28 653 l 122 653 q 147 633 140 653 l 340 149 l 535 633 q 560 653 542 653 l 629 653 q 649 633 649 653 l 274 -300 q 247 -319 267 -319 l 174 -319 q 160 -308 160 -319 q 160 -301 160 -304 q 163 -296 161 -299 l 288 15 z "},"z":{"ha":600,"x_min":42,"x_max":556,"o":"m 42 81 q 44 97 42 92 q 53 113 46 103 l 414 561 l 78 561 q 58 581 58 561 l 58 633 q 78 653 58 653 l 511 653 q 531 633 531 653 l 531 582 q 527 560 531 568 q 517 540 524 551 l 156 92 l 536 92 q 556 72 556 92 l 556 19 q 536 0 556 0 l 61 0 q 42 19 42 0 l 42 81 z "},"{":{"ha":515,"x_min":22,"x_max":443,"o":"m 158 256 q 144 319 158 299 q 82 339 131 339 l 42 339 q 22 358 22 339 l 22 419 q 42 439 22 439 l 82 439 q 144 459 131 439 q 158 522 158 479 l 158 794 q 200 930 158 888 q 336 972 242 972 l 424 972 q 443 953 443 972 l 443 892 q 424 872 443 872 l 349 872 q 290 854 308 872 q 272 796 272 836 l 272 521 q 251 436 272 471 q 179 389 229 401 q 251 342 229 376 q 272 257 272 307 l 272 -18 q 290 -76 272 -58 q 349 -94 308 -94 l 424 -94 q 443 -114 443 -94 l 443 -175 q 424 -194 443 -194 l 336 -194 q 200 -152 242 -194 q 158 -17 158 -110 l 158 256 z "},"|":{"ha":353,"x_min":119,"x_max":233,"o":"m 119 953 q 139 972 119 972 l 214 972 q 233 953 233 972 l 233 -300 q 214 -319 233 -319 l 139 -319 q 119 -300 119 -319 l 119 953 z "},"}":{"ha":515,"x_min":72,"x_max":493,"o":"m 72 -114 q 92 -94 72 -94 l 167 -94 q 225 -76 207 -94 q 243 -18 243 -58 l 243 257 q 265 342 243 307 q 336 389 286 376 q 265 436 286 401 q 243 521 243 471 l 243 796 q 225 854 243 836 q 167 872 207 872 l 92 872 q 72 892 72 872 l 72 953 q 92 972 72 972 l 179 972 q 315 930 274 972 q 357 794 357 888 l 357 522 q 371 459 357 479 q 433 439 385 439 l 474 439 q 493 419 493 439 l 493 358 q 474 339 493 339 l 433 339 q 371 319 385 339 q 357 256 357 299 l 357 -17 q 315 -152 357 -110 q 179 -194 274 -194 l 92 -194 q 72 -175 72 -194 l 72 -114 z "},"~":{"ha":679,"x_min":46,"x_max":633,"o":"m 58 432 q 46 447 46 439 q 49 458 46 450 q 128 566 81 533 q 232 599 176 599 q 306 584 278 599 q 356 553 335 569 q 397 522 378 536 q 444 507 417 507 q 494 526 474 507 q 535 589 515 546 q 549 601 540 601 q 560 599 554 601 l 621 567 q 633 551 633 560 q 631 540 633 549 q 551 433 599 465 q 447 400 503 400 q 373 415 401 400 q 323 446 344 429 q 282 477 301 463 q 235 492 263 492 q 185 472 206 492 q 144 410 164 453 q 131 397 139 397 q 119 400 125 397 l 58 432 z "}," ":{"ha":336,"x_min":0,"x_max":0,"o":""},"¡":{"ha":358,"x_min":94,"x_max":264,"o":"m 94 583 q 119 522 94 547 q 178 497 143 497 q 239 522 214 497 q 264 583 264 547 q 239 642 264 618 q 178 667 214 667 q 119 642 143 667 q 94 583 94 618 m 119 -300 q 139 -319 119 -319 l 214 -319 q 233 -300 233 -319 l 233 399 q 214 418 233 418 l 139 418 q 119 399 119 418 l 119 -300 z "},"¢":{"ha":711,"x_min":58,"x_max":656,"o":"m 336 151 q 226 186 276 160 q 138 255 175 213 q 79 356 100 297 q 58 488 58 414 q 78 613 58 556 q 135 713 99 669 q 224 783 172 756 q 336 822 275 811 l 336 953 q 356 972 336 972 l 422 972 q 442 953 442 972 l 442 825 q 552 794 500 818 q 636 735 604 771 q 643 721 643 726 q 638 707 643 714 l 604 661 q 589 654 599 654 q 572 663 581 654 q 515 705 549 686 q 442 732 482 724 l 442 242 q 515 269 485 249 q 578 322 546 290 q 592 329 585 329 q 604 325 600 329 l 649 283 q 656 268 656 276 q 647 251 656 260 q 544 176 593 197 q 442 149 494 154 l 442 19 q 422 0 442 0 l 356 0 q 336 19 336 0 l 336 151 m 336 729 q 215 647 261 710 q 169 486 169 585 q 181 403 169 442 q 215 333 193 364 q 268 279 238 301 q 336 247 299 257 l 336 729 z "},"£":{"ha":757,"x_min":42,"x_max":710,"o":"m 83 93 q 108 144 83 119 q 142 203 132 168 q 153 286 153 238 l 153 472 l 61 472 q 42 492 42 472 l 42 550 q 61 569 42 569 l 153 569 l 153 689 q 175 820 153 764 q 235 913 197 876 q 324 968 274 950 q 429 986 374 986 q 526 972 483 986 q 603 933 569 957 q 662 878 638 910 q 703 813 686 846 q 706 803 706 807 q 699 792 706 794 l 636 754 q 625 751 631 751 q 611 760 617 751 q 538 854 578 819 q 429 889 497 889 q 310 838 354 889 q 267 696 267 788 l 267 569 l 493 569 q 513 550 513 569 l 513 492 q 493 472 513 472 l 267 472 l 267 239 q 253 155 267 188 q 214 100 240 122 l 690 100 q 710 81 710 100 l 710 19 q 690 0 710 0 l 103 0 q 83 19 83 0 l 83 93 z "},"¤":{"ha":872,"x_min":61,"x_max":811,"o":"m 69 165 q 61 179 61 174 q 69 193 61 185 l 156 279 q 108 371 125 319 q 92 486 92 422 q 108 601 92 549 q 154 693 124 653 l 69 779 q 61 793 61 788 q 69 807 61 799 l 115 853 q 129 861 124 861 q 143 853 135 861 l 229 765 q 324 810 272 794 q 436 826 376 826 q 548 810 496 826 q 643 765 600 794 l 729 853 q 743 861 738 861 q 757 853 749 861 l 803 807 q 811 793 811 799 q 803 779 811 788 l 718 693 q 765 601 749 653 q 781 486 781 549 q 763 371 781 422 q 717 279 746 319 l 803 193 q 811 179 811 185 q 803 165 811 174 l 757 119 q 743 111 749 111 q 729 119 738 111 l 642 207 q 544 161 597 176 q 436 146 492 146 q 328 161 381 146 q 231 207 275 176 l 143 119 q 129 111 135 111 q 115 119 124 111 l 69 165 m 436 238 q 606 302 542 238 q 669 486 669 367 q 651 592 669 546 q 601 669 632 638 q 526 718 569 701 q 436 735 483 735 q 345 718 388 735 q 272 669 303 701 q 222 592 240 638 q 203 486 203 546 q 267 302 203 367 q 436 238 331 238 z "},"¥":{"ha":719,"x_min":19,"x_max":700,"o":"m 76 300 q 96 319 76 319 l 303 319 l 303 419 l 96 419 q 76 439 76 419 l 76 497 q 96 517 76 517 l 250 517 l 22 944 q 19 956 19 950 q 24 967 19 963 q 38 972 28 972 l 106 972 q 128 966 121 972 q 139 953 136 960 l 360 525 l 581 953 q 591 966 583 960 q 614 972 599 972 l 682 972 q 696 967 692 972 q 700 956 700 963 q 697 944 700 950 l 469 517 l 624 517 q 643 497 643 517 l 643 439 q 624 419 643 419 l 417 419 l 417 319 l 624 319 q 643 300 643 319 l 643 242 q 624 222 643 222 l 417 222 l 417 19 q 397 0 417 0 l 322 0 q 303 19 303 0 l 303 222 l 96 222 q 76 242 76 222 l 76 300 z "},"¦":{"ha":353,"x_min":119,"x_max":233,"o":"m 119 953 q 139 972 119 972 l 214 972 q 233 953 233 972 l 233 422 q 214 403 233 403 l 139 403 q 119 422 119 403 l 119 953 m 119 231 q 139 250 119 250 l 214 250 q 233 231 233 250 l 233 -300 q 214 -319 233 -319 l 139 -319 q 119 -300 119 -319 l 119 231 z "},"§":{"ha":689,"x_min":53,"x_max":631,"o":"m 121 -124 q 135 -117 131 -117 q 149 -125 142 -117 q 340 -233 229 -233 q 457 -197 411 -233 q 503 -96 503 -160 q 489 -35 503 -62 q 448 16 475 -8 q 380 63 421 40 q 285 110 339 86 q 189 158 232 133 q 115 213 146 182 q 69 281 85 243 q 53 368 53 318 q 83 474 53 426 q 157 553 113 521 q 92 633 118 588 q 67 740 67 679 q 88 842 67 797 q 147 919 110 888 q 234 969 183 951 q 343 986 285 986 q 443 974 400 986 q 519 940 486 961 q 578 894 553 919 q 622 844 603 869 q 626 833 626 838 q 619 821 626 826 l 563 776 q 549 769 553 769 q 535 778 540 769 q 343 886 454 886 q 226 849 272 886 q 181 749 181 813 q 235 636 181 682 q 399 543 289 590 q 494 494 451 519 q 567 440 538 469 q 614 372 597 410 q 631 285 631 335 q 601 179 631 226 q 526 100 571 132 q 591 19 565 65 q 617 -87 617 -26 q 595 -190 617 -144 q 537 -267 574 -235 q 449 -316 500 -299 q 340 -333 399 -333 q 240 -321 283 -333 q 163 -287 196 -308 q 105 -242 129 -267 q 61 -192 81 -217 q 57 -181 57 -186 q 64 -168 57 -174 l 121 -124 m 438 160 q 495 209 474 181 q 517 283 517 238 q 468 378 517 336 q 315 461 419 419 q 281 476 297 468 q 246 493 264 483 q 188 444 210 472 q 167 369 167 415 q 215 275 167 317 q 368 192 264 233 q 403 177 386 185 q 438 160 419 169 z "},"¨":{"ha":514,"x_min":69,"x_max":444,"o":"m 69 853 q 90 902 69 882 q 139 922 110 922 q 188 902 168 922 q 208 853 208 882 q 188 803 208 824 q 139 783 168 783 q 90 803 110 783 q 69 853 69 824 m 306 853 q 326 902 306 882 q 375 922 346 922 q 424 902 404 922 q 444 853 444 882 q 424 803 444 824 q 375 783 404 783 q 326 803 346 783 q 306 853 306 824 z "},"©":{"ha":1119,"x_min":67,"x_max":1053,"o":"m 560 -14 q 381 18 469 -14 q 223 113 293 50 q 110 269 153 175 q 67 486 67 363 q 108 700 67 607 q 219 856 150 793 q 377 953 289 919 q 560 986 465 986 q 742 953 653 986 q 900 856 831 919 q 1011 700 969 793 q 1053 486 1053 607 q 1010 269 1053 363 q 897 113 967 175 q 738 18 826 50 q 560 -14 650 -14 m 560 86 q 699 109 631 86 q 820 181 767 132 q 906 306 874 231 q 939 486 939 382 q 906 666 939 590 q 819 791 872 742 q 697 863 765 840 q 560 886 629 886 q 422 863 490 886 q 301 791 354 840 q 214 666 247 742 q 181 486 181 590 q 213 306 181 382 q 299 181 246 231 q 421 109 353 132 q 560 86 489 86 m 788 313 q 793 300 793 307 q 786 285 793 292 q 683 215 736 235 q 572 196 629 196 q 460 215 513 196 q 367 272 407 235 q 305 363 328 308 q 282 488 282 417 q 303 608 282 554 q 364 700 325 663 q 456 758 403 738 q 574 779 510 779 q 685 758 629 779 q 774 703 742 738 q 782 686 782 694 q 775 669 782 678 l 747 633 q 732 624 740 624 q 717 631 724 624 q 652 676 689 657 q 572 696 615 696 q 434 641 486 696 q 382 486 382 586 q 396 403 382 442 q 435 338 410 365 q 494 294 460 310 q 572 279 529 279 q 658 295 626 279 q 725 347 690 311 q 740 354 732 354 q 754 349 749 354 l 788 313 z "},"ª":{"ha":579,"x_min":53,"x_max":504,"o":"m 422 569 q 360 525 394 540 q 272 510 326 510 q 188 525 228 510 q 119 570 149 540 q 71 644 89 600 q 53 744 53 688 q 71 843 53 800 q 119 917 89 886 q 192 963 150 947 q 281 979 233 979 q 369 961 335 979 q 422 922 404 943 l 422 950 q 442 969 422 969 l 485 969 q 504 950 504 969 l 504 539 q 485 519 504 519 l 457 519 q 435 536 442 519 l 422 569 m 422 789 q 415 829 422 813 q 393 863 408 846 q 349 894 375 882 q 292 907 322 907 q 187 864 231 907 q 143 743 143 821 q 183 626 143 668 q 290 583 224 583 q 357 599 331 583 q 399 636 383 614 q 417 670 413 653 q 422 713 422 688 l 422 789 z "},"«":{"ha":810,"x_min":72,"x_max":740,"o":"m 72 492 q 76 509 72 503 q 86 521 79 515 l 422 782 q 435 786 428 786 q 449 771 449 786 l 449 686 q 445 669 449 675 q 436 658 442 663 l 179 458 l 436 258 q 445 248 442 254 q 449 231 449 242 l 449 146 q 435 131 449 131 q 422 135 428 131 l 86 396 q 76 408 79 401 q 72 425 72 414 l 72 492 m 364 492 q 367 509 364 503 q 378 521 371 515 l 714 782 q 726 786 719 786 q 740 771 740 786 l 740 686 q 737 669 740 675 q 728 658 733 663 l 471 458 l 728 258 q 737 248 733 254 q 740 231 740 242 l 740 146 q 726 131 740 131 q 714 135 719 131 l 378 396 q 367 408 371 401 q 364 425 364 414 l 364 492 z "},"¬":{"ha":646,"x_min":53,"x_max":588,"o":"m 53 606 q 72 625 53 625 l 568 625 q 588 606 588 625 l 588 325 q 568 306 588 306 l 510 306 q 490 325 490 306 l 490 528 l 72 528 q 53 547 53 528 l 53 606 z "},"®":{"ha":1119,"x_min":67,"x_max":1053,"o":"m 560 -14 q 381 18 469 -14 q 223 113 293 50 q 110 269 153 175 q 67 486 67 363 q 108 700 67 607 q 219 856 150 793 q 377 953 289 919 q 560 986 465 986 q 742 953 653 986 q 900 856 831 919 q 1011 700 969 793 q 1053 486 1053 607 q 1010 269 1053 363 q 897 113 967 175 q 738 18 826 50 q 560 -14 650 -14 m 560 86 q 699 109 631 86 q 820 181 767 132 q 906 306 874 231 q 939 486 939 382 q 906 666 939 590 q 819 791 872 742 q 697 863 765 840 q 560 886 629 886 q 422 863 490 886 q 301 791 354 840 q 214 666 247 742 q 181 486 181 590 q 213 306 181 382 q 299 181 246 231 q 421 109 353 132 q 560 86 489 86 m 372 753 q 392 772 372 772 l 589 772 q 723 732 675 772 q 771 624 771 692 q 758 563 771 590 q 722 515 744 535 q 670 485 700 496 q 608 475 640 475 l 599 475 l 781 217 q 783 210 783 213 q 772 200 783 200 l 699 200 q 676 213 685 200 l 493 475 l 467 475 l 467 219 q 447 200 467 200 l 392 200 q 372 219 372 200 l 372 753 m 586 553 q 657 570 632 553 q 682 624 682 588 q 657 677 682 660 q 586 694 632 694 l 467 694 l 467 553 l 586 553 z "},"¯":{"ha":439,"x_min":69,"x_max":369,"o":"m 69 851 q 89 871 69 871 l 350 871 q 369 851 369 871 l 369 799 q 350 779 369 779 l 89 779 q 69 799 69 779 l 69 851 z "},"°":{"ha":590,"x_min":61,"x_max":529,"o":"m 296 510 q 207 525 250 510 q 132 570 164 540 q 81 644 100 600 q 61 744 61 688 q 79 842 61 799 q 129 915 97 885 q 203 963 161 946 q 296 979 246 979 q 388 963 346 979 q 462 915 431 946 q 511 842 493 885 q 529 744 529 799 q 510 644 529 688 q 459 570 492 600 q 384 525 426 540 q 296 510 342 510 m 296 596 q 395 637 356 596 q 435 743 435 678 q 423 807 435 779 q 392 854 411 835 q 348 883 374 874 q 296 893 322 893 q 198 854 240 893 q 156 743 156 815 q 195 637 156 678 q 296 596 235 596 z "},"±":{"ha":708,"x_min":53,"x_max":650,"o":"m 303 431 l 72 431 q 53 450 53 431 l 53 508 q 72 528 53 528 l 303 528 l 303 758 q 322 778 303 778 l 381 778 q 400 758 400 778 l 400 528 l 631 528 q 650 508 650 528 l 650 450 q 631 431 650 431 l 400 431 l 400 200 q 381 181 400 181 l 322 181 q 303 200 303 181 l 303 431 m 53 78 q 72 97 53 97 l 631 97 q 650 78 650 97 l 650 19 q 631 0 650 0 l 72 0 q 53 19 53 0 l 53 78 z "},"²":{"ha":438,"x_min":61,"x_max":374,"o":"m 71 574 q 72 587 71 583 q 79 596 74 590 l 238 742 q 275 788 265 767 q 285 839 285 810 q 265 888 285 869 q 214 907 246 907 q 163 887 183 907 q 129 833 143 867 q 124 828 128 828 q 115 831 121 828 l 65 856 q 61 861 61 857 l 61 865 q 63 867 61 867 q 116 944 78 908 q 214 979 154 979 q 324 943 285 979 q 364 849 364 907 q 342 763 364 800 q 275 682 321 725 l 175 589 l 354 589 q 374 569 374 589 l 374 536 q 354 517 374 517 l 90 517 q 71 536 71 517 l 71 574 z "},"³":{"ha":431,"x_min":57,"x_max":368,"o":"m 114 654 q 121 657 119 657 q 128 653 125 657 q 163 601 143 621 q 221 582 183 582 q 270 603 253 582 q 288 660 288 624 q 264 719 288 696 q 196 742 240 742 l 175 742 q 156 761 156 742 l 156 783 q 168 815 156 803 l 250 906 l 90 906 q 76 919 76 906 l 76 958 q 90 972 76 972 l 338 972 q 351 960 351 972 l 351 925 q 347 913 351 918 q 338 901 343 908 l 251 807 q 337 757 306 793 q 368 658 368 721 q 325 551 368 592 q 217 510 282 510 q 118 539 157 510 q 60 608 79 568 q 57 617 57 614 q 61 622 57 619 l 114 654 z "},"´":{"ha":440,"x_min":69,"x_max":371,"o":"m 74 781 q 69 793 69 786 q 79 807 69 800 l 303 967 q 315 972 310 972 q 331 963 325 972 l 367 913 q 371 900 371 906 q 361 886 371 893 l 138 726 q 125 721 131 721 q 110 731 115 721 l 74 781 z "},"µ":{"ha":763,"x_min":100,"x_max":663,"o":"m 100 633 q 119 653 100 653 l 186 653 q 206 633 206 653 l 206 235 q 217 160 206 190 q 249 111 229 129 q 294 85 268 93 q 350 78 321 78 q 397 83 372 78 q 444 97 421 88 q 489 119 468 107 q 525 147 510 132 q 551 183 544 167 q 557 222 557 199 l 557 633 q 576 653 557 653 l 643 653 q 663 633 663 653 l 663 28 q 635 0 663 0 l 585 0 q 557 28 557 0 l 557 64 q 460 9 517 32 q 331 -14 404 -14 q 262 -7 293 -14 q 206 11 231 0 l 206 -300 q 186 -319 206 -319 l 119 -319 q 100 -300 100 -319 l 100 633 z "},"¶":{"ha":999,"x_min":68,"x_max":879,"o":"m 488 368 l 375 368 q 253 389 310 368 q 156 449 197 410 q 92 544 115 489 q 68 668 68 599 q 93 792 68 736 q 163 889 118 849 q 267 951 207 929 q 399 972 328 972 l 860 972 q 879 953 879 972 l 879 -300 q 860 -319 879 -319 l 785 -319 q 765 -300 765 -319 l 765 872 l 601 872 l 601 -300 q 582 -319 601 -319 l 507 -319 q 488 -300 488 -319 l 488 368 m 488 468 l 488 872 l 393 872 q 301 856 340 872 q 235 813 261 840 q 195 747 208 785 q 182 668 182 710 q 195 590 182 626 q 235 526 208 553 q 301 483 261 499 q 393 468 340 468 l 488 468 z "},"·":{"ha":303,"x_min":72,"x_max":231,"o":"m 72 486 q 95 543 72 519 q 150 567 118 567 q 207 543 183 567 q 231 486 231 519 q 207 431 231 454 q 150 408 183 408 q 95 431 118 408 q 72 486 72 454 z "},"¸":{"ha":408,"x_min":42,"x_max":367,"o":"m 53 -182 q 72 -167 54 -167 q 111 -179 85 -167 q 174 -192 138 -192 q 235 -170 215 -192 q 256 -117 256 -149 q 138 -6 256 -40 q 129 3 129 -4 q 140 14 129 10 l 181 31 q 203 35 193 35 q 226 32 213 35 q 278 11 253 25 q 323 -22 303 -3 q 355 -67 343 -42 q 367 -119 367 -92 q 315 -243 367 -203 q 186 -283 264 -283 q 106 -276 140 -283 q 54 -262 71 -268 q 42 -247 42 -258 q 42 -244 42 -246 q 43 -236 42 -243 l 53 -182 z "},"¹":{"ha":381,"x_min":54,"x_max":328,"o":"m 76 569 q 94 589 76 589 l 163 589 l 163 878 l 108 826 q 99 822 104 822 q 85 829 92 822 l 61 853 q 54 867 54 860 q 63 882 54 874 l 142 951 q 194 972 164 972 l 219 972 q 242 950 242 972 l 242 589 l 308 589 q 328 569 328 589 l 328 536 q 308 517 328 517 l 94 517 q 76 536 76 517 l 76 569 z "},"º":{"ha":565,"x_min":50,"x_max":513,"o":"m 282 510 q 194 525 236 510 q 119 570 151 540 q 69 644 88 600 q 50 744 50 688 q 67 842 50 799 q 116 915 85 885 q 190 963 147 946 q 282 979 232 979 q 374 963 332 979 q 447 915 415 946 q 495 842 478 885 q 513 744 513 799 q 494 644 513 688 q 444 570 475 600 q 370 525 413 540 q 282 510 328 510 m 282 583 q 383 628 344 583 q 422 743 422 674 q 381 864 422 821 q 282 907 340 907 q 181 864 222 907 q 140 743 140 821 q 179 628 140 674 q 282 583 218 583 z "},"»":{"ha":810,"x_min":69,"x_max":738,"o":"m 361 231 q 365 248 361 242 q 374 258 368 254 l 631 458 l 374 658 q 365 669 368 663 q 361 686 361 675 l 361 771 q 375 786 361 786 q 388 782 381 786 l 724 521 q 734 509 731 515 q 738 492 738 503 l 738 425 q 734 408 738 414 q 724 396 731 401 l 388 135 q 375 131 381 131 q 361 146 361 131 l 361 231 m 69 231 q 73 248 69 242 q 82 258 76 254 l 339 458 l 82 658 q 73 669 76 663 q 69 686 69 675 l 69 771 q 83 786 69 786 q 96 782 89 786 l 432 521 q 442 509 439 515 q 446 492 446 503 l 446 425 q 442 408 446 414 q 432 396 439 401 l 96 135 q 83 131 89 131 q 69 146 69 131 l 69 231 z "},"¼":{"ha":708,"x_min":53,"x_max":650,"o":"m 53 389 q 72 408 53 408 l 631 408 q 650 389 650 408 l 650 350 q 631 331 650 331 l 72 331 q 53 350 53 331 l 53 389 m 236 569 q 254 589 236 589 l 322 589 l 322 878 l 268 826 q 258 822 264 822 q 244 829 251 822 l 221 853 q 214 867 214 860 q 222 882 214 874 l 301 951 q 354 972 324 972 l 379 972 q 401 950 401 972 l 401 589 l 468 589 q 488 569 488 589 l 488 536 q 468 517 488 517 l 254 517 q 236 536 236 517 l 236 569 m 178 -94 q 180 -80 178 -85 q 185 -68 182 -75 l 333 201 q 354 214 340 214 l 414 214 q 421 199 428 214 l 265 -81 l 383 -81 l 383 44 q 403 64 383 64 l 443 64 q 463 44 463 64 l 463 -81 l 494 -81 q 514 -100 514 -81 l 514 -133 q 494 -153 514 -153 l 463 -153 l 463 -222 q 443 -242 463 -242 l 403 -242 q 383 -222 383 -242 l 383 -153 l 197 -153 q 178 -133 178 -153 l 178 -94 z "},"½":{"ha":708,"x_min":53,"x_max":650,"o":"m 53 389 q 72 408 53 408 l 631 408 q 650 389 650 408 l 650 350 q 631 331 650 331 l 72 331 q 53 350 53 331 l 53 389 m 236 569 q 254 589 236 589 l 322 589 l 322 878 l 268 826 q 258 822 264 822 q 244 829 251 822 l 221 853 q 214 867 214 860 q 222 882 214 874 l 301 951 q 354 972 324 972 l 379 972 q 401 950 401 972 l 401 589 l 468 589 q 488 569 488 589 l 488 536 q 468 517 488 517 l 254 517 q 236 536 236 517 l 236 569 m 214 -185 q 215 -172 214 -175 q 222 -162 217 -168 l 381 -17 q 418 30 408 8 q 428 81 428 51 q 408 130 428 111 q 357 149 389 149 q 306 128 326 149 q 272 75 286 108 q 267 69 271 69 q 258 72 264 69 l 208 97 q 204 103 204 99 l 204 107 q 206 108 204 108 q 259 185 221 150 q 357 221 297 221 q 467 185 428 221 q 507 90 507 149 q 485 4 507 42 q 418 -76 464 -33 l 318 -169 l 497 -169 q 517 -189 517 -169 l 517 -222 q 497 -242 517 -242 l 233 -242 q 214 -222 214 -242 l 214 -185 z "},"¾":{"ha":708,"x_min":53,"x_max":650,"o":"m 53 389 q 72 408 53 408 l 631 408 q 650 389 650 408 l 650 350 q 631 331 650 331 l 72 331 q 53 350 53 331 l 53 389 m 256 654 q 263 657 261 657 q 269 653 267 657 q 305 601 285 621 q 363 582 325 582 q 412 603 394 582 q 429 660 429 624 q 406 719 429 696 q 338 742 382 742 l 317 742 q 297 761 297 742 l 297 783 q 310 815 297 803 l 392 906 l 232 906 q 218 919 218 906 l 218 958 q 232 972 218 972 l 479 972 q 493 960 493 972 l 493 925 q 489 913 493 918 q 479 901 485 908 l 393 807 q 478 757 447 793 q 510 658 510 721 q 467 551 510 592 q 358 510 424 510 q 260 539 299 510 q 201 608 221 568 q 199 617 199 614 q 203 622 199 619 l 256 654 m 178 -94 q 180 -80 178 -85 q 185 -68 182 -75 l 333 201 q 354 214 340 214 l 414 214 q 421 199 428 214 l 265 -81 l 383 -81 l 383 44 q 403 64 383 64 l 443 64 q 463 44 463 64 l 463 -81 l 494 -81 q 514 -100 514 -81 l 514 -133 q 494 -153 514 -153 l 463 -153 l 463 -222 q 443 -242 463 -242 l 403 -242 q 383 -222 383 -242 l 383 -153 l 197 -153 q 178 -133 178 -153 l 178 -94 z "},"¿":{"ha":731,"x_min":63,"x_max":674,"o":"m 421 335 q 406 253 421 289 q 369 189 392 218 q 320 137 347 160 q 268 93 293 114 q 176 -82 176 19 q 190 -145 176 -117 q 229 -193 204 -174 q 288 -223 254 -212 q 360 -233 321 -233 q 431 -219 400 -233 q 488 -182 463 -206 q 534 -126 514 -158 q 571 -58 554 -94 q 585 -50 575 -50 q 599 -53 592 -50 l 663 -86 q 672 -100 672 -92 q 669 -111 672 -106 q 623 -192 651 -153 q 556 -263 594 -232 q 469 -314 518 -294 q 360 -333 421 -333 q 142 -267 221 -333 q 63 -86 63 -200 q 73 -8 63 -43 q 100 54 83 26 q 139 106 117 82 q 185 149 161 129 q 230 188 208 168 q 269 229 251 207 q 297 278 286 251 q 307 340 307 306 l 307 399 q 326 418 307 418 l 401 418 q 421 399 421 418 l 421 335 m 446 583 q 422 522 446 547 q 363 497 397 497 q 301 522 326 497 q 276 583 276 547 q 301 642 276 618 q 363 667 326 667 q 422 642 397 667 q 446 583 446 618 z "},"À":{"ha":831,"x_min":11,"x_max":819,"o":"m 360 950 q 369 966 363 960 q 392 972 376 972 l 439 972 q 461 966 454 972 q 471 950 468 960 l 819 19 q 800 0 819 0 l 728 0 q 703 19 710 0 l 604 288 l 226 288 l 128 19 q 103 0 121 0 l 31 0 q 11 19 11 0 l 360 950 m 567 388 l 415 803 l 264 388 l 567 388 m 301 1310 q 317 1319 307 1319 q 329 1314 322 1319 l 553 1154 q 563 1140 563 1147 q 558 1128 563 1133 l 522 1078 q 507 1068 517 1068 q 494 1074 501 1068 l 271 1233 q 261 1247 261 1240 q 265 1260 261 1253 l 301 1310 z "},"Á":{"ha":831,"x_min":11,"x_max":819,"o":"m 360 950 q 369 966 363 960 q 392 972 376 972 l 439 972 q 461 966 454 972 q 471 950 468 960 l 819 19 q 800 0 819 0 l 728 0 q 703 19 710 0 l 604 288 l 226 288 l 128 19 q 103 0 121 0 l 31 0 q 11 19 11 0 l 360 950 m 567 388 l 415 803 l 264 388 l 567 388 m 261 1128 q 257 1140 257 1133 q 267 1154 257 1147 l 490 1314 q 503 1319 497 1319 q 518 1310 513 1319 l 554 1260 q 558 1247 558 1253 q 549 1233 558 1240 l 325 1074 q 313 1068 318 1068 q 297 1078 303 1068 l 261 1128 z "},"Â":{"ha":831,"x_min":11,"x_max":819,"o":"m 360 950 q 369 966 363 960 q 392 972 376 972 l 439 972 q 461 966 454 972 q 471 950 468 960 l 819 19 q 800 0 819 0 l 728 0 q 703 19 710 0 l 604 288 l 226 288 l 128 19 q 103 0 121 0 l 31 0 q 11 19 11 0 l 360 950 m 567 388 l 415 803 l 264 388 l 567 388 m 199 1138 q 194 1150 194 1143 q 204 1164 194 1157 l 403 1314 q 415 1319 411 1319 q 428 1314 419 1319 l 626 1164 q 636 1150 636 1157 q 632 1138 636 1143 l 596 1088 q 581 1078 590 1078 q 568 1083 575 1078 l 415 1197 l 263 1083 q 250 1078 256 1078 q 235 1088 240 1078 l 199 1138 z "},"Ã":{"ha":831,"x_min":11,"x_max":819,"o":"m 360 950 q 369 966 363 960 q 392 972 376 972 l 439 972 q 461 966 454 972 q 471 950 468 960 l 819 19 q 800 0 819 0 l 728 0 q 703 19 710 0 l 604 288 l 226 288 l 128 19 q 103 0 121 0 l 31 0 q 11 19 11 0 l 360 950 m 567 388 l 415 803 l 264 388 l 567 388 m 189 1097 q 182 1108 182 1101 q 185 1121 182 1113 q 338 1235 238 1235 q 399 1224 375 1235 q 442 1199 424 1213 q 476 1175 460 1186 q 518 1164 493 1164 q 556 1178 542 1164 q 586 1226 571 1193 q 599 1236 590 1236 q 610 1233 604 1236 l 667 1204 q 674 1193 674 1200 q 671 1181 674 1189 q 518 1067 618 1067 q 456 1078 481 1067 q 414 1102 432 1089 q 379 1126 396 1115 q 338 1138 363 1138 q 299 1123 314 1138 q 269 1075 285 1108 q 257 1065 264 1065 q 246 1068 251 1065 l 189 1097 z "},"Ä":{"ha":831,"x_min":11,"x_max":819,"o":"m 360 950 q 369 966 363 960 q 392 972 376 972 l 439 972 q 461 966 454 972 q 471 950 468 960 l 819 19 q 800 0 819 0 l 728 0 q 703 19 710 0 l 604 288 l 226 288 l 128 19 q 103 0 121 0 l 31 0 q 11 19 11 0 l 360 950 m 567 388 l 415 803 l 264 388 l 567 388 m 228 1131 q 248 1180 228 1160 q 297 1200 268 1200 q 347 1180 326 1200 q 367 1131 367 1160 q 347 1081 367 1101 q 297 1061 326 1061 q 248 1081 268 1061 q 228 1131 228 1101 m 464 1131 q 484 1180 464 1160 q 533 1200 504 1200 q 583 1180 563 1200 q 603 1131 603 1160 q 583 1081 603 1101 q 533 1061 563 1061 q 484 1081 504 1061 q 464 1131 464 1101 z "},"Å":{"ha":831,"x_min":11,"x_max":819,"o":"m 360 950 q 369 966 363 960 q 392 972 376 972 l 439 972 q 461 966 454 972 q 471 950 468 960 l 819 19 q 800 0 819 0 l 728 0 q 703 19 710 0 l 604 288 l 226 288 l 128 19 q 103 0 121 0 l 31 0 q 11 19 11 0 l 360 950 m 567 388 l 415 803 l 264 388 l 567 388 m 289 1179 q 324 1269 289 1232 q 415 1306 360 1306 q 506 1269 471 1306 q 542 1179 542 1232 q 506 1090 542 1126 q 415 1053 471 1053 q 324 1090 360 1053 q 289 1179 289 1126 m 415 1117 q 459 1134 443 1117 q 475 1179 475 1151 q 459 1224 475 1207 q 415 1242 443 1242 q 372 1224 388 1242 q 356 1179 356 1207 q 372 1134 356 1151 q 415 1117 388 1117 z "},"Æ":{"ha":1254,"x_min":14,"x_max":1185,"o":"m 357 944 q 369 965 363 958 q 392 972 376 972 l 1146 972 q 1165 953 1165 972 l 1165 892 q 1146 872 1165 872 l 663 872 l 663 561 l 1054 561 q 1074 542 1074 561 l 1074 481 q 1054 461 1074 461 l 663 461 l 663 100 l 1165 100 q 1185 81 1185 100 l 1185 19 q 1165 0 1185 0 l 568 0 q 549 19 549 0 l 549 288 l 226 288 l 132 28 q 119 7 126 14 q 96 0 111 0 l 42 0 q 14 28 14 0 l 357 944 m 549 388 l 549 872 l 440 872 l 264 388 l 549 388 z "},"Ç":{"ha":913,"x_min":67,"x_max":851,"o":"m 343 -182 q 363 -167 344 -167 q 401 -179 375 -167 q 464 -192 428 -192 q 526 -170 506 -192 q 546 -117 546 -149 q 517 -51 546 -81 q 431 -8 488 -21 q 288 47 354 8 q 173 147 222 86 q 95 293 124 208 q 67 486 67 378 q 105 700 67 607 q 206 856 143 793 q 353 953 269 919 q 528 986 436 986 q 697 956 619 986 q 838 868 775 926 q 844 856 844 861 q 839 842 844 849 l 806 799 q 785 785 796 785 q 767 793 776 785 q 705 838 733 819 q 647 867 676 856 q 588 882 618 878 q 521 886 557 886 q 396 863 456 886 q 290 790 336 839 q 217 665 244 740 q 189 486 189 589 q 217 310 189 385 q 292 185 246 235 q 399 110 339 135 q 521 86 458 86 q 650 111 593 86 q 772 193 707 136 q 790 201 782 201 q 810 188 799 201 l 846 143 q 851 129 851 136 q 844 115 851 122 q 723 28 782 56 q 599 -8 664 0 q 641 -58 625 -29 q 657 -119 657 -86 q 606 -243 657 -203 q 476 -283 554 -283 q 396 -276 431 -283 q 344 -262 361 -268 q 332 -247 332 -258 q 332 -244 332 -246 q 333 -236 332 -243 l 343 -182 z "},"È":{"ha":825,"x_min":119,"x_max":756,"o":"m 119 953 q 139 972 119 972 l 717 972 q 736 953 736 972 l 736 892 q 717 872 736 872 l 233 872 l 233 561 l 625 561 q 644 542 644 561 l 644 481 q 625 461 644 461 l 233 461 l 233 100 l 736 100 q 756 81 756 100 l 756 19 q 736 0 756 0 l 139 0 q 119 19 119 0 l 119 953 m 314 1310 q 329 1319 319 1319 q 342 1314 335 1319 l 565 1154 q 575 1140 575 1147 q 571 1128 575 1133 l 535 1078 q 519 1068 529 1068 q 507 1074 514 1068 l 283 1233 q 274 1247 274 1240 q 278 1260 274 1253 l 314 1310 z "},"É":{"ha":825,"x_min":119,"x_max":756,"o":"m 119 953 q 139 972 119 972 l 717 972 q 736 953 736 972 l 736 892 q 717 872 736 872 l 233 872 l 233 561 l 625 561 q 644 542 644 561 l 644 481 q 625 461 644 461 l 233 461 l 233 100 l 736 100 q 756 81 756 100 l 756 19 q 736 0 756 0 l 139 0 q 119 19 119 0 l 119 953 m 274 1128 q 269 1140 269 1133 q 279 1154 269 1147 l 503 1314 q 515 1319 510 1319 q 531 1310 525 1319 l 567 1260 q 571 1247 571 1253 q 561 1233 571 1240 l 338 1074 q 325 1068 331 1068 q 310 1078 315 1068 l 274 1128 z "},"Ê":{"ha":825,"x_min":119,"x_max":756,"o":"m 119 953 q 139 972 119 972 l 717 972 q 736 953 736 972 l 736 892 q 717 872 736 872 l 233 872 l 233 561 l 625 561 q 644 542 644 561 l 644 481 q 625 461 644 461 l 233 461 l 233 100 l 736 100 q 756 81 756 100 l 756 19 q 736 0 756 0 l 139 0 q 119 19 119 0 l 119 953 m 225 1138 q 221 1150 221 1143 q 231 1164 221 1157 l 429 1314 q 442 1319 438 1319 q 454 1314 446 1319 l 653 1164 q 663 1150 663 1157 q 658 1138 663 1143 l 622 1088 q 607 1078 617 1078 q 594 1083 601 1078 l 442 1197 l 289 1083 q 276 1078 282 1078 q 261 1088 267 1078 l 225 1138 z "},"Ë":{"ha":825,"x_min":119,"x_max":756,"o":"m 119 953 q 139 972 119 972 l 717 972 q 736 953 736 972 l 736 892 q 717 872 736 872 l 233 872 l 233 561 l 625 561 q 644 542 644 561 l 644 481 q 625 461 644 461 l 233 461 l 233 100 l 736 100 q 756 81 756 100 l 756 19 q 736 0 756 0 l 139 0 q 119 19 119 0 l 119 953 m 239 1131 q 259 1180 239 1160 q 308 1200 279 1200 q 358 1180 338 1200 q 378 1131 378 1160 q 358 1081 378 1101 q 308 1061 338 1061 q 259 1081 279 1061 q 239 1131 239 1101 m 475 1131 q 495 1180 475 1160 q 544 1200 515 1200 q 594 1180 574 1200 q 614 1131 614 1160 q 594 1081 614 1101 q 544 1061 574 1061 q 495 1081 515 1061 q 475 1131 475 1101 z "},"Ì":{"ha":572,"x_min":42,"x_max":531,"o":"m 42 81 q 61 100 42 100 l 229 100 l 229 872 l 75 872 q 56 892 56 872 l 56 953 q 75 972 56 972 l 497 972 q 517 953 517 972 l 517 892 q 497 872 517 872 l 343 872 l 343 100 l 511 100 q 531 81 531 100 l 531 19 q 511 0 531 0 l 61 0 q 42 19 42 0 l 42 81 m 176 1310 q 192 1319 182 1319 q 204 1314 197 1319 l 428 1154 q 438 1140 438 1147 q 433 1128 438 1133 l 397 1078 q 382 1068 392 1068 q 369 1074 376 1068 l 146 1233 q 136 1247 136 1240 q 140 1260 136 1253 l 176 1310 z "},"Í":{"ha":572,"x_min":42,"x_max":531,"o":"m 42 81 q 61 100 42 100 l 229 100 l 229 872 l 75 872 q 56 892 56 872 l 56 953 q 75 972 56 972 l 497 972 q 517 953 517 972 l 517 892 q 497 872 517 872 l 343 872 l 343 100 l 511 100 q 531 81 531 100 l 531 19 q 511 0 531 0 l 61 0 q 42 19 42 0 l 42 81 m 140 1128 q 136 1140 136 1133 q 146 1154 136 1147 l 369 1314 q 382 1319 376 1319 q 397 1310 392 1319 l 433 1260 q 438 1247 438 1253 q 428 1233 438 1240 l 204 1074 q 192 1068 197 1068 q 176 1078 182 1068 l 140 1128 z "},"Î":{"ha":572,"x_min":42,"x_max":531,"o":"m 42 81 q 61 100 42 100 l 229 100 l 229 872 l 75 872 q 56 892 56 872 l 56 953 q 75 972 56 972 l 497 972 q 517 953 517 972 l 517 892 q 497 872 517 872 l 343 872 l 343 100 l 511 100 q 531 81 531 100 l 531 19 q 511 0 531 0 l 61 0 q 42 19 42 0 l 42 81 m 69 1138 q 65 1150 65 1143 q 75 1164 65 1157 l 274 1314 q 286 1319 282 1319 q 299 1314 290 1319 l 497 1164 q 507 1150 507 1157 q 503 1138 507 1143 l 467 1088 q 451 1078 461 1078 q 439 1083 446 1078 l 286 1197 l 133 1083 q 121 1078 126 1078 q 106 1088 111 1078 l 69 1138 z "},"Ï":{"ha":572,"x_min":42,"x_max":531,"o":"m 42 81 q 61 100 42 100 l 229 100 l 229 872 l 75 872 q 56 892 56 872 l 56 953 q 75 972 56 972 l 497 972 q 517 953 517 972 l 517 892 q 497 872 517 872 l 343 872 l 343 100 l 511 100 q 531 81 531 100 l 531 19 q 511 0 531 0 l 61 0 q 42 19 42 0 l 42 81 m 99 1131 q 119 1180 99 1160 q 168 1200 139 1200 q 217 1180 197 1200 q 238 1131 238 1160 q 217 1081 238 1101 q 168 1061 197 1061 q 119 1081 139 1061 q 99 1131 99 1101 m 335 1131 q 355 1180 335 1160 q 404 1200 375 1200 q 453 1180 433 1200 q 474 1131 474 1160 q 453 1081 474 1101 q 404 1061 433 1061 q 355 1081 375 1061 q 335 1131 335 1101 z "},"Ð":{"ha":964,"x_min":11,"x_max":897,"o":"m 161 438 l 31 438 q 11 457 11 438 l 11 515 q 31 535 11 535 l 161 535 l 161 953 q 181 972 161 972 l 417 972 q 601 942 514 972 q 753 850 688 911 q 858 698 819 789 q 897 486 897 607 q 858 270 897 361 q 754 119 819 179 q 601 29 689 58 q 417 0 514 0 l 181 0 q 161 19 161 0 l 161 438 m 417 100 q 553 122 488 100 q 667 191 618 144 q 746 310 717 238 q 775 486 775 383 q 746 663 775 589 q 667 783 717 736 q 553 851 618 829 q 417 872 489 872 l 275 872 l 275 535 l 460 535 q 479 515 479 535 l 479 457 q 460 438 479 438 l 275 438 l 275 100 l 417 100 z "},"Ñ":{"ha":953,"x_min":119,"x_max":833,"o":"m 119 953 q 139 972 119 972 l 196 972 q 215 967 208 972 q 228 953 221 963 l 719 215 l 719 953 q 739 972 719 972 l 814 972 q 833 953 833 972 l 833 19 q 814 0 833 0 l 757 0 q 738 5 744 0 q 725 19 732 10 l 233 757 l 233 19 q 214 0 233 0 l 139 0 q 119 19 119 0 l 119 953 m 243 1097 q 236 1108 236 1101 q 239 1121 236 1113 q 392 1235 292 1235 q 453 1224 429 1235 q 496 1199 478 1213 q 531 1175 514 1186 q 572 1164 547 1164 q 610 1178 596 1164 q 640 1226 625 1193 q 653 1236 644 1236 q 664 1233 658 1236 l 721 1204 q 728 1193 728 1200 q 725 1181 728 1189 q 572 1067 672 1067 q 510 1078 535 1067 q 468 1102 486 1089 q 433 1126 450 1115 q 392 1138 417 1138 q 353 1123 368 1138 q 324 1075 339 1108 q 311 1065 318 1065 q 300 1068 306 1065 l 243 1097 z "},"Ò":{"ha":1064,"x_min":67,"x_max":997,"o":"m 532 -14 q 358 18 442 -14 q 209 113 274 50 q 106 269 144 175 q 67 486 67 363 q 106 700 67 607 q 211 856 146 793 q 360 953 276 919 q 532 986 443 986 q 704 953 621 986 q 853 856 788 919 q 958 700 918 793 q 997 486 997 607 q 958 269 997 363 q 855 113 919 175 q 706 18 790 50 q 532 -14 622 -14 m 532 86 q 660 110 599 86 q 770 184 722 135 q 847 308 818 233 q 875 486 875 383 q 846 665 875 589 q 769 790 817 740 q 659 863 721 839 q 532 886 597 886 q 405 863 467 886 q 295 790 343 839 q 218 665 247 740 q 189 486 189 589 q 217 308 189 383 q 294 184 246 233 q 403 110 342 135 q 532 86 465 86 m 418 1310 q 433 1319 424 1319 q 446 1314 439 1319 l 669 1154 q 679 1140 679 1147 q 675 1128 679 1133 l 639 1078 q 624 1068 633 1068 q 611 1074 618 1068 l 388 1233 q 378 1247 378 1240 q 382 1260 378 1253 l 418 1310 z "},"Ó":{"ha":1064,"x_min":67,"x_max":997,"o":"m 532 -14 q 358 18 442 -14 q 209 113 274 50 q 106 269 144 175 q 67 486 67 363 q 106 700 67 607 q 211 856 146 793 q 360 953 276 919 q 532 986 443 986 q 704 953 621 986 q 853 856 788 919 q 958 700 918 793 q 997 486 997 607 q 958 269 997 363 q 855 113 919 175 q 706 18 790 50 q 532 -14 622 -14 m 532 86 q 660 110 599 86 q 770 184 722 135 q 847 308 818 233 q 875 486 875 383 q 846 665 875 589 q 769 790 817 740 q 659 863 721 839 q 532 886 597 886 q 405 863 467 886 q 295 790 343 839 q 218 665 247 740 q 189 486 189 589 q 217 308 189 383 q 294 184 246 233 q 403 110 342 135 q 532 86 465 86 m 379 1128 q 375 1140 375 1133 q 385 1154 375 1147 l 608 1314 q 621 1319 615 1319 q 636 1310 631 1319 l 672 1260 q 676 1247 676 1253 q 667 1233 676 1240 l 443 1074 q 431 1068 436 1068 q 415 1078 421 1068 l 379 1128 z "},"Ô":{"ha":1064,"x_min":67,"x_max":997,"o":"m 532 -14 q 358 18 442 -14 q 209 113 274 50 q 106 269 144 175 q 67 486 67 363 q 106 700 67 607 q 211 856 146 793 q 360 953 276 919 q 532 986 443 986 q 704 953 621 986 q 853 856 788 919 q 958 700 918 793 q 997 486 997 607 q 958 269 997 363 q 855 113 919 175 q 706 18 790 50 q 532 -14 622 -14 m 532 86 q 660 110 599 86 q 770 184 722 135 q 847 308 818 233 q 875 486 875 383 q 846 665 875 589 q 769 790 817 740 q 659 863 721 839 q 532 886 597 886 q 405 863 467 886 q 295 790 343 839 q 218 665 247 740 q 189 486 189 589 q 217 308 189 383 q 294 184 246 233 q 403 110 342 135 q 532 86 465 86 m 315 1138 q 311 1150 311 1143 q 321 1164 311 1157 l 519 1314 q 532 1319 528 1319 q 544 1314 536 1319 l 743 1164 q 753 1150 753 1157 q 749 1138 753 1143 l 713 1088 q 697 1078 707 1078 q 685 1083 692 1078 l 532 1197 l 379 1083 q 367 1078 372 1078 q 351 1088 357 1078 l 315 1138 z "},"Õ":{"ha":1064,"x_min":67,"x_max":997,"o":"m 532 -14 q 358 18 442 -14 q 209 113 274 50 q 106 269 144 175 q 67 486 67 363 q 106 700 67 607 q 211 856 146 793 q 360 953 276 919 q 532 986 443 986 q 704 953 621 986 q 853 856 788 919 q 958 700 918 793 q 997 486 997 607 q 958 269 997 363 q 855 113 919 175 q 706 18 790 50 q 532 -14 622 -14 m 532 86 q 660 110 599 86 q 770 184 722 135 q 847 308 818 233 q 875 486 875 383 q 846 665 875 589 q 769 790 817 740 q 659 863 721 839 q 532 886 597 886 q 405 863 467 886 q 295 790 343 839 q 218 665 247 740 q 189 486 189 589 q 217 308 189 383 q 294 184 246 233 q 403 110 342 135 q 532 86 465 86 m 304 1097 q 297 1108 297 1101 q 300 1121 297 1113 q 453 1235 353 1235 q 515 1224 490 1235 q 557 1199 539 1213 q 592 1175 575 1186 q 633 1164 608 1164 q 672 1178 657 1164 q 701 1226 686 1193 q 714 1236 706 1236 q 725 1233 719 1236 l 782 1204 q 789 1193 789 1200 q 786 1181 789 1189 q 633 1067 733 1067 q 572 1078 596 1067 q 529 1102 547 1089 q 494 1126 511 1115 q 453 1138 478 1138 q 415 1123 429 1138 q 385 1075 400 1108 q 372 1065 379 1065 q 361 1068 367 1065 l 304 1097 z "},"Ö":{"ha":1064,"x_min":67,"x_max":997,"o":"m 532 -14 q 358 18 442 -14 q 209 113 274 50 q 106 269 144 175 q 67 486 67 363 q 106 700 67 607 q 211 856 146 793 q 360 953 276 919 q 532 986 443 986 q 704 953 621 986 q 853 856 788 919 q 958 700 918 793 q 997 486 997 607 q 958 269 997 363 q 855 113 919 175 q 706 18 790 50 q 532 -14 622 -14 m 532 86 q 660 110 599 86 q 770 184 722 135 q 847 308 818 233 q 875 486 875 383 q 846 665 875 589 q 769 790 817 740 q 659 863 721 839 q 532 886 597 886 q 405 863 467 886 q 295 790 343 839 q 218 665 247 740 q 189 486 189 589 q 217 308 189 383 q 294 184 246 233 q 403 110 342 135 q 532 86 465 86 m 344 1131 q 365 1180 344 1160 q 414 1200 385 1200 q 463 1180 443 1200 q 483 1131 483 1160 q 463 1081 483 1101 q 414 1061 443 1061 q 365 1081 385 1061 q 344 1131 344 1101 m 581 1131 q 601 1180 581 1160 q 650 1200 621 1200 q 699 1180 679 1200 q 719 1131 719 1160 q 699 1081 719 1101 q 650 1061 679 1061 q 601 1081 621 1061 q 581 1131 581 1101 z "},"×":{"ha":592,"x_min":57,"x_max":535,"o":"m 64 289 q 57 303 57 296 q 64 317 57 310 l 228 479 l 64 642 q 57 656 57 649 q 64 669 57 663 l 106 711 q 119 718 113 718 q 133 711 126 718 l 296 547 l 458 711 q 472 718 465 718 q 486 711 479 718 l 528 669 q 535 656 535 663 q 528 642 535 649 l 364 479 l 528 317 q 535 303 535 310 q 528 289 535 296 l 486 247 q 472 240 479 240 q 458 247 465 240 l 296 411 l 133 247 q 119 240 126 240 q 106 247 113 240 l 64 289 z "},"Ø":{"ha":1064,"x_min":67,"x_max":997,"o":"m 207 10 q 200 19 200 14 q 206 36 200 25 l 236 89 q 113 250 160 151 q 67 486 67 349 q 106 700 67 607 q 211 856 146 793 q 360 953 276 919 q 532 986 443 986 q 729 942 636 986 l 757 989 q 778 1006 767 1006 q 796 1000 786 1006 l 857 963 q 864 953 864 958 q 858 936 864 947 l 826 881 q 950 718 903 817 q 997 486 997 619 q 958 269 997 363 q 855 113 919 175 q 706 18 790 50 q 532 -14 622 -14 q 333 28 425 -14 l 307 -17 q 286 -33 296 -33 q 268 -28 278 -33 l 207 10 m 678 853 q 532 886 608 886 q 405 863 467 886 q 295 790 343 839 q 218 665 247 740 q 189 486 189 589 q 217 310 189 385 q 292 186 244 235 l 678 853 m 385 118 q 456 94 419 101 q 532 86 493 86 q 660 110 599 86 q 770 184 722 135 q 847 308 818 233 q 875 486 875 383 q 847 663 875 588 q 772 786 819 738 l 385 118 z "},"Ù":{"ha":964,"x_min":114,"x_max":850,"o":"m 114 953 q 133 972 114 972 l 208 972 q 228 953 228 972 l 228 431 q 288 176 228 267 q 482 86 347 86 q 676 176 617 86 q 736 431 736 267 l 736 953 q 756 972 736 972 l 831 972 q 850 953 850 972 l 850 415 q 759 97 850 207 q 482 -14 668 -14 q 205 97 296 -14 q 114 415 114 207 l 114 953 m 372 1310 q 388 1319 378 1319 q 400 1314 393 1319 l 624 1154 q 633 1140 633 1147 q 629 1128 633 1133 l 593 1078 q 578 1068 588 1068 q 565 1074 572 1068 l 342 1233 q 332 1247 332 1240 q 336 1260 332 1253 l 372 1310 z "},"Ú":{"ha":964,"x_min":114,"x_max":850,"o":"m 114 953 q 133 972 114 972 l 208 972 q 228 953 228 972 l 228 431 q 288 176 228 267 q 482 86 347 86 q 676 176 617 86 q 736 431 736 267 l 736 953 q 756 972 736 972 l 831 972 q 850 953 850 972 l 850 415 q 759 97 850 207 q 482 -14 668 -14 q 205 97 296 -14 q 114 415 114 207 l 114 953 m 336 1128 q 332 1140 332 1133 q 342 1154 332 1147 l 565 1314 q 578 1319 572 1319 q 593 1310 588 1319 l 629 1260 q 633 1247 633 1253 q 624 1233 633 1240 l 400 1074 q 388 1068 393 1068 q 372 1078 378 1068 l 336 1128 z "},"Û":{"ha":964,"x_min":114,"x_max":850,"o":"m 114 953 q 133 972 114 972 l 208 972 q 228 953 228 972 l 228 431 q 288 176 228 267 q 482 86 347 86 q 676 176 617 86 q 736 431 736 267 l 736 953 q 756 972 736 972 l 831 972 q 850 953 850 972 l 850 415 q 759 97 850 207 q 482 -14 668 -14 q 205 97 296 -14 q 114 415 114 207 l 114 953 m 265 1138 q 261 1150 261 1143 q 271 1164 261 1157 l 469 1314 q 482 1319 478 1319 q 494 1314 486 1319 l 693 1164 q 703 1150 703 1157 q 699 1138 703 1143 l 663 1088 q 647 1078 657 1078 q 635 1083 642 1078 l 482 1197 l 329 1083 q 317 1078 322 1078 q 301 1088 307 1078 l 265 1138 z "},"Ü":{"ha":964,"x_min":114,"x_max":850,"o":"m 114 953 q 133 972 114 972 l 208 972 q 228 953 228 972 l 228 431 q 288 176 228 267 q 482 86 347 86 q 676 176 617 86 q 736 431 736 267 l 736 953 q 756 972 736 972 l 831 972 q 850 953 850 972 l 850 415 q 759 97 850 207 q 482 -14 668 -14 q 205 97 296 -14 q 114 415 114 207 l 114 953 m 294 1131 q 315 1180 294 1160 q 364 1200 335 1200 q 413 1180 393 1200 q 433 1131 433 1160 q 413 1081 433 1101 q 364 1061 393 1061 q 315 1081 335 1061 q 294 1131 294 1101 m 531 1131 q 551 1180 531 1160 q 600 1200 571 1200 q 649 1180 629 1200 q 669 1131 669 1160 q 649 1081 669 1101 q 600 1061 629 1061 q 551 1081 571 1061 q 531 1131 531 1101 z "},"Ý":{"ha":721,"x_min":6,"x_max":708,"o":"m 317 354 l 10 939 q 6 954 6 947 q 25 972 6 972 l 101 972 q 122 969 114 972 q 136 951 129 965 l 374 482 l 586 951 q 597 967 590 963 q 618 972 603 972 l 694 972 q 708 961 708 972 q 706 951 708 957 l 289 19 q 279 6 286 13 q 261 0 272 0 l 179 0 q 165 11 165 0 q 168 21 165 15 l 317 354 m 219 1128 q 215 1140 215 1133 q 225 1154 215 1147 l 449 1314 q 461 1319 456 1319 q 476 1310 471 1319 l 513 1260 q 517 1247 517 1253 q 507 1233 517 1240 l 283 1074 q 271 1068 276 1068 q 256 1078 261 1068 l 219 1128 z "},"Þ":{"ha":857,"x_min":119,"x_max":789,"o":"m 119 953 q 139 972 119 972 l 214 972 q 233 953 233 972 l 233 771 l 474 771 q 602 751 544 771 q 701 693 660 731 q 766 603 743 656 q 789 486 789 550 q 768 374 789 425 q 708 285 747 322 q 616 226 669 247 q 497 206 563 206 l 233 206 l 233 19 q 214 0 233 0 l 139 0 q 119 19 119 0 l 119 953 m 489 306 q 572 320 536 306 q 630 359 607 335 q 664 416 653 383 q 675 486 675 449 q 663 557 675 524 q 628 615 651 590 q 571 656 606 640 q 489 671 536 671 l 233 671 l 233 306 l 489 306 z "},"ß":{"ha":779,"x_min":100,"x_max":721,"o":"m 100 689 q 124 819 100 764 q 185 913 147 875 q 274 968 224 950 q 378 986 324 986 q 576 922 504 986 q 647 746 647 858 q 615 633 647 682 q 533 556 582 585 q 606 517 572 540 q 666 460 640 493 q 706 384 692 426 q 721 289 721 342 q 702 167 721 222 q 646 71 683 111 q 553 8 608 31 q 424 -14 497 -14 q 351 -10 386 -14 q 294 1 317 -7 q 274 29 274 10 l 274 81 q 292 100 274 100 q 301 99 297 100 q 355 83 325 89 q 424 78 385 78 q 557 129 504 78 q 610 281 610 181 q 551 435 610 381 q 394 490 492 490 l 339 490 q 319 510 319 490 l 319 563 q 339 582 319 582 l 356 582 q 491 625 440 582 q 542 743 542 668 q 497 855 542 815 q 378 894 451 894 q 253 840 301 894 q 206 689 206 786 l 206 19 q 186 0 206 0 l 119 0 q 100 19 100 0 l 100 689 z "},"à":{"ha":804,"x_min":58,"x_max":704,"o":"m 593 72 q 502 8 553 31 q 378 -14 451 -14 q 253 8 311 -14 q 151 73 194 31 q 83 179 108 115 q 58 326 58 243 q 83 468 58 406 q 152 575 108 531 q 257 643 196 619 q 392 667 318 667 q 517 641 463 667 q 599 583 572 615 l 599 633 q 618 653 599 653 l 685 653 q 704 633 704 653 l 704 19 q 685 0 704 0 l 640 0 q 613 19 619 0 l 593 72 m 599 394 q 589 456 599 431 q 557 504 579 481 q 489 556 528 536 q 397 575 450 575 q 306 558 347 575 q 234 508 264 540 q 187 430 204 476 q 169 325 169 383 q 186 222 169 268 q 232 144 203 176 q 303 95 261 113 q 394 78 344 78 q 497 102 457 78 q 565 163 538 126 q 592 212 585 186 q 599 278 599 238 l 599 394 m 265 963 q 281 972 271 972 q 293 967 286 972 l 517 807 q 526 793 526 800 q 522 781 526 786 l 486 731 q 471 721 481 721 q 458 726 465 721 l 235 886 q 225 900 225 893 q 229 913 225 906 l 265 963 z "},"á":{"ha":804,"x_min":58,"x_max":704,"o":"m 593 72 q 502 8 553 31 q 378 -14 451 -14 q 253 8 311 -14 q 151 73 194 31 q 83 179 108 115 q 58 326 58 243 q 83 468 58 406 q 152 575 108 531 q 257 643 196 619 q 392 667 318 667 q 517 641 463 667 q 599 583 572 615 l 599 633 q 618 653 599 653 l 685 653 q 704 633 704 653 l 704 19 q 685 0 704 0 l 640 0 q 613 19 619 0 l 593 72 m 599 394 q 589 456 599 431 q 557 504 579 481 q 489 556 528 536 q 397 575 450 575 q 306 558 347 575 q 234 508 264 540 q 187 430 204 476 q 169 325 169 383 q 186 222 169 268 q 232 144 203 176 q 303 95 261 113 q 394 78 344 78 q 497 102 457 78 q 565 163 538 126 q 592 212 585 186 q 599 278 599 238 l 599 394 m 235 781 q 231 793 231 786 q 240 807 231 800 l 464 967 q 476 972 471 972 q 492 963 486 972 l 528 913 q 532 900 532 906 q 522 886 532 893 l 299 726 q 286 721 292 721 q 271 731 276 721 l 235 781 z "},"â":{"ha":804,"x_min":58,"x_max":704,"o":"m 593 72 q 502 8 553 31 q 378 -14 451 -14 q 253 8 311 -14 q 151 73 194 31 q 83 179 108 115 q 58 326 58 243 q 83 468 58 406 q 152 575 108 531 q 257 643 196 619 q 392 667 318 667 q 517 641 463 667 q 599 583 572 615 l 599 633 q 618 653 599 653 l 685 653 q 704 633 704 653 l 704 19 q 685 0 704 0 l 640 0 q 613 19 619 0 l 593 72 m 599 394 q 589 456 599 431 q 557 504 579 481 q 489 556 528 536 q 397 575 450 575 q 306 558 347 575 q 234 508 264 540 q 187 430 204 476 q 169 325 169 383 q 186 222 169 268 q 232 144 203 176 q 303 95 261 113 q 394 78 344 78 q 497 102 457 78 q 565 163 538 126 q 592 212 585 186 q 599 278 599 238 l 599 394 m 188 790 q 183 803 183 796 q 193 817 183 810 l 392 967 q 404 972 400 972 q 417 967 408 972 l 615 817 q 625 803 625 810 q 621 790 625 796 l 585 740 q 569 731 579 731 q 557 736 564 731 l 404 850 l 251 736 q 239 731 244 731 q 224 740 229 731 l 188 790 z "},"ã":{"ha":804,"x_min":58,"x_max":704,"o":"m 593 72 q 502 8 553 31 q 378 -14 451 -14 q 253 8 311 -14 q 151 73 194 31 q 83 179 108 115 q 58 326 58 243 q 83 468 58 406 q 152 575 108 531 q 257 643 196 619 q 392 667 318 667 q 517 641 463 667 q 599 583 572 615 l 599 633 q 618 653 599 653 l 685 653 q 704 633 704 653 l 704 19 q 685 0 704 0 l 640 0 q 613 19 619 0 l 593 72 m 599 394 q 589 456 599 431 q 557 504 579 481 q 489 556 528 536 q 397 575 450 575 q 306 558 347 575 q 234 508 264 540 q 187 430 204 476 q 169 325 169 383 q 186 222 169 268 q 232 144 203 176 q 303 95 261 113 q 394 78 344 78 q 497 102 457 78 q 565 163 538 126 q 592 212 585 186 q 599 278 599 238 l 599 394 m 176 806 q 169 817 169 810 q 172 829 169 821 q 325 943 225 943 q 387 932 363 943 q 429 908 411 921 q 464 883 447 894 q 506 872 481 872 q 544 887 529 872 q 574 935 558 901 q 586 944 578 944 q 597 942 592 944 l 654 913 q 661 901 661 908 q 658 889 661 897 q 506 775 606 775 q 444 786 468 775 q 401 810 419 797 q 367 835 383 824 q 325 846 350 846 q 287 831 301 846 q 257 783 272 817 q 244 774 251 774 q 233 776 239 774 l 176 806 z "},"ä":{"ha":804,"x_min":58,"x_max":704,"o":"m 593 72 q 502 8 553 31 q 378 -14 451 -14 q 253 8 311 -14 q 151 73 194 31 q 83 179 108 115 q 58 326 58 243 q 83 468 58 406 q 152 575 108 531 q 257 643 196 619 q 392 667 318 667 q 517 641 463 667 q 599 583 572 615 l 599 633 q 618 653 599 653 l 685 653 q 704 633 704 653 l 704 19 q 685 0 704 0 l 640 0 q 613 19 619 0 l 593 72 m 599 394 q 589 456 599 431 q 557 504 579 481 q 489 556 528 536 q 397 575 450 575 q 306 558 347 575 q 234 508 264 540 q 187 430 204 476 q 169 325 169 383 q 186 222 169 268 q 232 144 203 176 q 303 95 261 113 q 394 78 344 78 q 497 102 457 78 q 565 163 538 126 q 592 212 585 186 q 599 278 599 238 l 599 394 m 194 853 q 215 902 194 882 q 264 922 235 922 q 313 902 293 922 q 333 853 333 882 q 313 803 333 824 q 264 783 293 783 q 215 803 235 783 q 194 853 194 824 m 431 853 q 451 902 431 882 q 500 922 471 922 q 549 902 529 922 q 569 853 569 882 q 549 803 569 824 q 500 783 529 783 q 451 803 471 783 q 431 853 431 824 z "},"å":{"ha":804,"x_min":58,"x_max":704,"o":"m 593 72 q 502 8 553 31 q 378 -14 451 -14 q 253 8 311 -14 q 151 73 194 31 q 83 179 108 115 q 58 326 58 243 q 83 468 58 406 q 152 575 108 531 q 257 643 196 619 q 392 667 318 667 q 517 641 463 667 q 599 583 572 615 l 599 633 q 618 653 599 653 l 685 653 q 704 633 704 653 l 704 19 q 685 0 704 0 l 640 0 q 613 19 619 0 l 593 72 m 599 394 q 589 456 599 431 q 557 504 579 481 q 489 556 528 536 q 397 575 450 575 q 306 558 347 575 q 234 508 264 540 q 187 430 204 476 q 169 325 169 383 q 186 222 169 268 q 232 144 203 176 q 303 95 261 113 q 394 78 344 78 q 497 102 457 78 q 565 163 538 126 q 592 212 585 186 q 599 278 599 238 l 599 394 m 271 860 q 306 949 271 913 q 397 986 342 986 q 488 949 453 986 q 524 860 524 913 q 488 770 524 807 q 397 733 453 733 q 306 770 342 733 q 271 860 271 807 m 397 797 q 441 815 425 797 q 457 860 457 832 q 441 905 457 888 q 397 922 425 922 q 353 905 369 922 q 338 860 338 888 q 353 815 338 832 q 397 797 369 797 z "},"æ":{"ha":1307,"x_min":58,"x_max":1246,"o":"m 593 72 q 502 8 553 31 q 378 -14 451 -14 q 253 8 311 -14 q 151 73 194 31 q 83 179 108 115 q 58 326 58 243 q 83 468 58 406 q 152 575 108 531 q 257 643 196 619 q 392 667 318 667 q 517 641 463 667 q 599 583 572 615 l 599 633 q 618 653 599 653 l 685 653 q 704 633 704 653 l 704 583 q 805 645 749 624 q 926 667 861 667 q 1057 640 999 667 q 1156 569 1115 614 q 1219 468 1196 525 q 1246 350 1242 411 l 1246 314 q 1226 294 1246 294 l 710 294 q 781 135 717 192 q 939 78 844 78 q 1058 103 1010 78 q 1143 168 1107 128 q 1160 176 1151 176 q 1176 168 1168 176 l 1213 132 q 1219 117 1219 125 q 1211 100 1219 108 q 939 -14 1097 -14 q 812 8 872 -14 q 704 72 751 29 l 704 19 q 685 0 704 0 l 640 0 q 613 19 619 0 l 593 72 m 599 394 q 589 456 599 431 q 557 504 579 481 q 489 556 528 536 q 397 575 450 575 q 306 558 347 575 q 234 508 264 540 q 187 430 204 476 q 169 325 169 383 q 186 222 169 268 q 232 144 203 176 q 303 95 261 113 q 394 78 344 78 q 497 102 457 78 q 565 163 538 126 q 592 212 585 186 q 599 278 599 238 l 599 394 m 1135 381 q 1117 454 1132 419 q 1074 516 1101 489 q 1010 559 1047 543 q 929 575 974 575 q 779 522 836 575 q 710 381 722 468 l 1135 381 z "},"ç":{"ha":711,"x_min":58,"x_max":656,"o":"m 231 -182 q 250 -167 232 -167 q 289 -179 263 -167 q 351 -192 315 -192 q 413 -170 393 -192 q 433 -117 433 -149 q 403 -47 433 -78 q 315 -6 372 -17 q 215 33 261 6 q 133 101 168 60 q 78 199 99 143 q 58 326 58 256 q 85 467 58 404 q 157 574 111 529 q 266 642 203 618 q 404 667 329 667 q 535 641 471 667 q 636 574 599 615 q 643 560 643 565 q 638 546 643 553 l 604 500 q 589 493 599 493 q 572 501 581 493 q 499 553 544 531 q 397 575 453 575 q 306 558 347 575 q 233 508 264 540 q 186 430 203 476 q 169 325 169 383 q 187 227 169 272 q 234 149 204 182 q 306 97 264 115 q 397 78 347 78 q 500 99 461 78 q 578 161 539 121 q 592 168 585 168 q 604 164 600 168 l 649 122 q 656 107 656 115 q 647 90 656 99 q 564 25 604 47 q 482 -6 524 3 q 527 -56 510 -26 q 544 -119 544 -85 q 493 -243 544 -203 q 364 -283 442 -283 q 283 -276 318 -283 q 232 -262 249 -268 q 219 -247 219 -258 q 219 -244 219 -246 q 221 -236 219 -243 l 231 -182 z "},"è":{"ha":767,"x_min":58,"x_max":706,"o":"m 672 132 q 679 117 679 125 q 671 100 679 108 q 399 -14 557 -14 q 270 8 332 -14 q 162 74 208 31 q 87 181 115 117 q 58 326 58 244 q 84 467 58 404 q 154 574 110 529 q 258 642 199 618 q 386 667 318 667 q 517 640 458 667 q 615 569 575 614 q 678 468 656 525 q 706 350 701 411 l 706 314 q 686 294 706 294 l 169 294 q 240 135 176 192 q 399 78 304 78 q 518 103 469 78 q 603 168 567 128 q 619 176 611 176 q 636 168 628 176 l 672 132 m 594 381 q 576 454 592 419 q 534 516 561 489 q 470 559 507 543 q 389 575 433 575 q 239 522 296 575 q 169 381 182 468 l 594 381 m 267 963 q 282 972 272 972 q 294 967 288 972 l 518 807 q 528 793 528 800 q 524 781 528 786 l 488 731 q 472 721 482 721 q 460 726 467 721 l 236 886 q 226 900 226 893 q 231 913 226 906 l 267 963 z "},"é":{"ha":767,"x_min":58,"x_max":706,"o":"m 672 132 q 679 117 679 125 q 671 100 679 108 q 399 -14 557 -14 q 270 8 332 -14 q 162 74 208 31 q 87 181 115 117 q 58 326 58 244 q 84 467 58 404 q 154 574 110 529 q 258 642 199 618 q 386 667 318 667 q 517 640 458 667 q 615 569 575 614 q 678 468 656 525 q 706 350 701 411 l 706 314 q 686 294 706 294 l 169 294 q 240 135 176 192 q 399 78 304 78 q 518 103 469 78 q 603 168 567 128 q 619 176 611 176 q 636 168 628 176 l 672 132 m 594 381 q 576 454 592 419 q 534 516 561 489 q 470 559 507 543 q 389 575 433 575 q 239 522 296 575 q 169 381 182 468 l 594 381 m 215 781 q 211 793 211 786 q 221 807 211 800 l 444 967 q 457 972 451 972 q 472 963 467 972 l 508 913 q 513 900 513 906 q 503 886 513 893 l 279 726 q 267 721 272 721 q 251 731 257 721 l 215 781 z "},"ê":{"ha":767,"x_min":58,"x_max":706,"o":"m 672 132 q 679 117 679 125 q 671 100 679 108 q 399 -14 557 -14 q 270 8 332 -14 q 162 74 208 31 q 87 181 115 117 q 58 326 58 244 q 84 467 58 404 q 154 574 110 529 q 258 642 199 618 q 386 667 318 667 q 517 640 458 667 q 615 569 575 614 q 678 468 656 525 q 706 350 701 411 l 706 314 q 686 294 706 294 l 169 294 q 240 135 176 192 q 399 78 304 78 q 518 103 469 78 q 603 168 567 128 q 619 176 611 176 q 636 168 628 176 l 672 132 m 594 381 q 576 454 592 419 q 534 516 561 489 q 470 559 507 543 q 389 575 433 575 q 239 522 296 575 q 169 381 182 468 l 594 381 m 168 790 q 164 803 164 796 q 174 817 164 810 l 372 967 q 385 972 381 972 q 397 967 389 972 l 596 817 q 606 803 606 810 q 601 790 606 796 l 565 740 q 550 731 560 731 q 538 736 544 731 l 385 850 l 232 736 q 219 731 225 731 q 204 740 210 731 l 168 790 z "},"ë":{"ha":767,"x_min":58,"x_max":706,"o":"m 672 132 q 679 117 679 125 q 671 100 679 108 q 399 -14 557 -14 q 270 8 332 -14 q 162 74 208 31 q 87 181 115 117 q 58 326 58 244 q 84 467 58 404 q 154 574 110 529 q 258 642 199 618 q 386 667 318 667 q 517 640 458 667 q 615 569 575 614 q 678 468 656 525 q 706 350 701 411 l 706 314 q 686 294 706 294 l 169 294 q 240 135 176 192 q 399 78 304 78 q 518 103 469 78 q 603 168 567 128 q 619 176 611 176 q 636 168 628 176 l 672 132 m 594 381 q 576 454 592 419 q 534 516 561 489 q 470 559 507 543 q 389 575 433 575 q 239 522 296 575 q 169 381 182 468 l 594 381 m 200 853 q 220 902 200 882 q 269 922 240 922 q 319 902 299 922 q 339 853 339 882 q 319 803 339 824 q 269 783 299 783 q 220 803 240 783 q 200 853 200 824 m 436 853 q 456 902 436 882 q 506 922 476 922 q 555 902 535 922 q 575 853 575 882 q 555 803 575 824 q 506 783 535 783 q 456 803 476 783 q 436 853 436 824 z "},"ì":{"ha":306,"x_min":1,"x_max":303,"o":"m 100 633 q 119 653 100 653 l 186 653 q 206 633 206 653 l 206 19 q 186 0 206 0 l 119 0 q 100 19 100 0 l 100 633 m 42 963 q 57 972 47 972 q 69 967 63 972 l 293 807 q 303 793 303 800 q 299 781 303 786 l 263 731 q 247 721 257 721 q 235 726 242 721 l 11 886 q 1 900 1 893 q 6 913 1 906 l 42 963 z "},"í":{"ha":306,"x_min":1,"x_max":303,"o":"m 100 633 q 119 653 100 653 l 186 653 q 206 633 206 653 l 206 19 q 186 0 206 0 l 119 0 q 100 19 100 0 l 100 633 m 6 781 q 1 793 1 786 q 11 807 1 800 l 235 967 q 247 972 242 972 q 263 963 257 972 l 299 913 q 303 900 303 906 q 293 886 303 893 l 69 726 q 57 721 63 721 q 42 731 47 721 l 6 781 z "},"î":{"ha":306,"x_min":-68,"x_max":374,"o":"m 100 633 q 119 653 100 653 l 186 653 q 206 633 206 653 l 206 19 q 186 0 206 0 l 119 0 q 100 19 100 0 l 100 633 m -64 790 q -68 803 -68 796 q -58 817 -68 810 l 140 967 q 153 972 149 972 q 165 967 157 972 l 364 817 q 374 803 374 810 q 369 790 374 796 l 333 740 q 318 731 328 731 q 306 736 313 731 l 153 850 l 0 736 q -12 731 -7 731 q -28 740 -22 731 l -64 790 z "},"ï":{"ha":306,"x_min":-35,"x_max":340,"o":"m 100 633 q 119 653 100 653 l 186 653 q 206 633 206 653 l 206 19 q 186 0 206 0 l 119 0 q 100 19 100 0 l 100 633 m -35 853 q -15 902 -35 882 q 35 922 6 922 q 84 902 64 922 q 104 853 104 882 q 84 803 104 824 q 35 783 64 783 q -15 803 6 783 q -35 853 -35 824 m 201 853 q 222 902 201 882 q 271 922 242 922 q 320 902 300 922 q 340 853 340 882 q 320 803 340 824 q 271 783 300 783 q 222 803 242 783 q 201 853 201 824 z "},"ð":{"ha":761,"x_min":58,"x_max":703,"o":"m 171 743 q 164 761 164 754 q 179 781 164 772 l 283 844 l 203 944 q 199 957 199 950 q 203 967 199 963 q 215 972 207 972 l 285 972 q 329 950 313 972 l 368 897 l 464 957 q 481 963 474 963 q 503 947 493 963 l 519 919 q 526 901 526 908 q 511 881 526 892 l 424 826 l 610 586 q 703 326 703 465 q 678 181 703 244 q 609 74 653 117 q 506 8 565 31 q 381 -14 447 -14 q 255 8 314 -14 q 152 74 196 31 q 83 181 108 117 q 58 326 58 244 q 83 467 58 404 q 151 574 108 529 q 249 642 193 618 q 364 667 304 667 q 442 649 406 667 l 339 775 l 226 706 q 208 699 215 699 q 188 714 196 699 l 171 743 m 381 78 q 469 97 429 78 q 535 149 508 115 q 577 227 563 182 q 592 325 592 272 q 576 430 592 383 q 531 508 560 476 q 464 558 503 540 q 381 575 425 575 q 297 558 336 575 q 230 508 258 540 q 185 430 201 476 q 169 325 169 383 q 184 227 169 272 q 226 149 199 182 q 292 97 253 115 q 381 78 332 78 z "},"ñ":{"ha":769,"x_min":100,"x_max":661,"o":"m 100 633 q 119 653 100 653 l 186 653 q 206 633 206 653 l 206 547 q 245 591 219 569 q 303 629 271 613 q 374 656 336 646 q 451 667 413 667 q 606 616 551 667 q 661 463 661 565 l 661 19 q 642 0 661 0 l 575 0 q 556 19 556 0 l 556 457 q 524 547 556 518 q 435 575 492 575 q 374 565 403 575 q 319 538 344 554 q 273 499 293 521 q 239 456 253 478 q 215 395 224 432 q 206 285 206 358 l 206 19 q 186 0 206 0 l 119 0 q 100 19 100 0 l 100 633 m 151 806 q 144 817 144 810 q 147 829 144 821 q 300 943 200 943 q 362 932 338 943 q 404 908 386 921 q 439 883 422 894 q 481 872 456 872 q 519 887 504 872 q 549 935 533 901 q 561 944 553 944 q 572 942 567 944 l 629 913 q 636 901 636 908 q 633 889 636 897 q 481 775 581 775 q 419 786 443 775 q 376 810 394 797 q 342 835 358 824 q 300 846 325 846 q 262 831 276 846 q 232 783 247 817 q 219 774 226 774 q 208 776 214 774 l 151 806 z "},"ò":{"ha":772,"x_min":58,"x_max":714,"o":"m 386 -14 q 260 8 319 -14 q 155 74 200 31 q 84 181 110 117 q 58 326 58 244 q 83 467 58 404 q 151 574 107 529 q 254 642 194 618 q 386 667 314 667 q 518 642 458 667 q 622 574 578 618 q 690 467 665 529 q 714 326 714 404 q 688 181 714 244 q 617 74 663 117 q 513 8 572 31 q 386 -14 453 -14 m 386 78 q 475 97 435 78 q 544 149 515 115 q 588 227 572 182 q 603 325 603 272 q 585 430 603 383 q 539 508 568 476 q 470 558 510 540 q 386 575 431 575 q 302 558 342 575 q 233 508 263 540 q 187 430 204 476 q 169 325 169 383 q 185 227 169 272 q 228 149 200 182 q 297 97 257 115 q 386 78 338 78 m 285 963 q 300 972 290 972 q 313 967 306 972 l 536 807 q 546 793 546 800 q 542 781 546 786 l 506 731 q 490 721 500 721 q 478 726 485 721 l 254 886 q 244 900 244 893 q 249 913 244 906 l 285 963 z "},"ó":{"ha":772,"x_min":58,"x_max":714,"o":"m 386 -14 q 260 8 319 -14 q 155 74 200 31 q 84 181 110 117 q 58 326 58 244 q 83 467 58 404 q 151 574 107 529 q 254 642 194 618 q 386 667 314 667 q 518 642 458 667 q 622 574 578 618 q 690 467 665 529 q 714 326 714 404 q 688 181 714 244 q 617 74 663 117 q 513 8 572 31 q 386 -14 453 -14 m 386 78 q 475 97 435 78 q 544 149 515 115 q 588 227 572 182 q 603 325 603 272 q 585 430 603 383 q 539 508 568 476 q 470 558 510 540 q 386 575 431 575 q 302 558 342 575 q 233 508 263 540 q 187 430 204 476 q 169 325 169 383 q 185 227 169 272 q 228 149 200 182 q 297 97 257 115 q 386 78 338 78 m 249 781 q 244 793 244 786 q 254 807 244 800 l 478 967 q 490 972 485 972 q 506 963 500 972 l 542 913 q 546 900 546 906 q 536 886 546 893 l 313 726 q 300 721 306 721 q 285 731 290 721 l 249 781 z "},"ô":{"ha":772,"x_min":58,"x_max":714,"o":"m 386 -14 q 260 8 319 -14 q 155 74 200 31 q 84 181 110 117 q 58 326 58 244 q 83 467 58 404 q 151 574 107 529 q 254 642 194 618 q 386 667 314 667 q 518 642 458 667 q 622 574 578 618 q 690 467 665 529 q 714 326 714 404 q 688 181 714 244 q 617 74 663 117 q 513 8 572 31 q 386 -14 453 -14 m 386 78 q 475 97 435 78 q 544 149 515 115 q 588 227 572 182 q 603 325 603 272 q 585 430 603 383 q 539 508 568 476 q 470 558 510 540 q 386 575 431 575 q 302 558 342 575 q 233 508 263 540 q 187 430 204 476 q 169 325 169 383 q 185 227 169 272 q 228 149 200 182 q 297 97 257 115 q 386 78 338 78 m 169 790 q 165 803 165 796 q 175 817 165 810 l 374 967 q 386 972 382 972 q 399 967 390 972 l 597 817 q 607 803 607 810 q 603 790 607 796 l 567 740 q 551 731 561 731 q 539 736 546 731 l 386 850 l 233 736 q 221 731 226 731 q 206 740 211 731 l 169 790 z "},"õ":{"ha":772,"x_min":58,"x_max":714,"o":"m 386 -14 q 260 8 319 -14 q 155 74 200 31 q 84 181 110 117 q 58 326 58 244 q 83 467 58 404 q 151 574 107 529 q 254 642 194 618 q 386 667 314 667 q 518 642 458 667 q 622 574 578 618 q 690 467 665 529 q 714 326 714 404 q 688 181 714 244 q 617 74 663 117 q 513 8 572 31 q 386 -14 453 -14 m 386 78 q 475 97 435 78 q 544 149 515 115 q 588 227 572 182 q 603 325 603 272 q 585 430 603 383 q 539 508 568 476 q 470 558 510 540 q 386 575 431 575 q 302 558 342 575 q 233 508 263 540 q 187 430 204 476 q 169 325 169 383 q 185 227 169 272 q 228 149 200 182 q 297 97 257 115 q 386 78 338 78 m 158 806 q 151 817 151 810 q 154 829 151 821 q 307 943 207 943 q 369 932 344 943 q 411 908 393 921 q 446 883 429 894 q 488 872 463 872 q 526 887 511 872 q 556 935 540 901 q 568 944 560 944 q 579 942 574 944 l 636 913 q 643 901 643 908 q 640 889 643 897 q 488 775 588 775 q 426 786 450 775 q 383 810 401 797 q 349 835 365 824 q 307 846 332 846 q 269 831 283 846 q 239 783 254 817 q 226 774 233 774 q 215 776 221 774 l 158 806 z "},"ö":{"ha":772,"x_min":58,"x_max":714,"o":"m 386 -14 q 260 8 319 -14 q 155 74 200 31 q 84 181 110 117 q 58 326 58 244 q 83 467 58 404 q 151 574 107 529 q 254 642 194 618 q 386 667 314 667 q 518 642 458 667 q 622 574 578 618 q 690 467 665 529 q 714 326 714 404 q 688 181 714 244 q 617 74 663 117 q 513 8 572 31 q 386 -14 453 -14 m 386 78 q 475 97 435 78 q 544 149 515 115 q 588 227 572 182 q 603 325 603 272 q 585 430 603 383 q 539 508 568 476 q 470 558 510 540 q 386 575 431 575 q 302 558 342 575 q 233 508 263 540 q 187 430 204 476 q 169 325 169 383 q 185 227 169 272 q 228 149 200 182 q 297 97 257 115 q 386 78 338 78 m 199 853 q 219 902 199 882 q 268 922 239 922 q 317 902 297 922 q 338 853 338 882 q 317 803 338 824 q 268 783 297 783 q 219 803 239 783 q 199 853 199 824 m 435 853 q 455 902 435 882 q 504 922 475 922 q 553 902 533 922 q 574 853 574 882 q 553 803 574 824 q 504 783 533 783 q 455 803 475 783 q 435 853 435 824 z "},"÷":{"ha":708,"x_min":53,"x_max":650,"o":"m 272 69 q 295 126 272 103 q 350 150 318 150 q 407 126 383 150 q 431 69 431 103 q 407 15 431 38 q 350 -8 383 -8 q 295 15 318 -8 q 272 69 272 38 m 272 597 q 295 654 272 631 q 350 678 318 678 q 407 654 383 678 q 431 597 431 631 q 407 542 431 565 q 350 519 383 519 q 295 542 318 519 q 272 597 272 565 m 53 364 q 72 383 53 383 l 631 383 q 650 364 650 383 l 650 306 q 631 286 650 286 l 72 286 q 53 306 53 286 l 53 364 z "},"ø":{"ha":772,"x_min":58,"x_max":714,"o":"m 171 60 q 89 169 119 103 q 58 326 58 236 q 83 467 58 404 q 151 574 107 529 q 254 642 194 618 q 386 667 314 667 q 510 644 450 667 l 529 678 q 546 689 536 689 q 556 686 550 689 l 618 651 q 625 640 625 647 q 621 628 625 636 l 600 593 q 683 481 653 549 q 714 326 714 414 q 688 181 714 244 q 617 74 663 117 q 513 8 572 31 q 386 -14 453 -14 q 322 -8 353 -14 q 261 7 290 -3 l 243 -25 q 226 -36 236 -36 q 217 -33 222 -36 l 154 1 q 147 13 147 6 q 151 25 147 17 l 171 60 m 310 90 q 386 78 343 78 q 475 97 435 78 q 544 149 515 115 q 588 227 572 182 q 603 325 603 272 q 588 424 603 379 q 546 500 572 468 l 310 90 m 461 561 q 386 575 422 575 q 302 558 342 575 q 233 508 263 540 q 187 430 204 476 q 169 325 169 383 q 184 228 169 272 q 225 153 199 185 l 461 561 z "},"ù":{"ha":771,"x_min":108,"x_max":671,"o":"m 108 633 q 128 653 108 653 l 194 653 q 214 633 214 653 l 214 235 q 226 160 214 190 q 257 111 238 129 q 303 85 276 93 q 358 78 329 78 q 405 83 381 78 q 453 97 429 88 q 497 119 476 107 q 533 147 518 132 q 559 183 553 167 q 565 222 565 199 l 565 633 q 585 653 565 653 l 651 653 q 671 633 671 653 l 671 19 q 651 0 671 0 l 585 0 q 565 19 565 0 l 565 64 q 469 9 525 32 q 339 -14 413 -14 q 166 46 224 -14 q 108 218 108 106 l 108 633 m 276 963 q 292 972 282 972 q 304 967 297 972 l 528 807 q 538 793 538 800 q 533 781 538 786 l 497 731 q 482 721 492 721 q 469 726 476 721 l 246 886 q 236 900 236 893 q 240 913 236 906 l 276 963 z "},"ú":{"ha":771,"x_min":108,"x_max":671,"o":"m 108 633 q 128 653 108 653 l 194 653 q 214 633 214 653 l 214 235 q 226 160 214 190 q 257 111 238 129 q 303 85 276 93 q 358 78 329 78 q 405 83 381 78 q 453 97 429 88 q 497 119 476 107 q 533 147 518 132 q 559 183 553 167 q 565 222 565 199 l 565 633 q 585 653 565 653 l 651 653 q 671 633 671 653 l 671 19 q 651 0 671 0 l 585 0 q 565 19 565 0 l 565 64 q 469 9 525 32 q 339 -14 413 -14 q 166 46 224 -14 q 108 218 108 106 l 108 633 m 253 781 q 249 793 249 786 q 258 807 249 800 l 482 967 q 494 972 489 972 q 510 963 504 972 l 546 913 q 550 900 550 906 q 540 886 550 893 l 317 726 q 304 721 310 721 q 289 731 294 721 l 253 781 z "},"û":{"ha":771,"x_min":108,"x_max":671,"o":"m 108 633 q 128 653 108 653 l 194 653 q 214 633 214 653 l 214 235 q 226 160 214 190 q 257 111 238 129 q 303 85 276 93 q 358 78 329 78 q 405 83 381 78 q 453 97 429 88 q 497 119 476 107 q 533 147 518 132 q 559 183 553 167 q 565 222 565 199 l 565 633 q 585 653 565 653 l 651 653 q 671 633 671 653 l 671 19 q 651 0 671 0 l 585 0 q 565 19 565 0 l 565 64 q 469 9 525 32 q 339 -14 413 -14 q 166 46 224 -14 q 108 218 108 106 l 108 633 m 172 790 q 168 803 168 796 q 178 817 168 810 l 376 967 q 389 972 385 972 q 401 967 393 972 l 600 817 q 610 803 610 810 q 606 790 610 796 l 569 740 q 554 731 564 731 q 542 736 549 731 l 389 850 l 236 736 q 224 731 229 731 q 208 740 214 731 l 172 790 z "},"ü":{"ha":771,"x_min":108,"x_max":671,"o":"m 108 633 q 128 653 108 653 l 194 653 q 214 633 214 653 l 214 235 q 226 160 214 190 q 257 111 238 129 q 303 85 276 93 q 358 78 329 78 q 405 83 381 78 q 453 97 429 88 q 497 119 476 107 q 533 147 518 132 q 559 183 553 167 q 565 222 565 199 l 565 633 q 585 653 565 653 l 651 653 q 671 633 671 653 l 671 19 q 651 0 671 0 l 585 0 q 565 19 565 0 l 565 64 q 469 9 525 32 q 339 -14 413 -14 q 166 46 224 -14 q 108 218 108 106 l 108 633 m 206 853 q 226 902 206 882 q 275 922 246 922 q 324 902 304 922 q 344 853 344 882 q 324 803 344 824 q 275 783 304 783 q 226 803 246 783 q 206 853 206 824 m 442 853 q 462 902 442 882 q 511 922 482 922 q 560 902 540 922 q 581 853 581 882 q 560 803 581 824 q 511 783 540 783 q 462 803 482 783 q 442 853 442 824 z "},"ý":{"ha":679,"x_min":28,"x_max":649,"o":"m 288 15 q 286 19 286 17 l 28 633 q 47 653 28 653 l 122 653 q 147 633 140 653 l 340 149 l 535 633 q 560 653 542 653 l 629 653 q 649 633 649 653 l 274 -300 q 247 -319 267 -319 l 174 -319 q 160 -308 160 -319 q 160 -301 160 -304 q 163 -296 161 -299 l 288 15 m 203 781 q 199 793 199 786 q 208 807 199 800 l 432 967 q 444 972 439 972 q 460 963 454 972 l 496 913 q 500 900 500 906 q 490 886 500 893 l 267 726 q 254 721 260 721 q 239 731 244 721 l 203 781 z "},"þ":{"ha":778,"x_min":100,"x_max":719,"o":"m 100 953 q 119 972 100 972 l 186 972 q 206 953 206 972 l 206 572 q 295 636 236 606 q 426 667 354 667 q 544 645 490 667 q 638 581 599 624 q 698 475 676 539 q 719 326 719 411 q 697 181 719 244 q 631 74 674 117 q 530 8 589 31 q 400 -14 471 -14 q 286 6 339 -14 q 206 49 233 25 l 206 -300 q 186 -319 206 -319 l 119 -319 q 100 -300 100 -319 l 100 953 m 206 235 q 214 176 206 199 q 247 133 222 154 q 315 93 276 108 q 399 78 353 78 q 483 95 444 78 q 549 144 521 113 q 592 223 576 176 q 608 328 608 269 q 595 427 608 382 q 557 505 582 472 q 495 556 532 538 q 411 575 458 575 q 313 550 354 575 q 239 483 271 525 q 206 364 206 442 l 206 235 z "},"ÿ":{"ha":679,"x_min":28,"x_max":649,"o":"m 288 15 q 286 19 286 17 l 28 633 q 47 653 28 653 l 122 653 q 147 633 140 653 l 340 149 l 535 633 q 560 653 542 653 l 629 653 q 649 633 649 653 l 274 -300 q 247 -319 267 -319 l 174 -319 q 160 -308 160 -319 q 160 -301 160 -304 q 163 -296 161 -299 l 288 15 m 154 853 q 174 902 154 882 q 224 922 194 922 q 273 902 253 922 q 293 853 293 882 q 273 803 293 824 q 224 783 253 783 q 174 803 194 783 q 154 853 154 824 m 390 853 q 410 902 390 882 q 460 922 431 922 q 509 902 489 922 q 529 853 529 882 q 509 803 529 824 q 460 783 489 783 q 410 803 431 783 q 390 853 390 824 z "},"Ā":{"ha":831,"x_min":11,"x_max":819,"o":"m 360 950 q 369 966 363 960 q 392 972 376 972 l 439 972 q 461 966 454 972 q 471 950 468 960 l 819 19 q 800 0 819 0 l 728 0 q 703 19 710 0 l 604 288 l 226 288 l 128 19 q 103 0 121 0 l 31 0 q 11 19 11 0 l 360 950 m 567 388 l 415 803 l 264 388 l 567 388 m 265 1171 q 285 1190 265 1190 l 546 1190 q 565 1171 565 1190 l 565 1118 q 546 1099 565 1099 l 285 1099 q 265 1118 265 1099 l 265 1171 z "},"ā":{"ha":804,"x_min":58,"x_max":704,"o":"m 593 72 q 502 8 553 31 q 378 -14 451 -14 q 253 8 311 -14 q 151 73 194 31 q 83 179 108 115 q 58 326 58 243 q 83 468 58 406 q 152 575 108 531 q 257 643 196 619 q 392 667 318 667 q 517 641 463 667 q 599 583 572 615 l 599 633 q 618 653 599 653 l 685 653 q 704 633 704 653 l 704 19 q 685 0 704 0 l 640 0 q 613 19 619 0 l 593 72 m 599 394 q 589 456 599 431 q 557 504 579 481 q 489 556 528 536 q 397 575 450 575 q 306 558 347 575 q 234 508 264 540 q 187 430 204 476 q 169 325 169 383 q 186 222 169 268 q 232 144 203 176 q 303 95 261 113 q 394 78 344 78 q 497 102 457 78 q 565 163 538 126 q 592 212 585 186 q 599 278 599 238 l 599 394 m 251 851 q 271 871 251 871 l 532 871 q 551 851 551 871 l 551 799 q 532 779 551 779 l 271 779 q 251 799 251 779 l 251 851 z "},"Ă":{"ha":831,"x_min":11,"x_max":819,"o":"m 360 950 q 369 966 363 960 q 392 972 376 972 l 439 972 q 461 966 454 972 q 471 950 468 960 l 819 19 q 800 0 819 0 l 728 0 q 703 19 710 0 l 604 288 l 226 288 l 128 19 q 103 0 121 0 l 31 0 q 11 19 11 0 l 360 950 m 567 388 l 415 803 l 264 388 l 567 388 m 324 1256 q 343 1236 343 1256 q 360 1174 343 1199 q 415 1149 376 1149 q 471 1174 454 1149 q 488 1236 488 1199 q 507 1256 488 1256 l 556 1256 q 575 1236 575 1256 q 532 1116 575 1164 q 415 1068 489 1068 q 299 1116 342 1068 q 256 1236 256 1164 q 275 1256 256 1256 l 324 1256 z "},"ă":{"ha":804,"x_min":58,"x_max":704,"o":"m 593 72 q 502 8 553 31 q 378 -14 451 -14 q 253 8 311 -14 q 151 73 194 31 q 83 179 108 115 q 58 326 58 243 q 83 468 58 406 q 152 575 108 531 q 257 643 196 619 q 392 667 318 667 q 517 641 463 667 q 599 583 572 615 l 599 633 q 618 653 599 653 l 685 653 q 704 633 704 653 l 704 19 q 685 0 704 0 l 640 0 q 613 19 619 0 l 593 72 m 599 394 q 589 456 599 431 q 557 504 579 481 q 489 556 528 536 q 397 575 450 575 q 306 558 347 575 q 234 508 264 540 q 187 430 204 476 q 169 325 169 383 q 186 222 169 268 q 232 144 203 176 q 303 95 261 113 q 394 78 344 78 q 497 102 457 78 q 565 163 538 126 q 592 212 585 186 q 599 278 599 238 l 599 394 m 310 936 q 329 917 329 936 q 346 854 329 879 q 401 829 363 829 q 457 854 440 829 q 474 917 474 879 q 493 936 474 936 l 542 936 q 561 917 561 936 q 518 797 561 844 q 401 749 475 749 q 285 797 328 749 q 242 917 242 844 q 261 936 242 936 l 310 936 z "},"Ą":{"ha":831,"x_min":11,"x_max":881,"o":"m 879 -204 q 881 -212 881 -210 q 871 -226 881 -224 q 817 -243 840 -237 q 761 -249 793 -249 q 659 -215 700 -249 q 618 -122 618 -181 q 644 -35 618 -69 q 703 19 669 0 l 604 288 l 226 288 l 128 19 q 103 0 121 0 l 31 0 q 11 19 11 0 l 360 950 q 369 966 363 960 q 392 972 376 972 l 439 972 q 461 966 454 972 q 471 950 468 960 l 819 19 q 807 0 819 6 q 741 -42 767 -18 q 715 -100 715 -65 q 734 -144 715 -129 q 781 -160 753 -160 q 825 -153 813 -160 q 851 -147 838 -147 q 867 -160 864 -147 l 879 -204 m 567 388 l 415 803 l 264 388 l 567 388 z "},"ą":{"ha":804,"x_min":58,"x_max":765,"o":"m 764 -204 q 765 -212 765 -210 q 756 -226 765 -224 q 701 -243 725 -237 q 646 -249 678 -249 q 544 -215 585 -249 q 503 -122 503 -181 q 535 -25 503 -61 q 608 31 568 11 l 593 72 q 502 8 553 31 q 378 -14 451 -14 q 253 8 311 -14 q 151 73 194 31 q 83 179 108 115 q 58 326 58 243 q 83 468 58 406 q 152 575 108 531 q 257 643 196 619 q 392 667 318 667 q 517 641 463 667 q 599 583 572 615 l 599 633 q 618 653 599 653 l 685 653 q 704 633 704 653 l 704 19 q 692 0 704 6 q 624 -42 649 -18 q 600 -100 600 -65 q 619 -144 600 -129 q 665 -160 638 -160 q 710 -153 697 -160 q 736 -147 722 -147 q 751 -160 749 -147 l 764 -204 m 599 394 q 589 456 599 431 q 557 504 579 481 q 489 556 528 536 q 397 575 450 575 q 306 558 347 575 q 234 508 264 540 q 187 430 204 476 q 169 325 169 383 q 186 222 169 268 q 232 144 203 176 q 303 95 261 113 q 394 78 344 78 q 497 102 457 78 q 565 163 538 126 q 592 212 585 186 q 599 278 599 238 l 599 394 z "},"Ć":{"ha":913,"x_min":67,"x_max":851,"o":"m 846 143 q 851 129 851 136 q 844 115 851 122 q 765 51 804 76 q 686 12 726 26 q 604 -8 646 -3 q 517 -14 563 -14 q 348 17 429 -14 q 204 111 267 49 q 104 267 142 174 q 67 486 67 361 q 105 700 67 607 q 206 856 143 793 q 353 953 269 919 q 528 986 436 986 q 697 956 619 986 q 838 868 775 926 q 844 856 844 861 q 839 842 844 849 l 806 799 q 785 785 796 785 q 767 793 776 785 q 705 838 733 819 q 647 867 676 856 q 588 882 618 878 q 521 886 557 886 q 396 863 456 886 q 290 790 336 839 q 217 665 244 740 q 189 486 189 589 q 217 310 189 385 q 292 185 246 235 q 399 110 339 135 q 521 86 458 86 q 650 111 593 86 q 772 193 707 136 q 790 201 782 201 q 810 188 799 201 l 846 143 m 365 1100 q 361 1113 361 1106 q 371 1126 361 1119 l 594 1286 q 607 1292 601 1292 q 622 1282 617 1292 l 658 1232 q 663 1219 663 1225 q 653 1206 663 1213 l 429 1046 q 417 1040 422 1040 q 401 1050 407 1040 l 365 1100 z "},"ć":{"ha":711,"x_min":58,"x_max":656,"o":"m 649 122 q 656 107 656 115 q 647 90 656 99 q 584 38 615 58 q 522 6 553 17 q 461 -10 492 -6 q 397 -14 431 -14 q 266 8 328 -14 q 158 74 204 31 q 85 181 113 117 q 58 326 58 244 q 85 467 58 404 q 157 574 111 529 q 266 642 203 618 q 404 667 329 667 q 535 641 471 667 q 636 574 599 615 q 643 560 643 565 q 638 546 643 553 l 604 500 q 589 493 599 493 q 572 501 581 493 q 499 553 544 531 q 397 575 453 575 q 306 558 347 575 q 233 508 264 540 q 186 430 203 476 q 169 325 169 383 q 187 227 169 272 q 234 149 204 182 q 306 97 264 115 q 397 78 347 78 q 500 99 461 78 q 578 161 539 121 q 592 168 585 168 q 604 164 600 168 l 649 122 m 247 781 q 243 793 243 786 q 253 807 243 800 l 476 967 q 489 972 483 972 q 504 963 499 972 l 540 913 q 544 900 544 906 q 535 886 544 893 l 311 726 q 299 721 304 721 q 283 731 289 721 l 247 781 z "},"Ĉ":{"ha":913,"x_min":67,"x_max":851,"o":"m 846 143 q 851 129 851 136 q 844 115 851 122 q 765 51 804 76 q 686 12 726 26 q 604 -8 646 -3 q 517 -14 563 -14 q 348 17 429 -14 q 204 111 267 49 q 104 267 142 174 q 67 486 67 361 q 105 700 67 607 q 206 856 143 793 q 353 953 269 919 q 528 986 436 986 q 697 956 619 986 q 838 868 775 926 q 844 856 844 861 q 839 842 844 849 l 806 799 q 785 785 796 785 q 767 793 776 785 q 705 838 733 819 q 647 867 676 856 q 588 882 618 878 q 521 886 557 886 q 396 863 456 886 q 290 790 336 839 q 217 665 244 740 q 189 486 189 589 q 217 310 189 385 q 292 185 246 235 q 399 110 339 135 q 521 86 458 86 q 650 111 593 86 q 772 193 707 136 q 790 201 782 201 q 810 188 799 201 l 846 143 m 319 1110 q 315 1122 315 1115 q 325 1136 315 1129 l 524 1286 q 536 1292 532 1292 q 549 1286 540 1292 l 747 1136 q 757 1122 757 1129 q 753 1110 757 1115 l 717 1060 q 701 1050 711 1050 q 689 1056 696 1050 l 536 1169 l 383 1056 q 371 1050 376 1050 q 356 1060 361 1050 l 319 1110 z "},"ĉ":{"ha":711,"x_min":58,"x_max":656,"o":"m 649 122 q 656 107 656 115 q 647 90 656 99 q 584 38 615 58 q 522 6 553 17 q 461 -10 492 -6 q 397 -14 431 -14 q 266 8 328 -14 q 158 74 204 31 q 85 181 113 117 q 58 326 58 244 q 85 467 58 404 q 157 574 111 529 q 266 642 203 618 q 404 667 329 667 q 535 641 471 667 q 636 574 599 615 q 643 560 643 565 q 638 546 643 553 l 604 500 q 589 493 599 493 q 572 501 581 493 q 499 553 544 531 q 397 575 453 575 q 306 558 347 575 q 233 508 264 540 q 186 430 203 476 q 169 325 169 383 q 187 227 169 272 q 234 149 204 182 q 306 97 264 115 q 397 78 347 78 q 500 99 461 78 q 578 161 539 121 q 592 168 585 168 q 604 164 600 168 l 649 122 m 182 790 q 178 803 178 796 q 188 817 178 810 l 386 967 q 399 972 394 972 q 411 967 403 972 l 610 817 q 619 803 619 810 q 615 790 619 796 l 579 740 q 564 731 574 731 q 551 736 558 731 l 399 850 l 246 736 q 233 731 239 731 q 218 740 224 731 l 182 790 z "},"Ċ":{"ha":913,"x_min":67,"x_max":851,"o":"m 846 143 q 851 129 851 136 q 844 115 851 122 q 765 51 804 76 q 686 12 726 26 q 604 -8 646 -3 q 517 -14 563 -14 q 348 17 429 -14 q 204 111 267 49 q 104 267 142 174 q 67 486 67 361 q 105 700 67 607 q 206 856 143 793 q 353 953 269 919 q 528 986 436 986 q 697 956 619 986 q 838 868 775 926 q 844 856 844 861 q 839 842 844 849 l 806 799 q 785 785 796 785 q 767 793 776 785 q 705 838 733 819 q 647 867 676 856 q 588 882 618 878 q 521 886 557 886 q 396 863 456 886 q 290 790 336 839 q 217 665 244 740 q 189 486 189 589 q 217 310 189 385 q 292 185 246 235 q 399 110 339 135 q 521 86 458 86 q 650 111 593 86 q 772 193 707 136 q 790 201 782 201 q 810 188 799 201 l 846 143 m 442 1172 q 465 1227 442 1204 q 519 1250 488 1250 q 574 1227 551 1250 q 597 1172 597 1204 q 574 1117 597 1140 q 519 1094 551 1094 q 465 1117 488 1094 q 442 1172 442 1140 z "},"ċ":{"ha":711,"x_min":58,"x_max":656,"o":"m 649 122 q 656 107 656 115 q 647 90 656 99 q 584 38 615 58 q 522 6 553 17 q 461 -10 492 -6 q 397 -14 431 -14 q 266 8 328 -14 q 158 74 204 31 q 85 181 113 117 q 58 326 58 244 q 85 467 58 404 q 157 574 111 529 q 266 642 203 618 q 404 667 329 667 q 535 641 471 667 q 636 574 599 615 q 643 560 643 565 q 638 546 643 553 l 604 500 q 589 493 599 493 q 572 501 581 493 q 499 553 544 531 q 397 575 453 575 q 306 558 347 575 q 233 508 264 540 q 186 430 203 476 q 169 325 169 383 q 187 227 169 272 q 234 149 204 182 q 306 97 264 115 q 397 78 347 78 q 500 99 461 78 q 578 161 539 121 q 592 168 585 168 q 604 164 600 168 l 649 122 m 315 853 q 338 908 315 885 q 393 931 361 931 q 448 908 425 931 q 471 853 471 885 q 448 798 471 821 q 393 775 425 775 q 338 798 361 775 q 315 853 315 821 z "},"Č":{"ha":913,"x_min":67,"x_max":851,"o":"m 846 143 q 851 129 851 136 q 844 115 851 122 q 765 51 804 76 q 686 12 726 26 q 604 -8 646 -3 q 517 -14 563 -14 q 348 17 429 -14 q 204 111 267 49 q 104 267 142 174 q 67 486 67 361 q 105 700 67 607 q 206 856 143 793 q 353 953 269 919 q 528 986 436 986 q 697 956 619 986 q 838 868 775 926 q 844 856 844 861 q 839 842 844 849 l 806 799 q 785 785 796 785 q 767 793 776 785 q 705 838 733 819 q 647 867 676 856 q 588 882 618 878 q 521 886 557 886 q 396 863 456 886 q 290 790 336 839 q 217 665 244 740 q 189 486 189 589 q 217 310 189 385 q 292 185 246 235 q 399 110 339 135 q 521 86 458 86 q 650 111 593 86 q 772 193 707 136 q 790 201 782 201 q 810 188 799 201 l 846 143 m 328 1282 q 343 1292 333 1292 q 356 1286 349 1292 l 508 1172 l 661 1286 q 674 1292 668 1292 q 689 1282 683 1292 l 725 1232 q 729 1219 729 1225 q 719 1206 729 1213 l 521 1056 q 508 1050 513 1050 q 496 1056 504 1050 l 297 1206 q 288 1219 288 1213 q 292 1232 288 1225 l 328 1282 z "},"č":{"ha":711,"x_min":58,"x_max":656,"o":"m 649 122 q 656 107 656 115 q 647 90 656 99 q 584 38 615 58 q 522 6 553 17 q 461 -10 492 -6 q 397 -14 431 -14 q 266 8 328 -14 q 158 74 204 31 q 85 181 113 117 q 58 326 58 244 q 85 467 58 404 q 157 574 111 529 q 266 642 203 618 q 404 667 329 667 q 535 641 471 667 q 636 574 599 615 q 643 560 643 565 q 638 546 643 553 l 604 500 q 589 493 599 493 q 572 501 581 493 q 499 553 544 531 q 397 575 453 575 q 306 558 347 575 q 233 508 264 540 q 186 430 203 476 q 169 325 169 383 q 187 227 169 272 q 234 149 204 182 q 306 97 264 115 q 397 78 347 78 q 500 99 461 78 q 578 161 539 121 q 592 168 585 168 q 604 164 600 168 l 649 122 m 199 963 q 214 972 204 972 q 226 967 219 972 l 379 853 l 532 967 q 544 972 539 972 q 560 963 554 972 l 596 913 q 600 900 600 906 q 590 886 600 893 l 392 736 q 379 731 383 731 q 367 736 375 731 l 168 886 q 158 900 158 893 q 163 913 158 906 l 199 963 z "},"Ď":{"ha":922,"x_min":119,"x_max":856,"o":"m 119 953 q 139 972 119 972 l 375 972 q 559 942 472 972 q 712 850 646 911 q 817 698 778 789 q 856 486 856 607 q 817 270 856 361 q 713 119 778 179 q 560 29 647 58 q 375 0 472 0 l 139 0 q 119 19 119 0 l 119 953 m 375 100 q 511 122 446 100 q 626 191 576 144 q 704 310 675 238 q 733 486 733 383 q 704 663 733 589 q 626 783 675 736 q 512 851 576 829 q 375 872 447 872 l 233 872 l 233 100 l 375 100 m 211 1282 q 226 1292 217 1292 q 239 1286 232 1292 l 392 1172 l 544 1286 q 557 1292 551 1292 q 572 1282 567 1292 l 608 1232 q 613 1219 613 1225 q 603 1206 613 1213 l 404 1056 q 392 1050 396 1050 q 379 1056 388 1050 l 181 1206 q 171 1219 171 1213 q 175 1232 171 1225 l 211 1282 z "},"ď":{"ha":1015,"x_min":58,"x_max":960,"o":"m 575 64 q 487 9 539 32 q 361 -14 435 -14 q 238 8 294 -14 q 142 73 182 31 q 81 179 103 115 q 58 326 58 243 q 82 468 58 406 q 149 575 106 531 q 251 643 192 619 q 383 667 311 667 q 495 644 442 667 q 575 589 549 621 l 575 981 q 594 1000 575 1000 l 661 1000 q 681 981 681 1000 l 681 19 q 661 0 681 0 l 617 0 q 589 19 596 0 l 575 64 m 575 394 q 565 456 575 431 q 533 504 556 481 q 469 556 504 536 q 381 575 433 575 q 297 558 336 575 q 230 508 258 540 q 185 430 201 476 q 169 325 169 383 q 183 226 169 271 q 224 148 197 181 q 289 97 250 115 q 378 78 328 78 q 473 100 432 78 q 544 163 514 122 q 567 207 560 182 q 575 272 575 232 l 575 394 m 793 701 q 775 724 775 713 q 779 739 775 732 q 837 849 824 797 q 850 944 850 901 q 863 969 850 963 q 879 972 871 972 l 933 972 q 960 944 960 972 q 931 804 960 865 q 863 690 903 743 q 851 680 856 683 q 840 676 847 676 q 825 681 833 676 l 793 701 z "},"Đ":{"ha":964,"x_min":11,"x_max":897,"o":"m 161 438 l 31 438 q 11 457 11 438 l 11 515 q 31 535 11 535 l 161 535 l 161 953 q 181 972 161 972 l 417 972 q 601 942 514 972 q 753 850 688 911 q 858 698 819 789 q 897 486 897 607 q 858 270 897 361 q 754 119 819 179 q 601 29 689 58 q 417 0 514 0 l 181 0 q 161 19 161 0 l 161 438 m 417 100 q 553 122 488 100 q 667 191 618 144 q 746 310 717 238 q 775 486 775 383 q 746 663 775 589 q 667 783 717 736 q 553 851 618 829 q 417 872 489 872 l 275 872 l 275 535 l 460 535 q 479 515 479 535 l 479 457 q 460 438 479 438 l 275 438 l 275 100 l 417 100 z "},"đ":{"ha":781,"x_min":58,"x_max":764,"o":"m 575 64 q 487 9 539 32 q 361 -14 435 -14 q 238 8 294 -14 q 142 73 182 31 q 81 179 103 115 q 58 326 58 243 q 82 468 58 406 q 149 575 106 531 q 251 643 192 619 q 383 667 311 667 q 495 644 442 667 q 575 589 549 621 l 575 783 l 397 783 q 378 803 378 783 l 378 856 q 397 875 378 875 l 575 875 l 575 981 q 594 1000 575 1000 l 661 1000 q 681 981 681 1000 l 681 875 l 744 875 q 764 856 764 875 l 764 803 q 744 783 764 783 l 681 783 l 681 19 q 661 0 681 0 l 617 0 q 589 19 596 0 l 575 64 m 575 394 q 565 456 575 431 q 533 504 556 481 q 469 556 504 536 q 381 575 433 575 q 297 558 336 575 q 230 508 258 540 q 185 430 201 476 q 169 325 169 383 q 183 226 169 271 q 224 148 197 181 q 289 97 250 115 q 378 78 328 78 q 473 100 432 78 q 544 163 514 122 q 567 207 560 182 q 575 272 575 232 l 575 394 z "},"Ē":{"ha":825,"x_min":119,"x_max":756,"o":"m 119 953 q 139 972 119 972 l 717 972 q 736 953 736 972 l 736 892 q 717 872 736 872 l 233 872 l 233 561 l 625 561 q 644 542 644 561 l 644 481 q 625 461 644 461 l 233 461 l 233 100 l 736 100 q 756 81 756 100 l 756 19 q 736 0 756 0 l 139 0 q 119 19 119 0 l 119 953 m 293 1171 q 313 1190 293 1190 l 574 1190 q 593 1171 593 1190 l 593 1118 q 574 1099 593 1099 l 313 1099 q 293 1118 293 1099 l 293 1171 z "},"ē":{"ha":767,"x_min":58,"x_max":706,"o":"m 672 132 q 679 117 679 125 q 671 100 679 108 q 399 -14 557 -14 q 270 8 332 -14 q 162 74 208 31 q 87 181 115 117 q 58 326 58 244 q 84 467 58 404 q 154 574 110 529 q 258 642 199 618 q 386 667 318 667 q 517 640 458 667 q 615 569 575 614 q 678 468 656 525 q 706 350 701 411 l 706 314 q 686 294 706 294 l 169 294 q 240 135 176 192 q 399 78 304 78 q 518 103 469 78 q 603 168 567 128 q 619 176 611 176 q 636 168 628 176 l 672 132 m 594 381 q 576 454 592 419 q 534 516 561 489 q 470 559 507 543 q 389 575 433 575 q 239 522 296 575 q 169 381 182 468 l 594 381 m 235 851 q 254 871 235 871 l 515 871 q 535 851 535 871 l 535 799 q 515 779 535 779 l 254 779 q 235 799 235 779 l 235 851 z "},"Ĕ":{"ha":825,"x_min":119,"x_max":756,"o":"m 119 953 q 139 972 119 972 l 717 972 q 736 953 736 972 l 736 892 q 717 872 736 872 l 233 872 l 233 561 l 625 561 q 644 542 644 561 l 644 481 q 625 461 644 461 l 233 461 l 233 100 l 736 100 q 756 81 756 100 l 756 19 q 736 0 756 0 l 139 0 q 119 19 119 0 l 119 953 m 329 1256 q 349 1236 349 1256 q 365 1174 349 1199 q 421 1149 382 1149 q 476 1174 460 1149 q 493 1236 493 1199 q 513 1256 493 1256 l 561 1256 q 581 1236 581 1256 q 538 1116 581 1164 q 421 1068 494 1068 q 304 1116 347 1068 q 261 1236 261 1164 q 281 1256 261 1256 l 329 1256 z "},"ĕ":{"ha":767,"x_min":58,"x_max":706,"o":"m 672 132 q 679 117 679 125 q 671 100 679 108 q 399 -14 557 -14 q 270 8 332 -14 q 162 74 208 31 q 87 181 115 117 q 58 326 58 244 q 84 467 58 404 q 154 574 110 529 q 258 642 199 618 q 386 667 318 667 q 517 640 458 667 q 615 569 575 614 q 678 468 656 525 q 706 350 701 411 l 706 314 q 686 294 706 294 l 169 294 q 240 135 176 192 q 399 78 304 78 q 518 103 469 78 q 603 168 567 128 q 619 176 611 176 q 636 168 628 176 l 672 132 m 594 381 q 576 454 592 419 q 534 516 561 489 q 470 559 507 543 q 389 575 433 575 q 239 522 296 575 q 169 381 182 468 l 594 381 m 294 936 q 314 917 314 936 q 331 854 314 879 q 386 829 347 829 q 442 854 425 829 q 458 917 458 879 q 478 936 458 936 l 526 936 q 546 917 546 936 q 503 797 546 844 q 386 749 460 749 q 269 797 313 749 q 226 917 226 844 q 246 936 226 936 l 294 936 z "},"Ė":{"ha":825,"x_min":119,"x_max":756,"o":"m 119 953 q 139 972 119 972 l 717 972 q 736 953 736 972 l 736 892 q 717 872 736 872 l 233 872 l 233 561 l 625 561 q 644 542 644 561 l 644 481 q 625 461 644 461 l 233 461 l 233 100 l 736 100 q 756 81 756 100 l 756 19 q 736 0 756 0 l 139 0 q 119 19 119 0 l 119 953 m 360 1172 q 383 1227 360 1204 q 438 1250 406 1250 q 492 1227 469 1250 q 515 1172 515 1204 q 492 1117 515 1140 q 438 1094 469 1094 q 383 1117 406 1094 q 360 1172 360 1140 z "},"ė":{"ha":767,"x_min":58,"x_max":706,"o":"m 672 132 q 679 117 679 125 q 671 100 679 108 q 399 -14 557 -14 q 270 8 332 -14 q 162 74 208 31 q 87 181 115 117 q 58 326 58 244 q 84 467 58 404 q 154 574 110 529 q 258 642 199 618 q 386 667 318 667 q 517 640 458 667 q 615 569 575 614 q 678 468 656 525 q 706 350 701 411 l 706 314 q 686 294 706 294 l 169 294 q 240 135 176 192 q 399 78 304 78 q 518 103 469 78 q 603 168 567 128 q 619 176 611 176 q 636 168 628 176 l 672 132 m 594 381 q 576 454 592 419 q 534 516 561 489 q 470 559 507 543 q 389 575 433 575 q 239 522 296 575 q 169 381 182 468 l 594 381 m 310 853 q 333 908 310 885 q 388 931 356 931 q 442 908 419 931 q 465 853 465 885 q 442 798 465 821 q 388 775 419 775 q 333 798 356 775 q 310 853 310 821 z "},"Ę":{"ha":825,"x_min":119,"x_max":817,"o":"m 815 -204 q 817 -212 817 -210 q 807 -226 817 -224 q 753 -243 776 -237 q 697 -249 729 -249 q 595 -215 636 -249 q 554 -122 554 -181 q 571 -49 554 -79 q 613 0 588 -19 l 139 0 q 119 19 119 0 l 119 953 q 139 972 119 972 l 717 972 q 736 953 736 972 l 736 892 q 717 872 736 872 l 233 872 l 233 561 l 625 561 q 644 542 644 561 l 644 481 q 625 461 644 461 l 233 461 l 233 100 l 736 100 q 756 81 756 100 l 756 19 q 743 0 756 6 q 677 -41 703 -17 q 651 -100 651 -65 q 670 -144 651 -129 q 717 -160 689 -160 q 761 -153 749 -160 q 788 -147 774 -147 q 803 -160 800 -147 l 815 -204 z "},"ę":{"ha":767,"x_min":58,"x_max":706,"o":"m 575 -204 q 576 -212 576 -210 q 567 -226 576 -224 q 513 -243 536 -237 q 457 -249 489 -249 q 355 -215 396 -249 q 314 -122 314 -181 q 326 -58 314 -86 q 358 -11 339 -31 q 243 19 297 -6 q 148 88 189 44 q 83 190 107 131 q 58 326 58 250 q 84 467 58 404 q 154 574 110 529 q 258 642 199 618 q 386 667 318 667 q 517 640 458 667 q 615 569 575 614 q 678 468 656 525 q 706 350 701 411 l 706 314 q 686 294 706 294 l 169 294 q 240 135 176 192 q 399 78 304 78 q 518 103 469 78 q 603 168 567 128 q 619 176 611 176 q 636 168 628 176 l 672 132 q 679 117 679 125 q 671 100 679 108 q 496 -3 594 24 q 433 -40 456 -14 q 411 -94 411 -65 q 430 -144 411 -128 q 476 -160 449 -160 q 521 -153 508 -160 q 547 -147 533 -147 q 563 -160 560 -147 l 575 -204 m 594 381 q 576 454 592 419 q 534 516 561 489 q 470 559 507 543 q 389 575 433 575 q 239 522 296 575 q 169 381 182 468 l 594 381 z "},"Ě":{"ha":825,"x_min":119,"x_max":756,"o":"m 119 953 q 139 972 119 972 l 717 972 q 736 953 736 972 l 736 892 q 717 872 736 872 l 233 872 l 233 561 l 625 561 q 644 542 644 561 l 644 481 q 625 461 644 461 l 233 461 l 233 100 l 736 100 q 756 81 756 100 l 756 19 q 736 0 756 0 l 139 0 q 119 19 119 0 l 119 953 m 256 1282 q 271 1292 261 1292 q 283 1286 276 1292 l 436 1172 l 589 1286 q 601 1292 596 1292 q 617 1282 611 1292 l 653 1232 q 657 1219 657 1225 q 647 1206 657 1213 l 449 1056 q 436 1050 440 1050 q 424 1056 432 1050 l 225 1206 q 215 1219 215 1213 q 219 1232 215 1225 l 256 1282 z "},"ě":{"ha":767,"x_min":58,"x_max":706,"o":"m 672 132 q 679 117 679 125 q 671 100 679 108 q 399 -14 557 -14 q 270 8 332 -14 q 162 74 208 31 q 87 181 115 117 q 58 326 58 244 q 84 467 58 404 q 154 574 110 529 q 258 642 199 618 q 386 667 318 667 q 517 640 458 667 q 615 569 575 614 q 678 468 656 525 q 706 350 701 411 l 706 314 q 686 294 706 294 l 169 294 q 240 135 176 192 q 399 78 304 78 q 518 103 469 78 q 603 168 567 128 q 619 176 611 176 q 636 168 628 176 l 672 132 m 594 381 q 576 454 592 419 q 534 516 561 489 q 470 559 507 543 q 389 575 433 575 q 239 522 296 575 q 169 381 182 468 l 594 381 m 204 963 q 219 972 210 972 q 232 967 225 972 l 385 853 l 538 967 q 550 972 544 972 q 565 963 560 972 l 601 913 q 606 900 606 906 q 596 886 606 893 l 397 736 q 385 731 389 731 q 372 736 381 731 l 174 886 q 164 900 164 893 q 168 913 164 906 l 204 963 z "},"Ĝ":{"ha":1019,"x_min":67,"x_max":958,"o":"m 418 486 q 438 506 418 506 l 939 506 q 958 486 958 506 l 958 457 q 931 272 958 358 q 849 122 903 186 q 716 22 794 58 q 536 -14 638 -14 q 358 17 443 -14 q 208 111 272 49 q 105 267 143 174 q 67 486 67 361 q 106 700 67 607 q 210 856 144 793 q 360 953 275 919 q 540 986 446 986 q 655 973 599 986 q 760 935 711 960 q 849 875 808 910 q 918 797 890 840 q 926 775 926 785 q 918 758 926 765 l 871 719 q 856 713 861 713 q 836 725 844 713 q 695 850 774 814 q 533 886 617 886 q 406 863 468 886 q 297 790 344 839 q 219 665 249 740 q 189 486 189 589 q 217 311 189 386 q 294 186 246 236 q 403 111 342 136 q 533 86 465 86 q 754 171 675 86 q 840 406 833 256 l 438 406 q 418 425 418 406 l 418 486 m 317 1110 q 313 1122 313 1115 q 322 1136 313 1129 l 521 1286 q 533 1292 529 1292 q 546 1286 538 1292 l 744 1136 q 754 1122 754 1129 q 750 1110 754 1115 l 714 1060 q 699 1050 708 1050 q 686 1056 693 1050 l 533 1169 l 381 1056 q 368 1050 374 1050 q 353 1060 358 1050 l 317 1110 z "},"ĝ":{"ha":783,"x_min":58,"x_max":690,"o":"m 136 -131 q 149 -124 143 -124 q 160 -128 154 -124 q 269 -211 213 -181 q 399 -242 326 -242 q 536 -184 488 -242 q 585 -22 585 -126 l 585 56 q 496 3 547 21 q 386 -14 444 -14 q 253 10 314 -14 q 150 78 193 33 q 83 185 107 122 q 58 326 58 247 q 83 474 58 410 q 149 580 107 538 q 250 644 192 622 q 378 667 308 667 q 497 646 440 667 q 585 589 553 625 l 585 633 q 604 653 585 653 l 671 653 q 690 633 690 653 l 690 -26 q 668 -153 690 -96 q 607 -250 646 -210 q 515 -312 568 -290 q 399 -333 461 -333 q 297 -322 342 -333 q 214 -294 251 -311 q 146 -253 176 -276 q 90 -207 115 -231 q 85 -196 85 -201 q 92 -182 85 -189 l 136 -131 m 585 381 q 577 446 585 421 q 554 490 569 471 q 479 553 524 531 q 381 575 435 575 q 291 556 331 575 q 224 505 251 538 q 183 427 197 472 q 169 328 169 382 q 186 223 169 269 q 232 144 203 176 q 300 95 261 113 q 383 78 339 78 q 546 139 489 78 q 576 189 568 163 q 585 251 585 215 l 585 381 m 168 790 q 164 803 164 796 q 174 817 164 810 l 372 967 q 385 972 381 972 q 397 967 389 972 l 596 817 q 606 803 606 810 q 601 790 606 796 l 565 740 q 550 731 560 731 q 538 736 544 731 l 385 850 l 232 736 q 219 731 225 731 q 204 740 210 731 l 168 790 z "},"Ğ":{"ha":1019,"x_min":67,"x_max":958,"o":"m 418 486 q 438 506 418 506 l 939 506 q 958 486 958 506 l 958 457 q 931 272 958 358 q 849 122 903 186 q 716 22 794 58 q 536 -14 638 -14 q 358 17 443 -14 q 208 111 272 49 q 105 267 143 174 q 67 486 67 361 q 106 700 67 607 q 210 856 144 793 q 360 953 275 919 q 540 986 446 986 q 655 973 599 986 q 760 935 711 960 q 849 875 808 910 q 918 797 890 840 q 926 775 926 785 q 918 758 926 765 l 871 719 q 856 713 861 713 q 836 725 844 713 q 695 850 774 814 q 533 886 617 886 q 406 863 468 886 q 297 790 344 839 q 219 665 249 740 q 189 486 189 589 q 217 311 189 386 q 294 186 246 236 q 403 111 342 136 q 533 86 465 86 q 754 171 675 86 q 840 406 833 256 l 438 406 q 418 425 418 406 l 418 486 m 442 1256 q 461 1236 461 1256 q 478 1174 461 1199 q 533 1149 494 1149 q 589 1174 572 1149 q 606 1236 606 1199 q 625 1256 606 1256 l 674 1256 q 693 1236 693 1256 q 650 1116 693 1164 q 533 1068 607 1068 q 417 1116 460 1068 q 374 1236 374 1164 q 393 1256 374 1256 l 442 1256 z "},"ğ":{"ha":783,"x_min":58,"x_max":690,"o":"m 136 -131 q 149 -124 143 -124 q 160 -128 154 -124 q 269 -211 213 -181 q 399 -242 326 -242 q 536 -184 488 -242 q 585 -22 585 -126 l 585 56 q 496 3 547 21 q 386 -14 444 -14 q 253 10 314 -14 q 150 78 193 33 q 83 185 107 122 q 58 326 58 247 q 83 474 58 410 q 149 580 107 538 q 250 644 192 622 q 378 667 308 667 q 497 646 440 667 q 585 589 553 625 l 585 633 q 604 653 585 653 l 671 653 q 690 633 690 653 l 690 -26 q 668 -153 690 -96 q 607 -250 646 -210 q 515 -312 568 -290 q 399 -333 461 -333 q 297 -322 342 -333 q 214 -294 251 -311 q 146 -253 176 -276 q 90 -207 115 -231 q 85 -196 85 -201 q 92 -182 85 -189 l 136 -131 m 585 381 q 577 446 585 421 q 554 490 569 471 q 479 553 524 531 q 381 575 435 575 q 291 556 331 575 q 224 505 251 538 q 183 427 197 472 q 169 328 169 382 q 186 223 169 269 q 232 144 203 176 q 300 95 261 113 q 383 78 339 78 q 546 139 489 78 q 576 189 568 163 q 585 251 585 215 l 585 381 m 282 936 q 301 917 301 936 q 318 854 301 879 q 374 829 335 829 q 429 854 413 829 q 446 917 446 879 q 465 936 446 936 l 514 936 q 533 917 533 936 q 490 797 533 844 q 374 749 447 749 q 257 797 300 749 q 214 917 214 844 q 233 936 214 936 l 282 936 z "},"Ġ":{"ha":1019,"x_min":67,"x_max":958,"o":"m 418 486 q 438 506 418 506 l 939 506 q 958 486 958 506 l 958 457 q 931 272 958 358 q 849 122 903 186 q 716 22 794 58 q 536 -14 638 -14 q 358 17 443 -14 q 208 111 272 49 q 105 267 143 174 q 67 486 67 361 q 106 700 67 607 q 210 856 144 793 q 360 953 275 919 q 540 986 446 986 q 655 973 599 986 q 760 935 711 960 q 849 875 808 910 q 918 797 890 840 q 926 775 926 785 q 918 758 926 765 l 871 719 q 856 713 861 713 q 836 725 844 713 q 695 850 774 814 q 533 886 617 886 q 406 863 468 886 q 297 790 344 839 q 219 665 249 740 q 189 486 189 589 q 217 311 189 386 q 294 186 246 236 q 403 111 342 136 q 533 86 465 86 q 754 171 675 86 q 840 406 833 256 l 438 406 q 418 425 418 406 l 418 486 m 460 1172 q 483 1227 460 1204 q 538 1250 506 1250 q 592 1227 569 1250 q 615 1172 615 1204 q 592 1117 615 1140 q 538 1094 569 1094 q 483 1117 506 1094 q 460 1172 460 1140 z "},"ġ":{"ha":783,"x_min":58,"x_max":690,"o":"m 136 -131 q 149 -124 143 -124 q 160 -128 154 -124 q 269 -211 213 -181 q 399 -242 326 -242 q 536 -184 488 -242 q 585 -22 585 -126 l 585 56 q 496 3 547 21 q 386 -14 444 -14 q 253 10 314 -14 q 150 78 193 33 q 83 185 107 122 q 58 326 58 247 q 83 474 58 410 q 149 580 107 538 q 250 644 192 622 q 378 667 308 667 q 497 646 440 667 q 585 589 553 625 l 585 633 q 604 653 585 653 l 671 653 q 690 633 690 653 l 690 -26 q 668 -153 690 -96 q 607 -250 646 -210 q 515 -312 568 -290 q 399 -333 461 -333 q 297 -322 342 -333 q 214 -294 251 -311 q 146 -253 176 -276 q 90 -207 115 -231 q 85 -196 85 -201 q 92 -182 85 -189 l 136 -131 m 585 381 q 577 446 585 421 q 554 490 569 471 q 479 553 524 531 q 381 575 435 575 q 291 556 331 575 q 224 505 251 538 q 183 427 197 472 q 169 328 169 382 q 186 223 169 269 q 232 144 203 176 q 300 95 261 113 q 383 78 339 78 q 546 139 489 78 q 576 189 568 163 q 585 251 585 215 l 585 381 m 310 853 q 333 908 310 885 q 388 931 356 931 q 442 908 419 931 q 465 853 465 885 q 442 798 465 821 q 388 775 419 775 q 333 798 356 775 q 310 853 310 821 z "},"Ģ":{"ha":1019,"x_min":67,"x_max":958,"o":"m 418 486 q 438 506 418 506 l 939 506 q 958 486 958 506 l 958 457 q 931 272 958 358 q 849 122 903 186 q 716 22 794 58 q 536 -14 638 -14 q 358 17 443 -14 q 208 111 272 49 q 105 267 143 174 q 67 486 67 361 q 106 700 67 607 q 210 856 144 793 q 360 953 275 919 q 540 986 446 986 q 655 973 599 986 q 760 935 711 960 q 849 875 808 910 q 918 797 890 840 q 926 775 926 785 q 918 758 926 765 l 871 719 q 856 713 861 713 q 836 725 844 713 q 695 850 774 814 q 533 886 617 886 q 406 863 468 886 q 297 790 344 839 q 219 665 249 740 q 189 486 189 589 q 217 311 189 386 q 294 186 246 236 q 403 111 342 136 q 533 86 465 86 q 754 171 675 86 q 840 406 833 256 l 438 406 q 418 425 418 406 l 418 486 m 436 -333 q 418 -311 418 -322 q 422 -296 418 -303 q 474 -197 463 -243 q 485 -107 485 -150 q 497 -82 485 -89 q 514 -79 506 -79 l 568 -79 q 594 -107 594 -79 q 570 -237 594 -182 q 506 -344 546 -292 q 494 -355 499 -351 q 483 -358 490 -358 q 468 -354 476 -358 l 436 -333 z "},"ģ":{"ha":783,"x_min":58,"x_max":690,"o":"m 136 -131 q 149 -124 143 -124 q 160 -128 154 -124 q 269 -211 213 -181 q 399 -242 326 -242 q 536 -184 488 -242 q 585 -22 585 -126 l 585 56 q 496 3 547 21 q 386 -14 444 -14 q 253 10 314 -14 q 150 78 193 33 q 83 185 107 122 q 58 326 58 247 q 83 474 58 410 q 149 580 107 538 q 250 644 192 622 q 378 667 308 667 q 497 646 440 667 q 585 589 553 625 l 585 633 q 604 653 585 653 l 671 653 q 690 633 690 653 l 690 -26 q 668 -153 690 -96 q 607 -250 646 -210 q 515 -312 568 -290 q 399 -333 461 -333 q 297 -322 342 -333 q 214 -294 251 -311 q 146 -253 176 -276 q 90 -207 115 -231 q 85 -196 85 -201 q 92 -182 85 -189 l 136 -131 m 585 381 q 577 446 585 421 q 554 490 569 471 q 479 553 524 531 q 381 575 435 575 q 291 556 331 575 q 224 505 251 538 q 183 427 197 472 q 169 328 169 382 q 186 223 169 269 q 232 144 203 176 q 300 95 261 113 q 383 78 339 78 q 546 139 489 78 q 576 189 568 163 q 585 251 585 215 l 585 381 m 338 758 q 311 786 311 758 q 340 926 311 865 q 408 1040 368 988 q 419 1051 415 1047 q 431 1054 424 1054 q 446 1050 438 1054 l 478 1029 q 496 1007 496 1018 q 492 992 496 997 q 434 881 447 933 q 421 786 421 829 q 408 761 421 767 q 392 758 400 758 l 338 758 z "},"Ĥ":{"ha":932,"x_min":119,"x_max":813,"o":"m 119 953 q 139 972 119 972 l 214 972 q 233 953 233 972 l 233 561 l 699 561 l 699 953 q 718 972 699 972 l 793 972 q 813 953 813 972 l 813 19 q 793 0 813 0 l 718 0 q 699 19 699 0 l 699 461 l 233 461 l 233 19 q 214 0 233 0 l 139 0 q 119 19 119 0 l 119 953 m 249 1110 q 244 1122 244 1115 q 254 1136 244 1129 l 453 1286 q 465 1292 461 1292 q 478 1286 469 1292 l 676 1136 q 686 1122 686 1129 q 682 1110 686 1115 l 646 1060 q 631 1050 640 1050 q 618 1056 625 1050 l 465 1169 l 313 1056 q 300 1050 306 1050 q 285 1060 290 1050 l 249 1110 z "},"ĥ":{"ha":769,"x_min":90,"x_max":661,"o":"m 100 981 q 119 1000 100 1000 l 186 1000 q 206 981 206 1000 l 206 547 q 250 592 224 571 q 309 631 276 614 q 380 657 342 647 q 460 667 418 667 q 609 616 557 667 q 661 463 661 565 l 661 19 q 642 0 661 0 l 575 0 q 556 19 556 0 l 556 461 q 526 547 556 519 q 443 575 496 575 q 379 565 410 575 q 322 538 349 554 q 274 499 294 521 q 239 456 253 478 q 215 395 224 432 q 206 285 206 358 l 206 19 q 186 0 206 0 l 119 0 q 100 19 100 0 l 100 981 m 94 1110 q 90 1122 90 1115 q 100 1136 90 1129 l 299 1286 q 311 1292 307 1292 q 324 1286 315 1292 l 522 1136 q 532 1122 532 1129 q 528 1110 532 1115 l 492 1060 q 476 1050 486 1050 q 464 1056 471 1050 l 311 1169 l 158 1056 q 146 1050 151 1050 q 131 1060 136 1050 l 94 1110 z "},"Ħ":{"ha":932,"x_min":11,"x_max":921,"o":"m 119 953 q 139 972 119 972 l 214 972 q 233 953 233 972 l 233 788 l 699 788 l 699 953 q 718 972 699 972 l 793 972 q 813 953 813 972 l 813 788 l 901 788 q 921 768 921 788 l 921 715 q 901 696 921 696 l 813 696 l 813 19 q 793 0 813 0 l 718 0 q 699 19 699 0 l 699 461 l 233 461 l 233 19 q 214 0 233 0 l 139 0 q 119 19 119 0 l 119 696 l 31 696 q 11 715 11 696 l 11 768 q 31 788 11 788 l 119 788 l 119 953 m 699 561 l 699 696 l 233 696 l 233 561 l 699 561 z "},"ħ":{"ha":769,"x_min":17,"x_max":661,"o":"m 100 981 q 119 1000 100 1000 l 186 1000 q 206 981 206 1000 l 206 875 l 383 875 q 403 856 403 875 l 403 803 q 383 783 403 783 l 206 783 l 206 547 q 250 592 224 571 q 309 631 276 614 q 380 657 342 647 q 460 667 418 667 q 609 616 557 667 q 661 463 661 565 l 661 19 q 642 0 661 0 l 575 0 q 556 19 556 0 l 556 461 q 526 547 556 519 q 443 575 496 575 q 379 565 410 575 q 322 538 349 554 q 274 499 294 521 q 239 456 253 478 q 215 395 224 432 q 206 285 206 358 l 206 19 q 186 0 206 0 l 119 0 q 100 19 100 0 l 100 783 l 36 783 q 17 803 17 783 l 17 856 q 36 875 17 875 l 100 875 l 100 981 z "},"Ĩ":{"ha":572,"x_min":42,"x_max":543,"o":"m 42 81 q 61 100 42 100 l 229 100 l 229 872 l 75 872 q 56 892 56 872 l 56 953 q 75 972 56 972 l 497 972 q 517 953 517 972 l 517 892 q 497 872 517 872 l 343 872 l 343 100 l 511 100 q 531 81 531 100 l 531 19 q 511 0 531 0 l 61 0 q 42 19 42 0 l 42 81 m 58 1125 q 51 1136 51 1129 q 54 1149 51 1140 q 207 1263 107 1263 q 269 1251 244 1263 q 311 1227 293 1240 q 346 1203 329 1214 q 388 1192 363 1192 q 426 1206 411 1192 q 456 1254 440 1221 q 468 1264 460 1264 q 479 1261 474 1264 l 536 1232 q 543 1221 543 1228 q 540 1208 543 1217 q 388 1094 488 1094 q 326 1106 350 1094 q 283 1130 301 1117 q 249 1154 265 1143 q 207 1165 232 1165 q 169 1151 183 1165 q 139 1103 154 1136 q 126 1093 133 1093 q 115 1096 121 1093 l 58 1125 z "},"ĩ":{"ha":306,"x_min":-82,"x_max":410,"o":"m 100 633 q 119 653 100 653 l 186 653 q 206 633 206 653 l 206 19 q 186 0 206 0 l 119 0 q 100 19 100 0 l 100 633 m -75 806 q -82 817 -82 810 q -79 829 -82 821 q 74 943 -26 943 q 135 932 111 943 q 178 908 160 921 q 213 883 196 894 q 254 872 229 872 q 292 887 278 872 q 322 935 307 901 q 335 944 326 944 q 346 942 340 944 l 403 913 q 410 901 410 908 q 407 889 410 897 q 254 775 354 775 q 192 786 217 775 q 150 810 168 797 q 115 835 132 824 q 74 846 99 846 q 35 831 50 846 q 6 783 21 817 q -7 774 0 774 q -18 776 -12 774 l -75 806 z "},"Ī":{"ha":572,"x_min":42,"x_max":531,"o":"m 42 81 q 61 100 42 100 l 229 100 l 229 872 l 75 872 q 56 892 56 872 l 56 953 q 75 972 56 972 l 497 972 q 517 953 517 972 l 517 892 q 497 872 517 872 l 343 872 l 343 100 l 511 100 q 531 81 531 100 l 531 19 q 511 0 531 0 l 61 0 q 42 19 42 0 l 42 81 m 136 1171 q 156 1190 136 1190 l 417 1190 q 436 1171 436 1190 l 436 1118 q 417 1099 436 1099 l 156 1099 q 136 1118 136 1099 l 136 1171 z "},"ī":{"ha":306,"x_min":3,"x_max":303,"o":"m 100 633 q 119 653 100 653 l 186 653 q 206 633 206 653 l 206 19 q 186 0 206 0 l 119 0 q 100 19 100 0 l 100 633 m 3 851 q 22 871 3 871 l 283 871 q 303 851 303 871 l 303 799 q 283 779 303 779 l 22 779 q 3 799 3 779 l 3 851 z "},"Ĭ":{"ha":572,"x_min":42,"x_max":531,"o":"m 42 81 q 61 100 42 100 l 229 100 l 229 872 l 75 872 q 56 892 56 872 l 56 953 q 75 972 56 972 l 497 972 q 517 953 517 972 l 517 892 q 497 872 517 872 l 343 872 l 343 100 l 511 100 q 531 81 531 100 l 531 19 q 511 0 531 0 l 61 0 q 42 19 42 0 l 42 81 m 194 1256 q 214 1236 214 1256 q 231 1174 214 1199 q 286 1149 247 1149 q 342 1174 325 1149 q 358 1236 358 1199 q 378 1256 358 1256 l 426 1256 q 446 1236 446 1256 q 403 1116 446 1164 q 286 1068 360 1068 q 169 1116 213 1068 q 126 1236 126 1164 q 146 1256 126 1256 l 194 1256 z "},"ĭ":{"ha":306,"x_min":-7,"x_max":313,"o":"m 100 633 q 119 653 100 653 l 186 653 q 206 633 206 653 l 206 19 q 186 0 206 0 l 119 0 q 100 19 100 0 l 100 633 m 61 936 q 81 917 81 936 q 97 854 81 879 q 153 829 114 829 q 208 854 192 829 q 225 917 225 879 q 244 936 225 936 l 293 936 q 313 917 313 936 q 269 797 313 844 q 153 749 226 749 q 36 797 79 749 q -7 917 -7 844 q 13 936 -7 936 l 61 936 z "},"Į":{"ha":572,"x_min":42,"x_max":531,"o":"m 419 -204 q 421 -212 421 -210 q 411 -226 421 -224 q 357 -243 381 -237 q 301 -249 333 -249 q 199 -215 240 -249 q 158 -122 158 -181 q 175 -49 158 -79 q 217 0 192 -19 l 61 0 q 42 19 42 0 l 42 81 q 61 100 42 100 l 229 100 l 229 872 l 75 872 q 56 892 56 872 l 56 953 q 75 972 56 972 l 497 972 q 517 953 517 972 l 517 892 q 497 872 517 872 l 343 872 l 343 100 l 511 100 q 531 81 531 100 l 531 19 q 511 0 531 0 l 347 0 q 281 -41 307 -17 q 256 -100 256 -65 q 274 -144 256 -129 q 321 -160 293 -160 q 365 -153 353 -160 q 392 -147 378 -147 q 407 -160 404 -147 l 419 -204 z "},"į":{"ha":306,"x_min":4,"x_max":267,"o":"m 265 -204 q 267 -212 267 -210 q 257 -226 267 -224 q 203 -243 226 -237 q 147 -249 179 -249 q 45 -215 86 -249 q 4 -122 4 -181 q 34 -29 4 -64 q 100 25 64 6 l 100 633 q 119 653 100 653 l 186 653 q 206 633 206 653 l 206 19 q 193 0 206 6 q 127 -41 153 -17 q 101 -100 101 -65 q 120 -144 101 -129 q 167 -160 139 -160 q 211 -153 199 -160 q 238 -147 224 -147 q 253 -160 250 -147 l 265 -204 m 75 853 q 98 908 75 885 q 153 931 121 931 q 208 908 185 931 q 231 853 231 885 q 208 798 231 821 q 153 775 185 775 q 98 798 121 775 q 75 853 75 821 z "},"İ":{"ha":572,"x_min":42,"x_max":531,"o":"m 42 81 q 61 100 42 100 l 229 100 l 229 872 l 75 872 q 56 892 56 872 l 56 953 q 75 972 56 972 l 497 972 q 517 953 517 972 l 517 892 q 497 872 517 872 l 343 872 l 343 100 l 511 100 q 531 81 531 100 l 531 19 q 511 0 531 0 l 61 0 q 42 19 42 0 l 42 81 m 208 1172 q 231 1227 208 1204 q 286 1250 254 1250 q 341 1227 318 1250 q 364 1172 364 1204 q 341 1117 364 1140 q 286 1094 318 1094 q 231 1117 254 1094 q 208 1172 208 1140 z "},"ı":{"ha":306,"x_min":100,"x_max":206,"o":"m 100 633 q 119 653 100 653 l 186 653 q 206 633 206 653 l 206 19 q 186 0 206 0 l 119 0 q 100 19 100 0 l 100 633 z "},"Ĳ":{"ha":1356,"x_min":42,"x_max":1319,"o":"m 42 81 q 61 100 42 100 l 229 100 l 229 872 l 75 872 q 56 892 56 872 l 56 953 q 75 972 56 972 l 497 972 q 517 953 517 972 l 517 892 q 497 872 517 872 l 343 872 l 343 100 l 511 100 q 531 81 531 100 l 531 19 q 511 0 531 0 l 61 0 q 42 19 42 0 l 42 81 m 682 260 q 693 263 690 263 q 707 251 703 263 q 783 128 732 171 q 913 86 833 86 q 1049 140 999 86 q 1099 310 1099 194 l 1099 872 l 796 872 q 776 892 776 872 l 776 953 q 796 972 776 972 l 1300 972 q 1319 953 1319 972 l 1319 922 q 1300 897 1319 904 l 1213 872 l 1213 314 q 1190 172 1213 233 q 1126 69 1167 111 q 1030 7 1085 28 q 913 -14 975 -14 q 797 5 847 -14 q 708 55 746 24 q 645 126 671 86 q 604 206 619 165 q 601 214 601 213 q 601 218 601 215 q 613 232 601 226 l 682 260 z "},"ĳ":{"ha":611,"x_min":75,"x_max":536,"o":"m 100 633 q 119 653 100 653 l 186 653 q 206 633 206 653 l 206 19 q 186 0 206 0 l 119 0 q 100 19 100 0 l 100 633 m 75 853 q 98 908 75 885 q 153 931 121 931 q 208 908 185 931 q 231 853 231 885 q 208 798 231 821 q 153 775 185 775 q 98 798 121 775 q 75 853 75 821 m 381 853 q 403 908 381 885 q 458 931 426 931 q 513 908 490 931 q 536 853 536 885 q 513 798 536 821 q 458 775 490 775 q 403 798 426 775 q 381 853 381 821 m 253 -257 q 272 -236 253 -236 q 290 -239 279 -236 q 311 -242 300 -242 q 384 -215 363 -242 q 406 -124 406 -187 l 406 633 q 425 653 406 653 l 492 653 q 511 633 511 653 l 511 -96 q 465 -271 511 -208 q 311 -333 419 -333 q 290 -332 303 -333 q 271 -329 276 -331 q 253 -310 253 -325 l 253 -257 z "},"Ĵ":{"ha":788,"x_min":33,"x_max":751,"o":"m 114 260 q 125 263 122 263 q 139 251 135 263 q 215 128 164 171 q 344 86 265 86 q 481 140 431 86 q 531 310 531 194 l 531 872 l 228 872 q 208 892 208 872 l 208 953 q 228 972 208 972 l 732 972 q 751 953 751 972 l 751 922 q 732 897 751 904 l 644 872 l 644 314 q 622 172 644 233 q 558 69 599 111 q 462 7 517 28 q 344 -14 407 -14 q 228 5 279 -14 q 140 55 178 24 q 77 126 103 86 q 36 206 51 165 q 33 214 33 213 q 33 218 33 215 q 44 232 33 226 l 114 260 m 260 1110 q 256 1122 256 1115 q 265 1136 256 1129 l 464 1286 q 476 1292 472 1292 q 489 1286 481 1292 l 688 1136 q 697 1122 697 1129 q 693 1110 697 1115 l 657 1060 q 642 1050 651 1050 q 629 1056 636 1050 l 476 1169 l 324 1056 q 311 1050 317 1050 q 296 1060 301 1050 l 260 1110 z "},"ĵ":{"ha":306,"x_min":-68,"x_max":374,"o":"m -53 -257 q -33 -236 -53 -236 q -16 -239 -26 -236 q 6 -242 -6 -242 q 78 -215 57 -242 q 100 -124 100 -187 l 100 633 q 119 653 100 653 l 186 653 q 206 633 206 653 l 206 -96 q 160 -271 206 -208 q 6 -333 114 -333 q -16 -332 -3 -333 q -35 -329 -29 -331 q -53 -310 -53 -325 l -53 -257 m -64 790 q -68 803 -68 796 q -58 817 -68 810 l 140 967 q 153 972 149 972 q 165 967 157 972 l 364 817 q 374 803 374 810 q 369 790 374 796 l 333 740 q 318 731 328 731 q 306 736 313 731 l 153 850 l 0 736 q -12 731 -7 731 q -28 740 -22 731 l -64 790 z "},"Ķ":{"ha":813,"x_min":119,"x_max":778,"o":"m 119 953 q 139 972 119 972 l 214 972 q 233 953 233 972 l 233 576 l 596 957 q 629 972 608 972 l 724 972 q 739 960 739 972 q 733 947 739 953 l 393 589 l 772 32 q 778 17 778 25 q 761 0 778 0 l 679 0 q 660 4 668 0 q 642 22 651 8 l 313 504 l 233 421 l 233 19 q 214 0 233 0 l 139 0 q 119 19 119 0 l 119 953 m 342 -333 q 324 -311 324 -322 q 328 -296 324 -303 q 379 -197 368 -243 q 390 -107 390 -150 q 403 -82 390 -89 q 419 -79 411 -79 l 474 -79 q 500 -107 500 -79 q 476 -237 500 -182 q 411 -344 451 -292 q 400 -355 404 -351 q 389 -358 396 -358 q 374 -354 382 -358 l 342 -333 z "},"ķ":{"ha":650,"x_min":100,"x_max":615,"o":"m 100 981 q 119 1000 100 1000 l 186 1000 q 206 981 206 1000 l 206 399 l 435 633 q 472 653 451 653 l 556 653 q 572 639 572 653 q 567 626 572 632 l 342 399 l 611 26 q 615 14 615 19 q 599 0 615 0 l 521 0 q 488 19 500 0 l 268 324 l 206 260 l 206 19 q 186 0 206 0 l 119 0 q 100 19 100 0 l 100 981 m 253 -333 q 235 -311 235 -322 q 239 -296 235 -303 q 290 -197 279 -243 q 301 -107 301 -150 q 314 -82 301 -89 q 331 -79 322 -79 l 385 -79 q 411 -107 411 -79 q 387 -237 411 -182 q 322 -344 363 -292 q 311 -355 315 -351 q 300 -358 307 -358 q 285 -354 293 -358 l 253 -333 z "},"ĸ":{"ha":650,"x_min":100,"x_max":615,"o":"m 100 633 q 119 653 100 653 l 186 653 q 206 633 206 653 l 206 399 l 435 633 q 472 653 451 653 l 556 653 q 572 639 572 653 q 567 626 572 632 l 342 399 l 611 26 q 615 14 615 19 q 599 0 615 0 l 521 0 q 488 19 500 0 l 268 324 l 206 260 l 206 19 q 186 0 206 0 l 119 0 q 100 19 100 0 l 100 633 z "},"Ĺ":{"ha":772,"x_min":110,"x_max":729,"o":"m 119 953 q 139 972 119 972 l 214 972 q 233 953 233 972 l 233 100 l 710 100 q 729 81 729 100 l 729 19 q 710 0 729 0 l 139 0 q 119 19 119 0 l 119 953 m 114 1100 q 110 1113 110 1106 q 119 1126 110 1119 l 343 1286 q 356 1292 350 1292 q 371 1282 365 1292 l 407 1232 q 411 1219 411 1225 q 401 1206 411 1213 l 178 1046 q 165 1040 171 1040 q 150 1050 156 1040 l 114 1100 z "},"ĺ":{"ha":365,"x_min":-10,"x_max":318,"o":"m 100 981 q 119 1000 100 1000 l 186 1000 q 206 981 206 1000 l 206 147 q 220 97 206 115 q 256 78 235 78 q 286 85 279 78 q 304 92 293 92 q 318 74 318 92 l 318 21 q 304 0 318 6 q 274 -10 288 -7 q 240 -14 260 -14 q 138 20 176 -14 q 100 126 100 54 l 100 981 m -6 1100 q -10 1113 -10 1106 q 0 1126 -10 1119 l 224 1286 q 236 1292 231 1292 q 251 1282 246 1292 l 288 1232 q 292 1219 292 1225 q 282 1206 292 1213 l 58 1046 q 46 1040 51 1040 q 31 1050 36 1040 l -6 1100 z "},"Ļ":{"ha":772,"x_min":119,"x_max":729,"o":"m 119 953 q 139 972 119 972 l 214 972 q 233 953 233 972 l 233 100 l 710 100 q 729 81 729 100 l 729 19 q 710 0 729 0 l 139 0 q 119 19 119 0 l 119 953 m 351 -333 q 333 -311 333 -322 q 338 -296 333 -303 q 389 -197 378 -243 q 400 -107 400 -150 q 413 -82 400 -89 q 429 -79 421 -79 l 483 -79 q 510 -107 510 -79 q 485 -237 510 -182 q 421 -344 461 -292 q 410 -355 414 -351 q 399 -358 406 -358 q 383 -354 392 -358 l 351 -333 z "},"ļ":{"ha":365,"x_min":93,"x_max":318,"o":"m 100 981 q 119 1000 100 1000 l 186 1000 q 206 981 206 1000 l 206 147 q 220 97 206 115 q 256 78 235 78 q 286 85 279 78 q 304 92 293 92 q 318 74 318 92 l 318 21 q 304 0 318 6 q 274 -10 288 -7 q 240 -14 260 -14 q 138 20 176 -14 q 100 126 100 54 l 100 981 m 111 -333 q 93 -311 93 -322 q 97 -296 93 -303 q 149 -197 138 -243 q 160 -107 160 -150 q 172 -82 160 -89 q 189 -79 181 -79 l 243 -79 q 269 -107 269 -79 q 245 -237 269 -182 q 181 -344 221 -292 q 169 -355 174 -351 q 158 -358 165 -358 q 143 -354 151 -358 l 111 -333 z "},"Ľ":{"ha":772,"x_min":119,"x_max":729,"o":"m 119 953 q 139 972 119 972 l 214 972 q 233 953 233 972 l 233 100 l 710 100 q 729 81 729 100 l 729 19 q 710 0 729 0 l 139 0 q 119 19 119 0 l 119 953 m 533 701 q 515 724 515 713 q 519 739 515 732 q 577 849 564 797 q 590 944 590 901 q 603 969 590 963 q 619 972 611 972 l 674 972 q 700 944 700 972 q 672 804 700 865 q 603 690 643 743 q 592 680 596 683 q 581 676 588 676 q 565 681 574 676 l 533 701 z "},"ľ":{"ha":668,"x_min":100,"x_max":568,"o":"m 100 981 q 119 1000 100 1000 l 186 1000 q 206 981 206 1000 l 206 147 q 220 97 206 115 q 256 78 235 78 q 286 85 279 78 q 304 92 293 92 q 318 74 318 92 l 318 21 q 304 0 318 6 q 274 -10 288 -7 q 240 -14 260 -14 q 138 20 176 -14 q 100 126 100 54 l 100 981 m 401 701 q 383 724 383 713 q 388 739 383 732 q 445 849 432 797 q 458 944 458 901 q 471 969 458 963 q 488 972 479 972 l 542 972 q 568 944 568 972 q 540 804 568 865 q 471 690 511 743 q 460 680 464 683 q 449 676 456 676 q 433 681 442 676 l 401 701 z "},"Ŀ":{"ha":772,"x_min":119,"x_max":729,"o":"m 119 953 q 139 972 119 972 l 214 972 q 233 953 233 972 l 233 100 l 710 100 q 729 81 729 100 l 729 19 q 710 0 729 0 l 139 0 q 119 19 119 0 l 119 953 m 529 486 q 552 543 529 519 q 607 567 575 567 q 664 543 640 567 q 688 486 688 519 q 664 431 688 454 q 607 408 640 408 q 552 431 575 408 q 529 486 529 454 z "},"ŀ":{"ha":594,"x_min":100,"x_max":526,"o":"m 100 981 q 119 1000 100 1000 l 186 1000 q 206 981 206 1000 l 206 147 q 220 97 206 115 q 256 78 235 78 q 286 85 279 78 q 304 92 293 92 q 318 74 318 92 l 318 21 q 304 0 318 6 q 274 -10 288 -7 q 240 -14 260 -14 q 138 20 176 -14 q 100 126 100 54 l 100 981 m 368 486 q 391 543 368 519 q 446 567 414 567 q 503 543 479 567 q 526 486 526 519 q 503 431 526 454 q 446 408 479 408 q 391 431 414 408 q 368 486 368 454 z "},"Ł":{"ha":825,"x_min":7,"x_max":782,"o":"m 172 340 l 67 281 q 54 276 58 276 q 40 288 47 276 l 11 338 q 7 350 7 346 q 18 364 7 357 l 172 453 l 172 944 q 200 972 172 972 l 258 972 q 286 944 286 972 l 286 518 l 460 618 q 472 622 468 622 q 486 611 479 622 l 515 561 q 519 549 519 553 q 508 535 519 542 l 286 407 l 286 100 l 763 100 q 782 81 782 100 l 782 19 q 763 0 782 0 l 192 0 q 172 19 172 0 l 172 340 z "},"ł":{"ha":425,"x_min":8,"x_max":406,"o":"m 144 388 l 68 343 q 56 339 60 339 q 42 350 49 339 l 13 400 q 8 413 8 408 q 19 426 8 419 l 144 499 l 144 981 q 164 1000 144 1000 l 231 1000 q 250 981 250 1000 l 250 560 l 346 615 q 358 619 354 619 q 372 608 365 619 l 401 558 q 406 546 406 550 q 394 532 406 539 l 250 449 l 250 147 q 265 97 250 115 q 300 78 279 78 q 331 85 324 78 q 349 92 338 92 q 363 74 363 92 l 363 21 q 349 0 363 4 q 318 -10 332 -7 q 285 -14 304 -14 q 183 20 221 -14 q 144 126 144 54 l 144 388 z "},"Ń":{"ha":953,"x_min":119,"x_max":833,"o":"m 119 953 q 139 972 119 972 l 196 972 q 215 967 208 972 q 228 953 221 963 l 719 215 l 719 953 q 739 972 719 972 l 814 972 q 833 953 833 972 l 833 19 q 814 0 833 0 l 757 0 q 738 5 744 0 q 725 19 732 10 l 233 757 l 233 19 q 214 0 233 0 l 139 0 q 119 19 119 0 l 119 953 m 329 1100 q 325 1113 325 1106 q 335 1126 325 1119 l 558 1286 q 571 1292 565 1292 q 586 1282 581 1292 l 622 1232 q 626 1219 626 1225 q 617 1206 626 1213 l 393 1046 q 381 1040 386 1040 q 365 1050 371 1040 l 329 1100 z "},"ń":{"ha":769,"x_min":100,"x_max":661,"o":"m 100 633 q 119 653 100 653 l 186 653 q 206 633 206 653 l 206 547 q 245 591 219 569 q 303 629 271 613 q 374 656 336 646 q 451 667 413 667 q 606 616 551 667 q 661 463 661 565 l 661 19 q 642 0 661 0 l 575 0 q 556 19 556 0 l 556 457 q 524 547 556 518 q 435 575 492 575 q 374 565 403 575 q 319 538 344 554 q 273 499 293 521 q 239 456 253 478 q 215 395 224 432 q 206 285 206 358 l 206 19 q 186 0 206 0 l 119 0 q 100 19 100 0 l 100 633 m 238 781 q 233 793 233 786 q 243 807 233 800 l 467 967 q 479 972 474 972 q 494 963 489 972 l 531 913 q 535 900 535 906 q 525 886 535 893 l 301 726 q 289 721 294 721 q 274 731 279 721 l 238 781 z "},"Ņ":{"ha":953,"x_min":119,"x_max":833,"o":"m 119 953 q 139 972 119 972 l 196 972 q 215 967 208 972 q 228 953 221 963 l 719 215 l 719 953 q 739 972 719 972 l 814 972 q 833 953 833 972 l 833 19 q 814 0 833 0 l 757 0 q 738 5 744 0 q 725 19 732 10 l 233 757 l 233 19 q 214 0 233 0 l 139 0 q 119 19 119 0 l 119 953 m 399 -333 q 381 -311 381 -322 q 385 -296 381 -303 q 436 -197 425 -243 q 447 -107 447 -150 q 460 -82 447 -89 q 476 -79 468 -79 l 531 -79 q 557 -107 557 -79 q 533 -237 557 -182 q 468 -344 508 -292 q 457 -355 461 -351 q 446 -358 453 -358 q 431 -354 439 -358 l 399 -333 z "},"ņ":{"ha":769,"x_min":100,"x_max":661,"o":"m 100 633 q 119 653 100 653 l 186 653 q 206 633 206 653 l 206 547 q 245 591 219 569 q 303 629 271 613 q 374 656 336 646 q 451 667 413 667 q 606 616 551 667 q 661 463 661 565 l 661 19 q 642 0 661 0 l 575 0 q 556 19 556 0 l 556 457 q 524 547 556 518 q 435 575 492 575 q 374 565 403 575 q 319 538 344 554 q 273 499 293 521 q 239 456 253 478 q 215 395 224 432 q 206 285 206 358 l 206 19 q 186 0 206 0 l 119 0 q 100 19 100 0 l 100 633 m 281 -333 q 263 -311 263 -322 q 267 -296 263 -303 q 318 -197 307 -243 q 329 -107 329 -150 q 342 -82 329 -89 q 358 -79 350 -79 l 413 -79 q 439 -107 439 -79 q 415 -237 439 -182 q 350 -344 390 -292 q 339 -355 343 -351 q 328 -358 335 -358 q 313 -354 321 -358 l 281 -333 z "},"Ň":{"ha":953,"x_min":119,"x_max":833,"o":"m 119 953 q 139 972 119 972 l 196 972 q 215 967 208 972 q 228 953 221 963 l 719 215 l 719 953 q 739 972 719 972 l 814 972 q 833 953 833 972 l 833 19 q 814 0 833 0 l 757 0 q 738 5 744 0 q 725 19 732 10 l 233 757 l 233 19 q 214 0 233 0 l 139 0 q 119 19 119 0 l 119 953 m 296 1282 q 311 1292 301 1292 q 324 1286 317 1292 l 476 1172 l 629 1286 q 642 1292 636 1292 q 657 1282 651 1292 l 693 1232 q 697 1219 697 1225 q 688 1206 697 1213 l 489 1056 q 476 1050 481 1050 q 464 1056 472 1050 l 265 1206 q 256 1219 256 1213 q 260 1232 256 1225 l 296 1282 z "},"ň":{"ha":769,"x_min":100,"x_max":661,"o":"m 100 633 q 119 653 100 653 l 186 653 q 206 633 206 653 l 206 547 q 245 591 219 569 q 303 629 271 613 q 374 656 336 646 q 451 667 413 667 q 606 616 551 667 q 661 463 661 565 l 661 19 q 642 0 661 0 l 575 0 q 556 19 556 0 l 556 457 q 524 547 556 518 q 435 575 492 575 q 374 565 403 575 q 319 538 344 554 q 273 499 293 521 q 239 456 253 478 q 215 395 224 432 q 206 285 206 358 l 206 19 q 186 0 206 0 l 119 0 q 100 19 100 0 l 100 633 m 204 963 q 219 972 210 972 q 232 967 225 972 l 385 853 l 538 967 q 550 972 544 972 q 565 963 560 972 l 601 913 q 606 900 606 906 q 596 886 606 893 l 397 736 q 385 731 389 731 q 372 736 381 731 l 174 886 q 164 900 164 893 q 168 913 164 906 l 204 963 z "},"ŉ":{"ha":890,"x_min":100,"x_max":854,"o":"m 100 633 q 119 653 100 653 l 186 653 q 206 633 206 653 l 206 547 q 245 591 219 569 q 303 629 271 613 q 374 656 336 646 q 451 667 413 667 q 606 616 551 667 q 661 463 661 565 l 661 19 q 642 0 661 0 l 575 0 q 556 19 556 0 l 556 457 q 524 547 556 518 q 435 575 492 575 q 374 565 403 575 q 319 538 344 554 q 273 499 293 521 q 239 456 253 478 q 215 395 224 432 q 206 285 206 358 l 206 19 q 186 0 206 0 l 119 0 q 100 19 100 0 l 100 633 m 688 701 q 669 724 669 713 q 674 739 669 732 q 731 849 718 797 q 744 944 744 901 q 757 969 744 963 q 774 972 765 972 l 828 972 q 854 944 854 972 q 826 804 854 865 q 757 690 797 743 q 746 680 750 683 q 735 676 742 676 q 719 681 728 676 l 688 701 z "},"Ŋ":{"ha":953,"x_min":119,"x_max":833,"o":"m 119 953 q 139 972 119 972 l 196 972 q 215 967 208 972 q 228 953 221 963 l 719 215 l 719 953 q 739 972 719 972 l 814 972 q 833 953 833 972 l 833 -25 q 765 -253 833 -172 q 575 -333 697 -333 q 431 -297 488 -333 q 347 -196 375 -260 q 344 -187 344 -189 q 343 -183 343 -186 q 353 -168 343 -176 l 419 -135 q 431 -132 428 -132 q 446 -142 440 -132 q 494 -209 465 -185 q 575 -233 522 -233 q 646 -217 618 -233 q 690 -172 674 -200 q 713 -107 707 -144 q 719 -29 719 -69 l 719 28 l 233 757 l 233 19 q 214 0 233 0 l 139 0 q 119 19 119 0 l 119 953 z "},"ŋ":{"ha":769,"x_min":100,"x_max":661,"o":"m 403 -257 q 422 -236 403 -236 q 440 -239 429 -236 q 461 -242 450 -242 q 534 -215 513 -242 q 556 -124 556 -187 l 556 457 q 524 547 556 518 q 435 575 492 575 q 374 565 403 575 q 319 538 344 554 q 273 499 293 521 q 239 456 253 478 q 215 395 224 432 q 206 285 206 358 l 206 19 q 186 0 206 0 l 119 0 q 100 19 100 0 l 100 633 q 119 653 100 653 l 186 653 q 206 633 206 653 l 206 547 q 245 591 219 569 q 303 629 271 613 q 374 656 336 646 q 451 667 413 667 q 606 616 551 667 q 661 463 661 565 l 661 -96 q 615 -271 661 -208 q 461 -333 569 -333 q 440 -332 453 -333 q 421 -329 426 -331 q 403 -310 403 -325 l 403 -257 z "},"Ō":{"ha":1064,"x_min":67,"x_max":997,"o":"m 532 -14 q 358 18 442 -14 q 209 113 274 50 q 106 269 144 175 q 67 486 67 363 q 106 700 67 607 q 211 856 146 793 q 360 953 276 919 q 532 986 443 986 q 704 953 621 986 q 853 856 788 919 q 958 700 918 793 q 997 486 997 607 q 958 269 997 363 q 855 113 919 175 q 706 18 790 50 q 532 -14 622 -14 m 532 86 q 660 110 599 86 q 770 184 722 135 q 847 308 818 233 q 875 486 875 383 q 846 665 875 589 q 769 790 817 740 q 659 863 721 839 q 532 886 597 886 q 405 863 467 886 q 295 790 343 839 q 218 665 247 740 q 189 486 189 589 q 217 308 189 383 q 294 184 246 233 q 403 110 342 135 q 532 86 465 86 m 382 1171 q 401 1190 382 1190 l 663 1190 q 682 1171 682 1190 l 682 1118 q 663 1099 682 1099 l 401 1099 q 382 1118 382 1099 l 382 1171 z "},"ō":{"ha":772,"x_min":58,"x_max":714,"o":"m 386 -14 q 260 8 319 -14 q 155 74 200 31 q 84 181 110 117 q 58 326 58 244 q 83 467 58 404 q 151 574 107 529 q 254 642 194 618 q 386 667 314 667 q 518 642 458 667 q 622 574 578 618 q 690 467 665 529 q 714 326 714 404 q 688 181 714 244 q 617 74 663 117 q 513 8 572 31 q 386 -14 453 -14 m 386 78 q 475 97 435 78 q 544 149 515 115 q 588 227 572 182 q 603 325 603 272 q 585 430 603 383 q 539 508 568 476 q 470 558 510 540 q 386 575 431 575 q 302 558 342 575 q 233 508 263 540 q 187 430 204 476 q 169 325 169 383 q 185 227 169 272 q 228 149 200 182 q 297 97 257 115 q 386 78 338 78 m 236 851 q 256 871 236 871 l 517 871 q 536 851 536 871 l 536 799 q 517 779 536 779 l 256 779 q 236 799 236 779 l 236 851 z "},"Ŏ":{"ha":1064,"x_min":67,"x_max":997,"o":"m 532 -14 q 358 18 442 -14 q 209 113 274 50 q 106 269 144 175 q 67 486 67 363 q 106 700 67 607 q 211 856 146 793 q 360 953 276 919 q 532 986 443 986 q 704 953 621 986 q 853 856 788 919 q 958 700 918 793 q 997 486 997 607 q 958 269 997 363 q 855 113 919 175 q 706 18 790 50 q 532 -14 622 -14 m 532 86 q 660 110 599 86 q 770 184 722 135 q 847 308 818 233 q 875 486 875 383 q 846 665 875 589 q 769 790 817 740 q 659 863 721 839 q 532 886 597 886 q 405 863 467 886 q 295 790 343 839 q 218 665 247 740 q 189 486 189 589 q 217 308 189 383 q 294 184 246 233 q 403 110 342 135 q 532 86 465 86 m 440 1256 q 460 1236 460 1256 q 476 1174 460 1199 q 532 1149 493 1149 q 588 1174 571 1149 q 604 1236 604 1199 q 624 1256 604 1256 l 672 1256 q 692 1236 692 1256 q 649 1116 692 1164 q 532 1068 606 1068 q 415 1116 458 1068 q 372 1236 372 1164 q 392 1256 372 1256 l 440 1256 z "},"ŏ":{"ha":772,"x_min":58,"x_max":714,"o":"m 386 -14 q 260 8 319 -14 q 155 74 200 31 q 84 181 110 117 q 58 326 58 244 q 83 467 58 404 q 151 574 107 529 q 254 642 194 618 q 386 667 314 667 q 518 642 458 667 q 622 574 578 618 q 690 467 665 529 q 714 326 714 404 q 688 181 714 244 q 617 74 663 117 q 513 8 572 31 q 386 -14 453 -14 m 386 78 q 475 97 435 78 q 544 149 515 115 q 588 227 572 182 q 603 325 603 272 q 585 430 603 383 q 539 508 568 476 q 470 558 510 540 q 386 575 431 575 q 302 558 342 575 q 233 508 263 540 q 187 430 204 476 q 169 325 169 383 q 185 227 169 272 q 228 149 200 182 q 297 97 257 115 q 386 78 338 78 m 294 936 q 314 917 314 936 q 331 854 314 879 q 386 829 347 829 q 442 854 425 829 q 458 917 458 879 q 478 936 458 936 l 526 936 q 546 917 546 936 q 503 797 546 844 q 386 749 460 749 q 269 797 313 749 q 226 917 226 844 q 246 936 226 936 l 294 936 z "},"Ő":{"ha":1064,"x_min":67,"x_max":997,"o":"m 532 -14 q 358 18 442 -14 q 209 113 274 50 q 106 269 144 175 q 67 486 67 363 q 106 700 67 607 q 211 856 146 793 q 360 953 276 919 q 532 986 443 986 q 704 953 621 986 q 853 856 788 919 q 958 700 918 793 q 997 486 997 607 q 958 269 997 363 q 855 113 919 175 q 706 18 790 50 q 532 -14 622 -14 m 532 86 q 660 110 599 86 q 770 184 722 135 q 847 308 818 233 q 875 486 875 383 q 846 665 875 589 q 769 790 817 740 q 659 863 721 839 q 532 886 597 886 q 405 863 467 886 q 295 790 343 839 q 218 665 247 740 q 189 486 189 589 q 217 308 189 383 q 294 184 246 233 q 403 110 342 135 q 532 86 465 86 m 263 1100 q 258 1113 258 1106 q 268 1126 258 1119 l 492 1286 q 504 1292 499 1292 q 519 1282 514 1292 l 556 1232 q 560 1219 560 1225 q 550 1206 560 1213 l 326 1046 q 314 1040 319 1040 q 299 1050 304 1040 l 263 1100 m 550 1100 q 546 1113 546 1106 q 556 1126 546 1119 l 779 1286 q 792 1292 786 1292 q 807 1282 801 1292 l 843 1232 q 847 1219 847 1225 q 838 1206 847 1213 l 614 1046 q 601 1040 607 1040 q 586 1050 592 1040 l 550 1100 z "},"ő":{"ha":772,"x_min":58,"x_max":714,"o":"m 386 -14 q 260 8 319 -14 q 155 74 200 31 q 84 181 110 117 q 58 326 58 244 q 83 467 58 404 q 151 574 107 529 q 254 642 194 618 q 386 667 314 667 q 518 642 458 667 q 622 574 578 618 q 690 467 665 529 q 714 326 714 404 q 688 181 714 244 q 617 74 663 117 q 513 8 572 31 q 386 -14 453 -14 m 386 78 q 475 97 435 78 q 544 149 515 115 q 588 227 572 182 q 603 325 603 272 q 585 430 603 383 q 539 508 568 476 q 470 558 510 540 q 386 575 431 575 q 302 558 342 575 q 233 508 263 540 q 187 430 204 476 q 169 325 169 383 q 185 227 169 272 q 228 149 200 182 q 297 97 257 115 q 386 78 338 78 m 96 781 q 92 793 92 786 q 101 807 92 800 l 325 967 q 338 972 332 972 q 353 963 347 972 l 389 913 q 393 900 393 906 q 383 886 393 893 l 160 726 q 147 721 153 721 q 132 731 138 721 l 96 781 m 383 781 q 379 793 379 786 q 389 807 379 800 l 613 967 q 625 972 619 972 q 640 963 635 972 l 676 913 q 681 900 681 906 q 671 886 681 893 l 447 726 q 435 721 440 721 q 419 731 425 721 l 383 781 z "},"Œ":{"ha":1603,"x_min":67,"x_max":1519,"o":"m 883 143 q 724 25 817 64 q 532 -14 632 -14 q 358 18 442 -14 q 209 113 274 50 q 106 269 144 175 q 67 486 67 363 q 106 700 67 607 q 211 856 146 793 q 360 953 276 919 q 532 986 443 986 q 724 944 632 986 q 883 824 817 903 l 883 953 q 903 972 883 972 l 1481 972 q 1500 953 1500 972 l 1500 892 q 1481 872 1500 872 l 997 872 l 997 561 l 1389 561 q 1408 542 1408 561 l 1408 481 q 1389 461 1408 461 l 997 461 l 997 100 l 1500 100 q 1519 81 1519 100 l 1519 19 q 1500 0 1519 0 l 903 0 q 883 19 883 0 l 883 143 m 532 86 q 660 110 599 86 q 770 184 722 135 q 847 308 818 233 q 875 486 875 383 q 846 665 875 589 q 769 790 817 740 q 659 863 721 839 q 532 886 597 886 q 405 863 467 886 q 295 790 343 839 q 218 665 247 740 q 189 486 189 589 q 217 308 189 383 q 294 184 246 233 q 403 110 342 135 q 532 86 465 86 z "},"œ":{"ha":1311,"x_min":58,"x_max":1250,"o":"m 1217 132 q 1224 117 1224 125 q 1215 100 1224 108 q 943 -14 1101 -14 q 783 22 857 -14 q 661 126 708 57 q 544 22 617 57 q 386 -14 472 -14 q 260 8 319 -14 q 155 74 200 31 q 84 181 110 117 q 58 326 58 244 q 83 467 58 404 q 151 574 107 529 q 254 642 194 618 q 386 667 314 667 q 547 630 476 667 q 660 526 617 593 q 774 630 704 593 q 931 667 844 667 q 1061 640 1003 667 q 1160 569 1119 614 q 1223 468 1200 525 q 1250 350 1246 411 l 1250 314 q 1231 294 1250 294 l 714 294 q 785 135 721 192 q 943 78 849 78 q 1063 103 1014 78 q 1147 168 1111 128 q 1164 176 1156 176 q 1181 168 1172 176 l 1217 132 m 386 78 q 475 97 435 78 q 544 149 515 115 q 588 227 572 182 q 603 325 603 272 q 585 430 603 383 q 539 508 568 476 q 470 558 510 540 q 386 575 431 575 q 302 558 342 575 q 233 508 263 540 q 187 430 204 476 q 169 325 169 383 q 185 227 169 272 q 228 149 200 182 q 297 97 257 115 q 386 78 338 78 m 1139 381 q 1121 454 1136 419 q 1078 516 1106 489 q 1015 559 1051 543 q 933 575 978 575 q 783 522 840 575 q 714 381 726 468 l 1139 381 z "},"Ŕ":{"ha":854,"x_min":119,"x_max":800,"o":"m 119 953 q 139 972 119 972 l 479 972 q 608 953 551 972 q 703 899 664 933 q 762 819 742 865 q 782 719 782 774 q 762 619 782 665 q 706 540 742 574 q 617 486 669 506 q 503 467 565 467 l 486 467 l 796 28 q 800 15 800 21 q 782 0 800 0 l 700 0 q 678 5 685 0 q 663 21 671 10 l 350 467 l 233 467 l 233 19 q 214 0 233 0 l 139 0 q 119 19 119 0 l 119 953 m 481 567 q 622 606 576 567 q 668 719 668 644 q 622 833 668 794 q 481 872 576 872 l 233 872 l 233 567 l 481 567 m 281 1100 q 276 1113 276 1106 q 286 1126 276 1119 l 510 1286 q 522 1292 517 1292 q 538 1282 532 1292 l 574 1232 q 578 1219 578 1225 q 568 1206 578 1213 l 344 1046 q 332 1040 338 1040 q 317 1050 322 1040 l 281 1100 z "},"ŕ":{"ha":668,"x_min":100,"x_max":635,"o":"m 100 633 q 119 653 100 653 l 186 653 q 206 633 206 653 l 206 547 q 246 591 222 569 q 299 629 269 613 q 363 656 328 646 q 439 667 397 667 q 583 617 531 667 q 635 471 635 567 q 615 457 635 457 l 549 457 q 529 471 532 457 q 495 551 521 526 q 417 575 469 575 q 356 565 383 575 q 308 537 329 554 q 270 499 286 519 q 242 457 254 478 q 217 390 228 433 q 206 285 206 347 l 206 19 q 186 0 206 0 l 119 0 q 100 19 100 0 l 100 633 m 188 781 q 183 793 183 786 q 193 807 183 800 l 417 967 q 429 972 424 972 q 444 963 439 972 l 481 913 q 485 900 485 906 q 475 886 485 893 l 251 726 q 239 721 244 721 q 224 731 229 721 l 188 781 z "},"Ŗ":{"ha":854,"x_min":119,"x_max":800,"o":"m 119 953 q 139 972 119 972 l 479 972 q 608 953 551 972 q 703 899 664 933 q 762 819 742 865 q 782 719 782 774 q 762 619 782 665 q 706 540 742 574 q 617 486 669 506 q 503 467 565 467 l 486 467 l 796 28 q 800 15 800 21 q 782 0 800 0 l 700 0 q 678 5 685 0 q 663 21 671 10 l 350 467 l 233 467 l 233 19 q 214 0 233 0 l 139 0 q 119 19 119 0 l 119 953 m 481 567 q 622 606 576 567 q 668 719 668 644 q 622 833 668 794 q 481 872 576 872 l 233 872 l 233 567 l 481 567 m 350 -333 q 332 -311 332 -322 q 336 -296 332 -303 q 388 -197 376 -243 q 399 -107 399 -150 q 411 -82 399 -89 q 428 -79 419 -79 l 482 -79 q 508 -107 508 -79 q 484 -237 508 -182 q 419 -344 460 -292 q 408 -355 413 -351 q 397 -358 404 -358 q 382 -354 390 -358 l 350 -333 z "},"ŗ":{"ha":668,"x_min":28,"x_max":635,"o":"m 100 633 q 119 653 100 653 l 186 653 q 206 633 206 653 l 206 547 q 246 591 222 569 q 299 629 269 613 q 363 656 328 646 q 439 667 397 667 q 583 617 531 667 q 635 471 635 567 q 615 457 635 457 l 549 457 q 529 471 532 457 q 495 551 521 526 q 417 575 469 575 q 356 565 383 575 q 308 537 329 554 q 270 499 286 519 q 242 457 254 478 q 217 390 228 433 q 206 285 206 347 l 206 19 q 186 0 206 0 l 119 0 q 100 19 100 0 l 100 633 m 46 -333 q 28 -311 28 -322 q 32 -296 28 -303 q 83 -197 72 -243 q 94 -107 94 -150 q 107 -82 94 -89 q 124 -79 115 -79 l 178 -79 q 204 -107 204 -79 q 180 -237 204 -182 q 115 -344 156 -292 q 104 -355 108 -351 q 93 -358 100 -358 q 78 -354 86 -358 l 46 -333 z "},"Ř":{"ha":854,"x_min":119,"x_max":800,"o":"m 119 953 q 139 972 119 972 l 479 972 q 608 953 551 972 q 703 899 664 933 q 762 819 742 865 q 782 719 782 774 q 762 619 782 665 q 706 540 742 574 q 617 486 669 506 q 503 467 565 467 l 486 467 l 796 28 q 800 15 800 21 q 782 0 800 0 l 700 0 q 678 5 685 0 q 663 21 671 10 l 350 467 l 233 467 l 233 19 q 214 0 233 0 l 139 0 q 119 19 119 0 l 119 953 m 481 567 q 622 606 576 567 q 668 719 668 644 q 622 833 668 794 q 481 872 576 872 l 233 872 l 233 567 l 481 567 m 246 1282 q 261 1292 251 1292 q 274 1286 267 1292 l 426 1172 l 579 1286 q 592 1292 586 1292 q 607 1282 601 1292 l 643 1232 q 647 1219 647 1225 q 638 1206 647 1213 l 439 1056 q 426 1050 431 1050 q 414 1056 422 1050 l 215 1206 q 206 1219 206 1213 q 210 1232 206 1225 l 246 1282 z "},"ř":{"ha":668,"x_min":100,"x_max":635,"o":"m 100 633 q 119 653 100 653 l 186 653 q 206 633 206 653 l 206 547 q 246 591 222 569 q 299 629 269 613 q 363 656 328 646 q 439 667 397 667 q 583 617 531 667 q 635 471 635 567 q 615 457 635 457 l 549 457 q 529 471 532 457 q 495 551 521 526 q 417 575 469 575 q 356 565 383 575 q 308 537 329 554 q 270 499 286 519 q 242 457 254 478 q 217 390 228 433 q 206 285 206 347 l 206 19 q 186 0 206 0 l 119 0 q 100 19 100 0 l 100 633 m 153 963 q 168 972 158 972 q 181 967 174 972 l 333 853 l 486 967 q 499 972 493 972 q 514 963 508 972 l 550 913 q 554 900 554 906 q 544 886 554 893 l 346 736 q 333 731 338 731 q 321 736 329 731 l 122 886 q 113 900 113 893 q 117 913 113 906 l 153 963 z "},"Ś":{"ha":793,"x_min":54,"x_max":729,"o":"m 132 265 q 144 269 140 269 q 157 260 151 269 q 205 187 179 219 q 263 132 231 154 q 334 98 294 110 q 422 86 374 86 q 556 133 504 86 q 607 268 607 179 q 547 385 607 342 q 372 460 486 428 q 274 497 322 474 q 188 554 226 521 q 126 632 150 588 q 103 732 103 676 q 125 838 103 790 q 187 917 147 885 q 281 968 226 950 q 399 986 335 986 q 499 974 454 986 q 578 940 543 961 q 641 893 614 919 q 689 840 668 867 q 694 828 694 833 q 686 814 694 821 l 633 771 q 619 764 624 764 q 606 772 613 764 q 513 856 563 826 q 399 886 463 886 q 328 877 361 886 q 270 851 294 868 q 231 806 246 833 q 217 744 217 779 q 234 678 217 707 q 281 626 251 649 q 349 586 310 603 q 435 556 389 569 q 543 517 490 539 q 638 462 596 494 q 704 384 679 429 q 729 276 729 339 q 706 159 729 213 q 642 67 683 106 q 542 8 600 29 q 417 -14 485 -14 q 297 3 353 -14 q 196 48 242 19 q 115 116 150 76 q 60 201 81 156 q 54 218 54 213 q 63 229 54 225 l 132 265 m 250 1100 q 246 1113 246 1106 q 256 1126 246 1119 l 479 1286 q 492 1292 486 1292 q 507 1282 501 1292 l 543 1232 q 547 1219 547 1225 q 538 1206 547 1213 l 314 1046 q 301 1040 307 1040 q 286 1050 292 1040 l 250 1100 z "},"ś":{"ha":629,"x_min":50,"x_max":567,"o":"m 113 197 q 125 201 118 201 q 143 192 136 201 q 232 102 186 126 q 343 78 278 78 q 432 105 406 78 q 458 171 458 132 q 414 251 458 225 q 283 299 369 276 q 210 323 246 308 q 147 360 175 338 q 102 413 119 382 q 85 488 85 444 q 103 567 85 533 q 153 622 122 600 q 224 656 185 644 q 307 667 264 667 q 426 645 374 667 q 532 571 479 624 q 538 557 538 565 q 531 542 538 549 l 501 508 q 483 499 492 499 q 463 507 472 499 q 385 559 422 543 q 303 575 349 575 q 222 553 254 575 q 190 492 190 532 q 204 449 190 467 q 240 419 218 432 q 291 397 263 407 q 350 379 319 388 q 433 351 393 367 q 502 312 472 335 q 549 257 532 289 q 567 182 567 225 q 552 109 567 144 q 509 47 538 74 q 438 3 481 19 q 339 -14 396 -14 q 180 20 253 -14 q 54 135 107 54 q 50 150 50 140 q 63 169 50 163 l 113 197 m 168 781 q 164 793 164 786 q 174 807 164 800 l 397 967 q 410 972 404 972 q 425 963 419 972 l 461 913 q 465 900 465 906 q 456 886 465 893 l 232 726 q 219 721 225 721 q 204 731 210 721 l 168 781 z "},"Ŝ":{"ha":793,"x_min":54,"x_max":729,"o":"m 132 265 q 144 269 140 269 q 157 260 151 269 q 205 187 179 219 q 263 132 231 154 q 334 98 294 110 q 422 86 374 86 q 556 133 504 86 q 607 268 607 179 q 547 385 607 342 q 372 460 486 428 q 274 497 322 474 q 188 554 226 521 q 126 632 150 588 q 103 732 103 676 q 125 838 103 790 q 187 917 147 885 q 281 968 226 950 q 399 986 335 986 q 499 974 454 986 q 578 940 543 961 q 641 893 614 919 q 689 840 668 867 q 694 828 694 833 q 686 814 694 821 l 633 771 q 619 764 624 764 q 606 772 613 764 q 513 856 563 826 q 399 886 463 886 q 328 877 361 886 q 270 851 294 868 q 231 806 246 833 q 217 744 217 779 q 234 678 217 707 q 281 626 251 649 q 349 586 310 603 q 435 556 389 569 q 543 517 490 539 q 638 462 596 494 q 704 384 679 429 q 729 276 729 339 q 706 159 729 213 q 642 67 683 106 q 542 8 600 29 q 417 -14 485 -14 q 297 3 353 -14 q 196 48 242 19 q 115 116 150 76 q 60 201 81 156 q 54 218 54 213 q 63 229 54 225 l 132 265 m 179 1110 q 175 1122 175 1115 q 185 1136 175 1129 l 383 1286 q 396 1292 392 1292 q 408 1286 400 1292 l 607 1136 q 617 1122 617 1129 q 613 1110 617 1115 l 576 1060 q 561 1050 571 1050 q 549 1056 556 1050 l 396 1169 l 243 1056 q 231 1050 236 1050 q 215 1060 221 1050 l 179 1110 z "},"ŝ":{"ha":629,"x_min":50,"x_max":567,"o":"m 113 197 q 125 201 118 201 q 143 192 136 201 q 232 102 186 126 q 343 78 278 78 q 432 105 406 78 q 458 171 458 132 q 414 251 458 225 q 283 299 369 276 q 210 323 246 308 q 147 360 175 338 q 102 413 119 382 q 85 488 85 444 q 103 567 85 533 q 153 622 122 600 q 224 656 185 644 q 307 667 264 667 q 426 645 374 667 q 532 571 479 624 q 538 557 538 565 q 531 542 538 549 l 501 508 q 483 499 492 499 q 463 507 472 499 q 385 559 422 543 q 303 575 349 575 q 222 553 254 575 q 190 492 190 532 q 204 449 190 467 q 240 419 218 432 q 291 397 263 407 q 350 379 319 388 q 433 351 393 367 q 502 312 472 335 q 549 257 532 289 q 567 182 567 225 q 552 109 567 144 q 509 47 538 74 q 438 3 481 19 q 339 -14 396 -14 q 180 20 253 -14 q 54 135 107 54 q 50 150 50 140 q 63 169 50 163 l 113 197 m 97 790 q 93 803 93 796 q 103 817 93 810 l 301 967 q 314 972 310 972 q 326 967 318 972 l 525 817 q 535 803 535 810 q 531 790 535 796 l 494 740 q 479 731 489 731 q 467 736 474 731 l 314 850 l 161 736 q 149 731 154 731 q 133 740 139 731 l 97 790 z "},"Ş":{"ha":793,"x_min":54,"x_max":729,"o":"m 244 -182 q 264 -167 246 -167 q 303 -179 276 -167 q 365 -192 329 -192 q 427 -170 407 -192 q 447 -117 447 -149 q 415 -46 447 -76 q 326 -4 382 -15 q 163 71 232 15 q 60 201 94 126 q 54 218 54 213 q 63 229 54 225 l 132 265 q 144 269 140 269 q 157 260 151 269 q 205 187 179 219 q 263 132 231 154 q 334 98 294 110 q 422 86 374 86 q 556 133 504 86 q 607 268 607 179 q 547 385 607 342 q 372 460 486 428 q 274 497 322 474 q 188 554 226 521 q 126 632 150 588 q 103 732 103 676 q 125 838 103 790 q 187 917 147 885 q 281 968 226 950 q 399 986 335 986 q 499 974 454 986 q 578 940 543 961 q 641 893 614 919 q 689 840 668 867 q 694 828 694 833 q 686 814 694 821 l 633 771 q 619 764 624 764 q 606 772 613 764 q 513 856 563 826 q 399 886 463 886 q 328 877 361 886 q 270 851 294 868 q 231 806 246 833 q 217 744 217 779 q 234 678 217 707 q 281 626 251 649 q 349 586 310 603 q 435 556 389 569 q 543 517 490 539 q 638 462 596 494 q 704 384 679 429 q 729 276 729 339 q 713 176 729 222 q 665 92 696 129 q 592 31 635 56 q 496 -6 549 6 q 541 -56 524 -26 q 558 -125 558 -86 q 507 -240 558 -197 q 378 -283 456 -283 q 297 -276 332 -283 q 246 -262 263 -268 q 233 -247 233 -258 q 233 -244 233 -246 q 235 -236 233 -243 l 244 -182 z "},"ş":{"ha":629,"x_min":50,"x_max":567,"o":"m 168 -182 q 188 -167 169 -167 q 226 -179 200 -167 q 289 -192 253 -192 q 351 -170 331 -192 q 371 -117 371 -149 q 344 -51 371 -81 q 253 -6 318 -22 q 140 45 190 11 q 54 135 89 79 q 50 150 50 140 q 63 169 50 163 l 113 197 q 125 201 118 201 q 143 192 136 201 q 232 102 186 126 q 343 78 278 78 q 432 105 406 78 q 458 171 458 132 q 414 251 458 225 q 283 299 369 276 q 210 323 246 308 q 147 360 175 338 q 102 413 119 382 q 85 488 85 444 q 103 567 85 533 q 153 622 122 600 q 224 656 185 644 q 307 667 264 667 q 426 645 374 667 q 532 571 479 624 q 538 557 538 565 q 531 542 538 549 l 501 508 q 483 499 492 499 q 463 507 472 499 q 385 559 422 543 q 303 575 349 575 q 222 553 254 575 q 190 492 190 532 q 204 449 190 467 q 240 419 218 432 q 291 397 263 407 q 350 379 319 388 q 433 351 393 367 q 502 312 472 335 q 549 257 532 289 q 567 182 567 225 q 529 68 567 121 q 418 -4 492 15 q 464 -54 446 -25 q 482 -119 482 -83 q 431 -243 482 -203 q 301 -283 379 -283 q 221 -276 256 -283 q 169 -262 186 -268 q 157 -247 157 -258 q 157 -244 157 -246 q 158 -236 157 -243 l 168 -182 z "},"Š":{"ha":793,"x_min":54,"x_max":729,"o":"m 132 265 q 144 269 140 269 q 157 260 151 269 q 205 187 179 219 q 263 132 231 154 q 334 98 294 110 q 422 86 374 86 q 556 133 504 86 q 607 268 607 179 q 547 385 607 342 q 372 460 486 428 q 274 497 322 474 q 188 554 226 521 q 126 632 150 588 q 103 732 103 676 q 125 838 103 790 q 187 917 147 885 q 281 968 226 950 q 399 986 335 986 q 499 974 454 986 q 578 940 543 961 q 641 893 614 919 q 689 840 668 867 q 694 828 694 833 q 686 814 694 821 l 633 771 q 619 764 624 764 q 606 772 613 764 q 513 856 563 826 q 399 886 463 886 q 328 877 361 886 q 270 851 294 868 q 231 806 246 833 q 217 744 217 779 q 234 678 217 707 q 281 626 251 649 q 349 586 310 603 q 435 556 389 569 q 543 517 490 539 q 638 462 596 494 q 704 384 679 429 q 729 276 729 339 q 706 159 729 213 q 642 67 683 106 q 542 8 600 29 q 417 -14 485 -14 q 297 3 353 -14 q 196 48 242 19 q 115 116 150 76 q 60 201 81 156 q 54 218 54 213 q 63 229 54 225 l 132 265 m 219 1310 q 235 1319 225 1319 q 247 1314 240 1319 l 400 1200 l 553 1314 q 565 1319 560 1319 q 581 1310 575 1319 l 617 1260 q 621 1247 621 1253 q 611 1233 621 1240 l 413 1083 q 400 1078 404 1078 q 388 1083 396 1078 l 189 1233 q 179 1247 179 1240 q 183 1260 179 1253 l 219 1310 z "},"š":{"ha":629,"x_min":50,"x_max":567,"o":"m 113 197 q 125 201 118 201 q 143 192 136 201 q 232 102 186 126 q 343 78 278 78 q 432 105 406 78 q 458 171 458 132 q 414 251 458 225 q 283 299 369 276 q 210 323 246 308 q 147 360 175 338 q 102 413 119 382 q 85 488 85 444 q 103 567 85 533 q 153 622 122 600 q 224 656 185 644 q 307 667 264 667 q 426 645 374 667 q 532 571 479 624 q 538 557 538 565 q 531 542 538 549 l 501 508 q 483 499 492 499 q 463 507 472 499 q 385 559 422 543 q 303 575 349 575 q 222 553 254 575 q 190 492 190 532 q 204 449 190 467 q 240 419 218 432 q 291 397 263 407 q 350 379 319 388 q 433 351 393 367 q 502 312 472 335 q 549 257 532 289 q 567 182 567 225 q 552 109 567 144 q 509 47 538 74 q 438 3 481 19 q 339 -14 396 -14 q 180 20 253 -14 q 54 135 107 54 q 50 150 50 140 q 63 169 50 163 l 113 197 m 132 963 q 147 972 138 972 q 160 967 153 972 l 313 853 l 465 967 q 478 972 472 972 q 493 963 488 972 l 529 913 q 533 900 533 906 q 524 886 533 893 l 325 736 q 313 731 317 731 q 300 736 308 731 l 101 886 q 92 900 92 893 q 96 913 92 906 l 132 963 z "},"Ţ":{"ha":822,"x_min":44,"x_max":778,"o":"m 289 -182 q 308 -167 290 -167 q 347 -179 321 -167 q 410 -192 374 -192 q 472 -170 451 -192 q 492 -117 492 -149 q 374 -6 492 -40 q 359 4 364 -3 q 354 19 354 11 l 354 872 l 64 872 q 44 892 44 872 l 44 953 q 64 972 44 972 l 758 972 q 778 953 778 972 l 778 892 q 758 872 778 872 l 468 872 l 468 31 q 517 10 493 24 q 560 -24 542 -4 q 591 -67 579 -43 q 603 -119 603 -92 q 551 -243 603 -203 q 422 -283 500 -283 q 342 -276 376 -283 q 290 -262 307 -268 q 278 -247 278 -258 q 278 -244 278 -246 q 279 -236 278 -243 l 289 -182 z "},"ţ":{"ha":497,"x_min":28,"x_max":464,"o":"m 150 -182 q 169 -167 151 -167 q 208 -179 182 -167 q 271 -192 235 -192 q 333 -170 313 -192 q 353 -117 353 -149 q 321 -52 353 -81 q 239 8 289 -24 q 188 64 207 28 q 168 153 168 100 l 168 561 l 47 561 q 28 581 28 561 l 28 633 q 47 653 28 653 l 168 653 l 168 858 q 188 878 168 878 l 254 878 q 274 858 274 878 l 274 653 l 439 653 q 458 633 458 653 l 458 581 q 439 561 458 561 l 274 561 l 274 183 q 294 104 274 131 q 358 78 314 78 q 389 81 376 78 q 408 85 401 85 q 422 67 422 85 l 422 7 q 408 -7 422 -7 l 403 -7 q 447 -57 429 -28 q 464 -119 464 -86 q 413 -243 464 -203 q 283 -283 361 -283 q 203 -276 238 -283 q 151 -262 168 -268 q 139 -247 139 -258 q 139 -244 139 -246 q 140 -236 139 -243 l 150 -182 z "},"Ť":{"ha":822,"x_min":44,"x_max":778,"o":"m 354 872 l 64 872 q 44 892 44 872 l 44 953 q 64 972 44 972 l 758 972 q 778 953 778 972 l 778 892 q 758 872 778 872 l 468 872 l 468 19 q 449 0 468 0 l 374 0 q 354 19 354 0 l 354 872 m 231 1282 q 246 1292 236 1292 q 258 1286 251 1292 l 411 1172 l 564 1286 q 576 1292 571 1292 q 592 1282 586 1292 l 628 1232 q 632 1219 632 1225 q 622 1206 632 1213 l 424 1056 q 411 1050 415 1050 q 399 1056 407 1050 l 200 1206 q 190 1219 190 1213 q 194 1232 190 1225 l 231 1282 z "},"ť":{"ha":872,"x_min":28,"x_max":772,"o":"m 168 561 l 47 561 q 28 581 28 561 l 28 633 q 47 653 28 653 l 168 653 l 168 858 q 188 878 168 878 l 254 878 q 274 858 274 878 l 274 653 l 439 653 q 458 633 458 653 l 458 581 q 439 561 458 561 l 274 561 l 274 183 q 294 104 274 131 q 358 78 314 78 q 389 81 376 78 q 408 85 401 85 q 422 67 422 85 l 422 7 q 408 -7 422 -6 q 387 -10 396 -10 q 368 -12 378 -11 q 347 -14 358 -14 q 317 -14 335 -14 q 262 -3 289 -14 q 214 28 235 7 q 181 80 193 49 q 168 153 168 111 l 168 561 m 606 701 q 588 724 588 713 q 592 739 588 732 q 649 849 636 797 q 663 944 663 901 q 675 969 663 963 q 692 972 683 972 l 746 972 q 772 944 772 972 q 744 804 772 865 q 675 690 715 743 q 664 680 668 683 q 653 676 660 676 q 638 681 646 676 l 606 701 z "},"Ŧ":{"ha":822,"x_min":44,"x_max":778,"o":"m 354 872 l 64 872 q 44 892 44 872 l 44 953 q 64 972 44 972 l 758 972 q 778 953 778 972 l 778 892 q 758 872 778 872 l 468 872 l 468 551 l 681 551 q 700 532 700 551 l 700 479 q 681 460 700 460 l 468 460 l 468 19 q 449 0 468 0 l 374 0 q 354 19 354 0 l 354 460 l 142 460 q 122 479 122 460 l 122 532 q 142 551 122 551 l 354 551 l 354 872 z "},"ŧ":{"ha":497,"x_min":28,"x_max":458,"o":"m 168 561 l 47 561 q 28 581 28 561 l 28 633 q 47 653 28 653 l 168 653 l 168 858 q 188 878 168 878 l 254 878 q 274 858 274 878 l 274 653 l 439 653 q 458 633 458 653 l 458 581 q 439 561 458 561 l 274 561 l 274 388 l 415 388 q 435 368 435 388 l 435 315 q 415 296 435 296 l 274 296 l 274 183 q 294 104 274 131 q 358 78 314 78 q 389 81 376 78 q 408 85 401 85 q 422 67 422 85 l 422 7 q 408 -7 422 -6 q 387 -10 396 -10 q 368 -12 378 -11 q 347 -14 358 -14 q 317 -14 335 -14 q 262 -3 289 -14 q 214 28 235 7 q 181 80 193 49 q 168 153 168 111 l 168 296 l 71 296 q 51 315 51 296 l 51 368 q 71 388 51 388 l 168 388 l 168 561 z "},"Ũ":{"ha":964,"x_min":114,"x_max":850,"o":"m 114 953 q 133 972 114 972 l 208 972 q 228 953 228 972 l 228 431 q 288 176 228 267 q 482 86 347 86 q 676 176 617 86 q 736 431 736 267 l 736 953 q 756 972 736 972 l 831 972 q 850 953 850 972 l 850 415 q 759 97 850 207 q 482 -14 668 -14 q 205 97 296 -14 q 114 415 114 207 l 114 953 m 253 1125 q 246 1136 246 1129 q 249 1149 246 1140 q 401 1263 301 1263 q 463 1251 439 1263 q 506 1227 488 1240 q 540 1203 524 1214 q 582 1192 557 1192 q 620 1206 606 1192 q 650 1254 635 1221 q 663 1264 654 1264 q 674 1261 668 1264 l 731 1232 q 738 1221 738 1228 q 735 1208 738 1217 q 582 1094 682 1094 q 520 1106 544 1094 q 478 1130 496 1117 q 443 1154 460 1143 q 401 1165 426 1165 q 363 1151 378 1165 q 333 1103 349 1136 q 321 1093 328 1093 q 310 1096 315 1093 l 253 1125 z "},"ũ":{"ha":771,"x_min":108,"x_max":671,"o":"m 108 633 q 128 653 108 653 l 194 653 q 214 633 214 653 l 214 235 q 226 160 214 190 q 257 111 238 129 q 303 85 276 93 q 358 78 329 78 q 405 83 381 78 q 453 97 429 88 q 497 119 476 107 q 533 147 518 132 q 559 183 553 167 q 565 222 565 199 l 565 633 q 585 653 565 653 l 651 653 q 671 633 671 653 l 671 19 q 651 0 671 0 l 585 0 q 565 19 565 0 l 565 64 q 469 9 525 32 q 339 -14 413 -14 q 166 46 224 -14 q 108 218 108 106 l 108 633 m 157 806 q 150 817 150 810 q 153 829 150 821 q 306 943 206 943 q 367 932 343 943 q 410 908 392 921 q 444 883 428 894 q 486 872 461 872 q 524 887 510 872 q 554 935 539 901 q 567 944 558 944 q 578 942 572 944 l 635 913 q 642 901 642 908 q 639 889 642 897 q 486 775 586 775 q 424 786 449 775 q 382 810 400 797 q 347 835 364 824 q 306 846 331 846 q 267 831 282 846 q 238 783 253 817 q 225 774 232 774 q 214 776 219 774 l 157 806 z "},"Ū":{"ha":964,"x_min":114,"x_max":850,"o":"m 114 953 q 133 972 114 972 l 208 972 q 228 953 228 972 l 228 431 q 288 176 228 267 q 482 86 347 86 q 676 176 617 86 q 736 431 736 267 l 736 953 q 756 972 736 972 l 831 972 q 850 953 850 972 l 850 415 q 759 97 850 207 q 482 -14 668 -14 q 205 97 296 -14 q 114 415 114 207 l 114 953 m 332 1171 q 351 1190 332 1190 l 613 1190 q 632 1171 632 1190 l 632 1118 q 613 1099 632 1099 l 351 1099 q 332 1118 332 1099 l 332 1171 z "},"ū":{"ha":771,"x_min":108,"x_max":671,"o":"m 108 633 q 128 653 108 653 l 194 653 q 214 633 214 653 l 214 235 q 226 160 214 190 q 257 111 238 129 q 303 85 276 93 q 358 78 329 78 q 405 83 381 78 q 453 97 429 88 q 497 119 476 107 q 533 147 518 132 q 559 183 553 167 q 565 222 565 199 l 565 633 q 585 653 565 653 l 651 653 q 671 633 671 653 l 671 19 q 651 0 671 0 l 585 0 q 565 19 565 0 l 565 64 q 469 9 525 32 q 339 -14 413 -14 q 166 46 224 -14 q 108 218 108 106 l 108 633 m 235 851 q 254 871 235 871 l 515 871 q 535 851 535 871 l 535 799 q 515 779 535 779 l 254 779 q 235 799 235 779 l 235 851 z "},"Ŭ":{"ha":964,"x_min":114,"x_max":850,"o":"m 114 953 q 133 972 114 972 l 208 972 q 228 953 228 972 l 228 431 q 288 176 228 267 q 482 86 347 86 q 676 176 617 86 q 736 431 736 267 l 736 953 q 756 972 736 972 l 831 972 q 850 953 850 972 l 850 415 q 759 97 850 207 q 482 -14 668 -14 q 205 97 296 -14 q 114 415 114 207 l 114 953 m 390 1256 q 410 1236 410 1256 q 426 1174 410 1199 q 482 1149 443 1149 q 538 1174 521 1149 q 554 1236 554 1199 q 574 1256 554 1256 l 622 1256 q 642 1236 642 1256 q 599 1116 642 1164 q 482 1068 556 1068 q 365 1116 408 1068 q 322 1236 322 1164 q 342 1256 322 1256 l 390 1256 z "},"ŭ":{"ha":771,"x_min":108,"x_max":671,"o":"m 108 633 q 128 653 108 653 l 194 653 q 214 633 214 653 l 214 235 q 226 160 214 190 q 257 111 238 129 q 303 85 276 93 q 358 78 329 78 q 405 83 381 78 q 453 97 429 88 q 497 119 476 107 q 533 147 518 132 q 559 183 553 167 q 565 222 565 199 l 565 633 q 585 653 565 653 l 651 653 q 671 633 671 653 l 671 19 q 651 0 671 0 l 585 0 q 565 19 565 0 l 565 64 q 469 9 525 32 q 339 -14 413 -14 q 166 46 224 -14 q 108 218 108 106 l 108 633 m 293 936 q 313 917 313 936 q 329 854 313 879 q 385 829 346 829 q 440 854 424 829 q 457 917 457 879 q 476 936 457 936 l 525 936 q 544 917 544 936 q 501 797 544 844 q 385 749 458 749 q 268 797 311 749 q 225 917 225 844 q 244 936 225 936 l 293 936 z "},"Ů":{"ha":964,"x_min":114,"x_max":850,"o":"m 114 953 q 133 972 114 972 l 208 972 q 228 953 228 972 l 228 431 q 288 176 228 267 q 482 86 347 86 q 676 176 617 86 q 736 431 736 267 l 736 953 q 756 972 736 972 l 831 972 q 850 953 850 972 l 850 415 q 759 97 850 207 q 482 -14 668 -14 q 205 97 296 -14 q 114 415 114 207 l 114 953 m 356 1179 q 391 1269 356 1232 q 482 1306 426 1306 q 573 1269 538 1306 q 608 1179 608 1232 q 573 1090 608 1126 q 482 1053 538 1053 q 391 1090 426 1053 q 356 1179 356 1126 m 482 1117 q 526 1134 510 1117 q 542 1179 542 1151 q 526 1224 542 1207 q 482 1242 510 1242 q 438 1224 454 1242 q 422 1179 422 1207 q 438 1134 422 1151 q 482 1117 454 1117 z "},"ů":{"ha":771,"x_min":108,"x_max":671,"o":"m 108 633 q 128 653 108 653 l 194 653 q 214 633 214 653 l 214 235 q 226 160 214 190 q 257 111 238 129 q 303 85 276 93 q 358 78 329 78 q 405 83 381 78 q 453 97 429 88 q 497 119 476 107 q 533 147 518 132 q 559 183 553 167 q 565 222 565 199 l 565 633 q 585 653 565 653 l 651 653 q 671 633 671 653 l 671 19 q 651 0 671 0 l 585 0 q 565 19 565 0 l 565 64 q 469 9 525 32 q 339 -14 413 -14 q 166 46 224 -14 q 108 218 108 106 l 108 633 m 258 860 q 294 949 258 913 q 385 986 329 986 q 476 949 440 986 q 511 860 511 913 q 476 770 511 807 q 385 733 440 733 q 294 770 329 733 q 258 860 258 807 m 385 797 q 428 815 413 797 q 444 860 444 832 q 428 905 444 888 q 385 922 413 922 q 341 905 357 922 q 325 860 325 888 q 341 815 325 832 q 385 797 357 797 z "},"Ű":{"ha":964,"x_min":114,"x_max":850,"o":"m 114 953 q 133 972 114 972 l 208 972 q 228 953 228 972 l 228 431 q 288 176 228 267 q 482 86 347 86 q 676 176 617 86 q 736 431 736 267 l 736 953 q 756 972 736 972 l 831 972 q 850 953 850 972 l 850 415 q 759 97 850 207 q 482 -14 668 -14 q 205 97 296 -14 q 114 415 114 207 l 114 953 m 192 1100 q 188 1113 188 1106 q 197 1126 188 1119 l 421 1286 q 433 1292 428 1292 q 449 1282 443 1292 l 485 1232 q 489 1219 489 1225 q 479 1206 489 1213 l 256 1046 q 243 1040 249 1040 q 228 1050 233 1040 l 192 1100 m 479 1100 q 475 1113 475 1106 q 485 1126 475 1119 l 708 1286 q 721 1292 715 1292 q 736 1282 731 1292 l 772 1232 q 776 1219 776 1225 q 767 1206 776 1213 l 543 1046 q 531 1040 536 1040 q 515 1050 521 1040 l 479 1100 z "},"ű":{"ha":771,"x_min":90,"x_max":679,"o":"m 108 633 q 128 653 108 653 l 194 653 q 214 633 214 653 l 214 235 q 226 160 214 190 q 257 111 238 129 q 303 85 276 93 q 358 78 329 78 q 405 83 381 78 q 453 97 429 88 q 497 119 476 107 q 533 147 518 132 q 559 183 553 167 q 565 222 565 199 l 565 633 q 585 653 565 653 l 651 653 q 671 633 671 653 l 671 19 q 651 0 671 0 l 585 0 q 565 19 565 0 l 565 64 q 469 9 525 32 q 339 -14 413 -14 q 166 46 224 -14 q 108 218 108 106 l 108 633 m 94 781 q 90 793 90 786 q 100 807 90 800 l 324 967 q 336 972 331 972 q 351 963 346 972 l 388 913 q 392 900 392 906 q 382 886 392 893 l 158 726 q 146 721 151 721 q 131 731 136 721 l 94 781 m 382 781 q 378 793 378 786 q 388 807 378 800 l 611 967 q 624 972 618 972 q 639 963 633 972 l 675 913 q 679 900 679 906 q 669 886 679 893 l 446 726 q 433 721 439 721 q 418 731 424 721 l 382 781 z "},"Ų":{"ha":964,"x_min":114,"x_max":850,"o":"m 674 -204 q 675 -212 675 -210 q 665 -226 675 -224 q 611 -243 635 -237 q 556 -249 588 -249 q 453 -215 494 -249 q 413 -122 413 -181 q 424 -59 413 -86 q 456 -12 436 -32 q 199 104 283 -6 q 114 415 114 214 l 114 953 q 133 972 114 972 l 208 972 q 228 953 228 972 l 228 431 q 288 176 228 267 q 482 86 347 86 q 676 176 617 86 q 736 431 736 267 l 736 953 q 756 972 736 972 l 831 972 q 850 953 850 972 l 850 415 q 838 276 850 343 q 797 156 826 210 q 720 61 768 101 q 601 0 672 21 q 534 -39 558 -12 q 510 -100 510 -65 q 528 -144 510 -129 q 575 -160 547 -160 q 619 -153 607 -160 q 646 -147 632 -147 q 661 -160 658 -147 l 674 -204 z "},"ų":{"ha":771,"x_min":108,"x_max":732,"o":"m 731 -204 q 732 -212 732 -210 q 722 -226 732 -224 q 668 -243 692 -237 q 613 -249 644 -249 q 510 -215 551 -249 q 469 -122 469 -181 q 499 -29 469 -64 q 565 25 529 6 l 565 64 q 469 9 525 32 q 339 -14 413 -14 q 166 46 224 -14 q 108 218 108 106 l 108 633 q 128 653 108 653 l 194 653 q 214 633 214 653 l 214 235 q 226 160 214 190 q 257 111 238 129 q 303 85 276 93 q 358 78 329 78 q 405 83 381 78 q 453 97 429 88 q 497 119 476 107 q 533 147 518 132 q 559 183 553 167 q 565 222 565 199 l 565 633 q 585 653 565 653 l 651 653 q 671 633 671 653 l 671 19 q 658 0 671 6 q 592 -41 618 -17 q 567 -100 567 -65 q 585 -144 567 -129 q 632 -160 604 -160 q 676 -153 664 -160 q 703 -147 689 -147 q 718 -160 715 -147 l 731 -204 z "},"Ŵ":{"ha":1208,"x_min":14,"x_max":1194,"o":"m 14 944 q 42 972 14 972 l 100 972 q 119 966 114 972 q 128 944 124 960 l 329 186 l 546 944 q 558 965 550 958 q 581 972 565 972 l 628 972 q 651 965 643 972 q 663 944 658 958 l 879 186 l 1081 944 q 1090 966 1085 960 q 1108 972 1094 972 l 1167 972 q 1194 944 1194 972 l 944 28 q 908 0 936 0 l 857 0 q 822 28 831 0 l 604 783 l 386 28 q 351 0 378 0 l 300 0 q 264 28 272 0 l 14 944 m 388 1110 q 383 1122 383 1115 q 393 1136 383 1129 l 592 1286 q 604 1292 600 1292 q 617 1286 608 1292 l 815 1136 q 825 1122 825 1129 q 821 1110 825 1115 l 785 1060 q 769 1050 779 1050 q 757 1056 764 1050 l 604 1169 l 451 1056 q 439 1050 444 1050 q 424 1060 429 1050 l 388 1110 z "},"ŵ":{"ha":964,"x_min":26,"x_max":938,"o":"m 26 633 q 46 653 26 653 l 114 653 q 129 648 125 653 q 136 633 133 643 l 285 196 l 435 633 q 457 653 442 653 l 507 653 q 529 633 522 653 l 679 196 l 828 633 q 835 648 831 643 q 850 653 839 653 l 918 653 q 938 633 938 653 l 722 17 q 703 0 715 0 l 663 0 q 640 17 647 0 l 482 485 l 324 17 q 301 0 317 0 l 261 0 q 242 17 247 0 l 26 633 m 265 790 q 261 803 261 796 q 271 817 261 810 l 469 967 q 482 972 478 972 q 494 967 486 972 l 693 817 q 703 803 703 810 q 699 790 703 796 l 663 740 q 647 731 657 731 q 635 736 642 731 l 482 850 l 329 736 q 317 731 322 731 q 301 740 307 731 l 265 790 z "},"Ŷ":{"ha":721,"x_min":6,"x_max":708,"o":"m 317 354 l 10 939 q 6 954 6 947 q 25 972 6 972 l 101 972 q 122 969 114 972 q 136 951 129 965 l 374 482 l 586 951 q 597 967 590 963 q 618 972 603 972 l 694 972 q 708 961 708 972 q 706 951 708 957 l 289 19 q 279 6 286 13 q 261 0 272 0 l 179 0 q 165 11 165 0 q 168 21 165 15 l 317 354 m 151 1110 q 147 1122 147 1115 q 157 1136 147 1129 l 356 1286 q 368 1292 364 1292 q 381 1286 372 1292 l 579 1136 q 589 1122 589 1129 q 585 1110 589 1115 l 549 1060 q 533 1050 543 1050 q 521 1056 528 1050 l 368 1169 l 215 1056 q 203 1050 208 1050 q 188 1060 193 1050 l 151 1110 z "},"ŷ":{"ha":679,"x_min":28,"x_max":649,"o":"m 288 15 q 286 19 286 17 l 28 633 q 47 653 28 653 l 122 653 q 147 633 140 653 l 340 149 l 535 633 q 560 653 542 653 l 629 653 q 649 633 649 653 l 274 -300 q 247 -319 267 -319 l 174 -319 q 160 -308 160 -319 q 160 -301 160 -304 q 163 -296 161 -299 l 288 15 m 122 790 q 118 803 118 796 q 128 817 118 810 l 326 967 q 339 972 335 972 q 351 967 343 972 l 550 817 q 560 803 560 810 q 556 790 560 796 l 519 740 q 504 731 514 731 q 492 736 499 731 l 339 850 l 186 736 q 174 731 179 731 q 158 740 164 731 l 122 790 z "},"Ÿ":{"ha":721,"x_min":6,"x_max":708,"o":"m 317 354 l 10 939 q 6 954 6 947 q 25 972 6 972 l 101 972 q 122 969 114 972 q 136 951 129 965 l 374 482 l 586 951 q 597 967 590 963 q 618 972 603 972 l 694 972 q 708 961 708 972 q 706 951 708 957 l 289 19 q 279 6 286 13 q 261 0 272 0 l 179 0 q 165 11 165 0 q 168 21 165 15 l 317 354 m 178 1131 q 198 1180 178 1160 q 247 1200 218 1200 q 297 1180 276 1200 q 317 1131 317 1160 q 297 1081 317 1101 q 247 1061 276 1061 q 198 1081 218 1061 q 178 1131 178 1101 m 414 1131 q 434 1180 414 1160 q 483 1200 454 1200 q 533 1180 513 1200 q 553 1131 553 1160 q 533 1081 553 1101 q 483 1061 513 1061 q 434 1081 454 1061 q 414 1131 414 1101 z "},"Ź":{"ha":772,"x_min":43,"x_max":719,"o":"m 43 72 q 58 114 43 90 l 557 872 l 88 872 q 68 892 68 872 l 68 953 q 88 972 68 972 l 672 972 q 692 953 692 972 l 692 917 q 689 892 692 903 q 672 861 686 882 l 179 100 l 700 100 q 719 81 719 100 l 719 19 q 700 0 719 0 l 71 0 q 43 28 43 0 l 43 72 m 226 1100 q 222 1113 222 1106 q 232 1126 222 1119 l 456 1286 q 468 1292 463 1292 q 483 1282 478 1292 l 519 1232 q 524 1219 524 1225 q 514 1206 524 1213 l 290 1046 q 278 1040 283 1040 q 263 1050 268 1040 l 226 1100 z "},"ź":{"ha":600,"x_min":42,"x_max":556,"o":"m 42 81 q 44 97 42 92 q 53 113 46 103 l 414 561 l 78 561 q 58 581 58 561 l 58 633 q 78 653 58 653 l 511 653 q 531 633 531 653 l 531 582 q 527 560 531 568 q 517 540 524 551 l 156 92 l 536 92 q 556 72 556 92 l 556 19 q 536 0 556 0 l 61 0 q 42 19 42 0 l 42 81 m 149 781 q 144 793 144 786 q 154 807 144 800 l 378 967 q 390 972 385 972 q 406 963 400 972 l 442 913 q 446 900 446 906 q 436 886 446 893 l 213 726 q 200 721 206 721 q 185 731 190 721 l 149 781 z "}}}
